M48
; DRILL file KiCad 10.0.1 date 2026-08-08T14:57:53
; FORMAT={-:-/ absolute / inch / decimal}
; #@! TF.CreationDate,2026-08-08T14:57:53+02:00
; #@! TF.GenerationSoftware,Kicad,Pcbnew,10.0.1
; #@! TF.FileFunction,Plated,1,2,PTH
FMAT,2
INCH
; #@! TA.AperFunction,Plated,PTH,ViaDrill
T1C0.0118
; #@! TA.AperFunction,Plated,PTH,ComponentDrill
T2C0.0118
; #@! TA.AperFunction,Plated,PTH,ComponentDrill
T3C0.0374
; #@! TA.AperFunction,Plated,PTH,ComponentDrill
T4C0.0394
; #@! TA.AperFunction,Plated,PTH,ComponentDrill
T5C0.1063
%
G90
G05
T1
X3.5402Y-5.0748
X3.6406Y-5.0748
X3.8992Y-4.0732
X3.8996Y-4.6228
X3.9264Y-4.0752
X3.9276Y-4.6228
X3.937Y-4.2913
X3.937Y-4.3307
X3.937Y-4.3701
X3.937Y-4.4094
X3.9764Y-4.2913
X3.9764Y-4.3307
X3.9764Y-4.3701
X3.9764Y-4.4094
X4.0157Y-4.2913
X4.0157Y-4.3307
X4.0157Y-4.3701
X4.0157Y-4.4094
X4.0394Y-4.5827
X4.0551Y-4.2913
X4.0551Y-4.3307
X4.0551Y-4.3701
X4.0551Y-4.4094
X4.1614Y-4.5138
X4.2303Y-4.4606
X4.2409Y-5.074
X4.2776Y-4.4232
X4.3248Y-4.2465
X4.3413Y-5.0744
X4.3539Y-4.3862
X4.3807Y-4.3858
X4.3992Y-4.1311
X4.3992Y-4.1634
X4.3992Y-4.2047
X4.4094Y-3.6791
X4.4094Y-3.7402
X4.4094Y-3.7677
X4.4154Y-3.9173
X4.5138Y-3.6772
X4.5138Y-3.7402
X4.5138Y-3.7717
X4.5138Y-3.9173
X4.5382Y-4.2685
X4.5387Y-4.2953
X4.552Y-4.5126
X4.552Y-4.5528
X4.5886Y-4.4606
X4.6122Y-3.9173
X4.626Y-3.7402
X4.626Y-3.7677
X4.6268Y-4.326
X4.6272Y-4.2992
X4.628Y-3.6713
X4.6634Y-4.1716
X4.685Y-4.4232
X4.6953Y-4.2129
X4.7106Y-3.9173
X4.7579Y-4.2125
X4.7583Y-4.5138
X4.7598Y-4.3059
X4.7598Y-4.3327
X4.785Y-4.5134
X4.8091Y-3.9173
X4.8091Y-4.4232
X4.813Y-3.6772
X4.813Y-3.7677
X4.815Y-3.7362
X4.8366Y-4.4606
X4.9134Y-3.6791
X4.9134Y-3.7362
X4.9134Y-3.7677
X4.9165Y-4.3071
X4.9165Y-4.3339
X4.9198Y-3.9198
X4.9425Y-5.0744
X4.9591Y-4.1728
X4.9906Y-4.2138
X5.0157Y-3.6811
X5.0157Y-3.7362
X5.0157Y-3.7677
X5.0182Y-3.9198
X5.0417Y-5.0748
X5.0583Y-4.3043
X5.0592Y-4.3311
X5.0984Y-4.1693
X5.2047Y-3.9213
X5.2083Y-4.3406
X5.2126Y-3.6791
X5.2126Y-3.748
X5.2126Y-3.7717
X5.2559Y-4.3402
X5.3012Y-4.4331
X5.3051Y-3.9193
X5.313Y-3.6831
X5.313Y-3.748
X5.315Y-3.7756
X5.3453Y-4.2315
X5.3457Y-4.3303
X5.4055Y-3.9193
X5.4134Y-3.6811
X5.4134Y-3.748
X5.4134Y-3.7795
X5.4134Y-4.2205
X5.4567Y-4.2441
X5.4772Y-4.3205
X5.4835Y-4.2441
X5.502Y-3.9193
X5.5748Y-4.0453
X5.5866Y-4.2795
X5.6043Y-3.9173
X5.6102Y-3.7323
X5.6339Y-4.2126
X5.6433Y-5.0752
X5.6732Y-4.2165
X5.7047Y-3.9173
X5.7126Y-3.7362
X5.7205Y-3.7638
X5.7264Y-3.6831
X5.7402Y-4.2283
X5.7429Y-5.0744
X5.7913Y-4.4331
X5.7933Y-4.1043
X5.8091Y-3.9154
X5.8287Y-4.4035
X5.8701Y-4.1043
X5.9016Y-3.7402
X5.9016Y-3.7677
X5.9075Y-3.6791
X5.9094Y-3.9193
X5.9823Y-4.2087
X5.999Y-4.2746
X6.0079Y-4.1398
X6.0079Y-4.1713
X6.0079Y-4.3701
X6.0659Y-4.0482
X6.0748Y-4.7815
X6.1437Y-4.1398
X6.1437Y-4.1713
X6.2205Y-4.0315
X6.2343Y-4.8346
X6.2689Y-4.6917
X6.3031Y-4.8445
X6.3346Y-4.8386
X6.3681Y-4.6909
X6.435Y-3.7579
X6.437Y-3.8734
X6.4665Y-4.7894
X6.6102Y-3.964
X6.6102Y-4.2789
X6.6102Y-4.3597
X6.6299Y-3.9443
X6.6535Y-3.9207
X6.6634Y-4.7894
X6.7953Y-4.0984
X6.8799Y-4.1554
T2
X6.2866Y-3.8341
X6.2866Y-3.8734
X6.2866Y-3.9128
T3
X5.9736Y-5.3799
X6.072Y-5.3799
X6.1705Y-5.3799
X6.2689Y-5.3799
X6.3673Y-5.3799
X6.4657Y-5.3799
X6.5642Y-5.3799
X6.6626Y-5.3799
T4
X6.9998Y-4.0197
X6.9998Y-4.1197
X6.9998Y-4.2197
X6.9998Y-4.3197
T5
X3.3071Y-3.7008
M30
