%TF.GenerationSoftware,KiCad,Pcbnew,10.0.1*%
%TF.CreationDate,2026-08-08T09:34:23+02:00*%
%TF.ProjectId,MMS3_hat_air_quality,4d4d5333-5f68-4617-945f-6169725f7175,V1.0*%
%TF.SameCoordinates,Original*%
%TF.FileFunction,Legend,Bot*%
%TF.FilePolarity,Positive*%
%FSLAX46Y46*%
G04 Gerber Fmt 4.6, Leading zero omitted, Abs format (unit mm)*
G04 Created by KiCad (PCBNEW 10.0.1) date 2026-08-08 09:34:23*
%MOMM*%
%LPD*%
G01*
G04 APERTURE LIST*
G04 Aperture macros list*
%AMRoundRect*
0 Rectangle with rounded corners*
0 $1 Rounding radius*
0 $2 $3 $4 $5 $6 $7 $8 $9 X,Y pos of 4 corners*
0 Add a 4 corners polygon primitive as box body*
4,1,4,$2,$3,$4,$5,$6,$7,$8,$9,$2,$3,0*
0 Add four circle primitives for the rounded corners*
1,1,$1+$1,$2,$3*
1,1,$1+$1,$4,$5*
1,1,$1+$1,$6,$7*
1,1,$1+$1,$8,$9*
0 Add four rect primitives between the rounded corners*
20,1,$1+$1,$2,$3,$4,$5,0*
20,1,$1+$1,$4,$5,$6,$7,0*
20,1,$1+$1,$6,$7,$8,$9,0*
20,1,$1+$1,$8,$9,$2,$3,0*%
G04 Aperture macros list end*
%ADD10C,0.100000*%
%ADD11C,0.200000*%
%ADD12C,0.150000*%
%ADD13C,0.220000*%
%ADD14C,0.300000*%
%ADD15C,0.400000*%
%ADD16C,0.120000*%
%ADD17C,0.000000*%
%ADD18C,3.100000*%
%ADD19R,1.700000X1.700000*%
%ADD20C,1.700000*%
%ADD21C,2.700000*%
%ADD22RoundRect,0.250000X-0.600000X-0.725000X0.600000X-0.725000X0.600000X0.725000X-0.600000X0.725000X0*%
%ADD23O,1.700000X1.950000*%
%ADD24R,1.000000X3.150000*%
G04 APERTURE END LIST*
D10*
X90500000Y-123650000D02*
X94600000Y-123650000D01*
D11*
X90594951Y-122970139D02*
X90607503Y-119759913D01*
X91500162Y-119404510D02*
G75*
G02*
X92603863Y-119371440I578338J-867490D01*
G01*
X91510684Y-119404323D02*
G75*
G02*
X90607503Y-119759907I-879984J910323D01*
G01*
X91530085Y-122614142D02*
G75*
G02*
X92633818Y-122581018I578415J-868058D01*
G01*
X91541646Y-122615030D02*
G75*
G02*
X90594950Y-122969572I-881146J911630D01*
G01*
X92618643Y-122580292D02*
X92635533Y-119392265D01*
X92618643Y-122580292D02*
G75*
G02*
X93722350Y-122613372I525357J-900608D01*
G01*
X92635533Y-119392265D02*
G75*
G02*
X93711834Y-119418767I516667J-885735D01*
G01*
D10*
X94590000Y-123650000D02*
X94140000Y-123200000D01*
D11*
X94599843Y-122961291D02*
G75*
G02*
X93717157Y-122607672I-8043J1258391D01*
G01*
X94599843Y-122961291D02*
X94610469Y-119777828D01*
D10*
X94600000Y-123650000D02*
X94150000Y-124100000D01*
D11*
X94610469Y-119777828D02*
G75*
G02*
X93711837Y-119418761I-10469J1277828D01*
G01*
D10*
X118600000Y-111400000D02*
G75*
G02*
X108600000Y-111400000I-5000000J0D01*
G01*
X108600000Y-111400000D02*
G75*
G02*
X118600000Y-111400000I5000000J0D01*
G01*
X119400000Y-109200000D02*
X135000000Y-109200000D01*
X135000000Y-116200000D01*
X119400000Y-116200000D01*
X119400000Y-109200000D01*
X119450000Y-106750000D02*
X120550000Y-106750000D01*
X119450000Y-108200000D02*
X120550000Y-108200000D01*
X119450000Y-108700000D02*
X119450000Y-106100000D01*
X120597214Y-107500000D02*
G75*
G02*
X119702786Y-107500000I-447214J0D01*
G01*
X119702786Y-107500000D02*
G75*
G02*
X120597214Y-107500000I447214J0D01*
G01*
X120550000Y-106750000D02*
X120850000Y-107050000D01*
X120550000Y-108200000D02*
X120850000Y-107900000D01*
X120850000Y-107100000D02*
X120850000Y-108700000D01*
X120850000Y-108700000D02*
X119450000Y-108700000D01*
X120850000Y-108700000D02*
X150900000Y-108700000D01*
X121250000Y-106100000D02*
X119450000Y-106100000D01*
X121250000Y-106100000D02*
X121250000Y-107100000D01*
X121250000Y-107100000D02*
X120850000Y-107100000D01*
X122500000Y-128600000D02*
X146000000Y-128600000D01*
X131850000Y-93875000D02*
X131850000Y-93425000D01*
X135400000Y-109200000D02*
X150900000Y-116200000D01*
X135400000Y-109200000D02*
X150900000Y-109200000D01*
X150900000Y-116200000D01*
X135400000Y-116200000D01*
X135400000Y-109200000D01*
X141050000Y-93875000D02*
X141050000Y-93425000D01*
X141750000Y-93875000D02*
X141750000Y-93425000D01*
X149100000Y-106100000D02*
X121250000Y-106100000D01*
X149100000Y-106100000D02*
X149100000Y-107100000D01*
X149100000Y-106100000D02*
X150900000Y-106100000D01*
X149100000Y-107100000D02*
X149500000Y-107100000D01*
X149500000Y-107100000D02*
X149500000Y-108700000D01*
X149800000Y-106750000D02*
X149500000Y-107050000D01*
X150647214Y-107500000D02*
G75*
G02*
X149752786Y-107500000I-447214J0D01*
G01*
X149752786Y-107500000D02*
G75*
G02*
X150647214Y-107500000I447214J0D01*
G01*
X150900000Y-106750000D02*
X149800000Y-106750000D01*
X150900000Y-108700000D02*
X150900000Y-106100000D01*
X150950000Y-93875000D02*
X150950000Y-93425000D01*
X134377068Y-109807507D02*
X134034211Y-109807507D01*
X134205639Y-110407507D02*
X134205639Y-109807507D01*
X133834210Y-110407507D02*
X133834210Y-109807507D01*
X133577068Y-110407507D02*
X133577068Y-110093221D01*
X133577068Y-110093221D02*
X133605639Y-110036078D01*
X133605639Y-110036078D02*
X133662782Y-110007507D01*
X133662782Y-110007507D02*
X133748496Y-110007507D01*
X133748496Y-110007507D02*
X133805639Y-110036078D01*
X133805639Y-110036078D02*
X133834210Y-110064650D01*
X133291353Y-110407507D02*
X133291353Y-110007507D01*
X133291353Y-109807507D02*
X133319925Y-109836078D01*
X133319925Y-109836078D02*
X133291353Y-109864650D01*
X133291353Y-109864650D02*
X133262782Y-109836078D01*
X133262782Y-109836078D02*
X133291353Y-109807507D01*
X133291353Y-109807507D02*
X133291353Y-109864650D01*
X133034211Y-110378936D02*
X132977068Y-110407507D01*
X132977068Y-110407507D02*
X132862782Y-110407507D01*
X132862782Y-110407507D02*
X132805639Y-110378936D01*
X132805639Y-110378936D02*
X132777068Y-110321793D01*
X132777068Y-110321793D02*
X132777068Y-110293221D01*
X132777068Y-110293221D02*
X132805639Y-110236078D01*
X132805639Y-110236078D02*
X132862782Y-110207507D01*
X132862782Y-110207507D02*
X132948497Y-110207507D01*
X132948497Y-110207507D02*
X133005639Y-110178936D01*
X133005639Y-110178936D02*
X133034211Y-110121793D01*
X133034211Y-110121793D02*
X133034211Y-110093221D01*
X133034211Y-110093221D02*
X133005639Y-110036078D01*
X133005639Y-110036078D02*
X132948497Y-110007507D01*
X132948497Y-110007507D02*
X132862782Y-110007507D01*
X132862782Y-110007507D02*
X132805639Y-110036078D01*
X132062782Y-110407507D02*
X132062782Y-110007507D01*
X132062782Y-109807507D02*
X132091354Y-109836078D01*
X132091354Y-109836078D02*
X132062782Y-109864650D01*
X132062782Y-109864650D02*
X132034211Y-109836078D01*
X132034211Y-109836078D02*
X132062782Y-109807507D01*
X132062782Y-109807507D02*
X132062782Y-109864650D01*
X131805640Y-110378936D02*
X131748497Y-110407507D01*
X131748497Y-110407507D02*
X131634211Y-110407507D01*
X131634211Y-110407507D02*
X131577068Y-110378936D01*
X131577068Y-110378936D02*
X131548497Y-110321793D01*
X131548497Y-110321793D02*
X131548497Y-110293221D01*
X131548497Y-110293221D02*
X131577068Y-110236078D01*
X131577068Y-110236078D02*
X131634211Y-110207507D01*
X131634211Y-110207507D02*
X131719926Y-110207507D01*
X131719926Y-110207507D02*
X131777068Y-110178936D01*
X131777068Y-110178936D02*
X131805640Y-110121793D01*
X131805640Y-110121793D02*
X131805640Y-110093221D01*
X131805640Y-110093221D02*
X131777068Y-110036078D01*
X131777068Y-110036078D02*
X131719926Y-110007507D01*
X131719926Y-110007507D02*
X131634211Y-110007507D01*
X131634211Y-110007507D02*
X131577068Y-110036078D01*
X130834211Y-110007507D02*
X130834211Y-110607507D01*
X130834211Y-110036078D02*
X130777069Y-110007507D01*
X130777069Y-110007507D02*
X130662783Y-110007507D01*
X130662783Y-110007507D02*
X130605640Y-110036078D01*
X130605640Y-110036078D02*
X130577069Y-110064650D01*
X130577069Y-110064650D02*
X130548497Y-110121793D01*
X130548497Y-110121793D02*
X130548497Y-110293221D01*
X130548497Y-110293221D02*
X130577069Y-110350364D01*
X130577069Y-110350364D02*
X130605640Y-110378936D01*
X130605640Y-110378936D02*
X130662783Y-110407507D01*
X130662783Y-110407507D02*
X130777069Y-110407507D01*
X130777069Y-110407507D02*
X130834211Y-110378936D01*
X130291354Y-110407507D02*
X130291354Y-110007507D01*
X130291354Y-110121793D02*
X130262783Y-110064650D01*
X130262783Y-110064650D02*
X130234212Y-110036078D01*
X130234212Y-110036078D02*
X130177069Y-110007507D01*
X130177069Y-110007507D02*
X130119926Y-110007507D01*
X129834211Y-110407507D02*
X129891354Y-110378936D01*
X129891354Y-110378936D02*
X129919925Y-110350364D01*
X129919925Y-110350364D02*
X129948497Y-110293221D01*
X129948497Y-110293221D02*
X129948497Y-110121793D01*
X129948497Y-110121793D02*
X129919925Y-110064650D01*
X129919925Y-110064650D02*
X129891354Y-110036078D01*
X129891354Y-110036078D02*
X129834211Y-110007507D01*
X129834211Y-110007507D02*
X129748497Y-110007507D01*
X129748497Y-110007507D02*
X129691354Y-110036078D01*
X129691354Y-110036078D02*
X129662783Y-110064650D01*
X129662783Y-110064650D02*
X129634211Y-110121793D01*
X129634211Y-110121793D02*
X129634211Y-110293221D01*
X129634211Y-110293221D02*
X129662783Y-110350364D01*
X129662783Y-110350364D02*
X129691354Y-110378936D01*
X129691354Y-110378936D02*
X129748497Y-110407507D01*
X129748497Y-110407507D02*
X129834211Y-110407507D01*
X129462783Y-110007507D02*
X129234211Y-110007507D01*
X129377068Y-109807507D02*
X129377068Y-110321793D01*
X129377068Y-110321793D02*
X129348497Y-110378936D01*
X129348497Y-110378936D02*
X129291354Y-110407507D01*
X129291354Y-110407507D02*
X129234211Y-110407507D01*
X128948497Y-110407507D02*
X129005640Y-110378936D01*
X129005640Y-110378936D02*
X129034211Y-110350364D01*
X129034211Y-110350364D02*
X129062783Y-110293221D01*
X129062783Y-110293221D02*
X129062783Y-110121793D01*
X129062783Y-110121793D02*
X129034211Y-110064650D01*
X129034211Y-110064650D02*
X129005640Y-110036078D01*
X129005640Y-110036078D02*
X128948497Y-110007507D01*
X128948497Y-110007507D02*
X128862783Y-110007507D01*
X128862783Y-110007507D02*
X128805640Y-110036078D01*
X128805640Y-110036078D02*
X128777069Y-110064650D01*
X128777069Y-110064650D02*
X128748497Y-110121793D01*
X128748497Y-110121793D02*
X128748497Y-110293221D01*
X128748497Y-110293221D02*
X128777069Y-110350364D01*
X128777069Y-110350364D02*
X128805640Y-110378936D01*
X128805640Y-110378936D02*
X128862783Y-110407507D01*
X128862783Y-110407507D02*
X128948497Y-110407507D01*
X128577069Y-110007507D02*
X128348497Y-110007507D01*
X128491354Y-109807507D02*
X128491354Y-110321793D01*
X128491354Y-110321793D02*
X128462783Y-110378936D01*
X128462783Y-110378936D02*
X128405640Y-110407507D01*
X128405640Y-110407507D02*
X128348497Y-110407507D01*
X128205640Y-110007507D02*
X128062783Y-110407507D01*
X127919926Y-110007507D02*
X128062783Y-110407507D01*
X128062783Y-110407507D02*
X128119926Y-110550364D01*
X128119926Y-110550364D02*
X128148497Y-110578936D01*
X128148497Y-110578936D02*
X128205640Y-110607507D01*
X127691354Y-110007507D02*
X127691354Y-110607507D01*
X127691354Y-110036078D02*
X127634212Y-110007507D01*
X127634212Y-110007507D02*
X127519926Y-110007507D01*
X127519926Y-110007507D02*
X127462783Y-110036078D01*
X127462783Y-110036078D02*
X127434212Y-110064650D01*
X127434212Y-110064650D02*
X127405640Y-110121793D01*
X127405640Y-110121793D02*
X127405640Y-110293221D01*
X127405640Y-110293221D02*
X127434212Y-110350364D01*
X127434212Y-110350364D02*
X127462783Y-110378936D01*
X127462783Y-110378936D02*
X127519926Y-110407507D01*
X127519926Y-110407507D02*
X127634212Y-110407507D01*
X127634212Y-110407507D02*
X127691354Y-110378936D01*
X126919926Y-110378936D02*
X126977069Y-110407507D01*
X126977069Y-110407507D02*
X127091355Y-110407507D01*
X127091355Y-110407507D02*
X127148497Y-110378936D01*
X127148497Y-110378936D02*
X127177069Y-110321793D01*
X127177069Y-110321793D02*
X127177069Y-110093221D01*
X127177069Y-110093221D02*
X127148497Y-110036078D01*
X127148497Y-110036078D02*
X127091355Y-110007507D01*
X127091355Y-110007507D02*
X126977069Y-110007507D01*
X126977069Y-110007507D02*
X126919926Y-110036078D01*
X126919926Y-110036078D02*
X126891355Y-110093221D01*
X126891355Y-110093221D02*
X126891355Y-110150364D01*
X126891355Y-110150364D02*
X127177069Y-110207507D01*
X125919926Y-110407507D02*
X125919926Y-109807507D01*
X125919926Y-110378936D02*
X125977068Y-110407507D01*
X125977068Y-110407507D02*
X126091354Y-110407507D01*
X126091354Y-110407507D02*
X126148497Y-110378936D01*
X126148497Y-110378936D02*
X126177068Y-110350364D01*
X126177068Y-110350364D02*
X126205640Y-110293221D01*
X126205640Y-110293221D02*
X126205640Y-110121793D01*
X126205640Y-110121793D02*
X126177068Y-110064650D01*
X126177068Y-110064650D02*
X126148497Y-110036078D01*
X126148497Y-110036078D02*
X126091354Y-110007507D01*
X126091354Y-110007507D02*
X125977068Y-110007507D01*
X125977068Y-110007507D02*
X125919926Y-110036078D01*
X125405640Y-110378936D02*
X125462783Y-110407507D01*
X125462783Y-110407507D02*
X125577069Y-110407507D01*
X125577069Y-110407507D02*
X125634211Y-110378936D01*
X125634211Y-110378936D02*
X125662783Y-110321793D01*
X125662783Y-110321793D02*
X125662783Y-110093221D01*
X125662783Y-110093221D02*
X125634211Y-110036078D01*
X125634211Y-110036078D02*
X125577069Y-110007507D01*
X125577069Y-110007507D02*
X125462783Y-110007507D01*
X125462783Y-110007507D02*
X125405640Y-110036078D01*
X125405640Y-110036078D02*
X125377069Y-110093221D01*
X125377069Y-110093221D02*
X125377069Y-110150364D01*
X125377069Y-110150364D02*
X125662783Y-110207507D01*
X125177068Y-110007507D02*
X125034211Y-110407507D01*
X125034211Y-110407507D02*
X124891354Y-110007507D01*
X124662782Y-110407507D02*
X124662782Y-110007507D01*
X124662782Y-109807507D02*
X124691354Y-109836078D01*
X124691354Y-109836078D02*
X124662782Y-109864650D01*
X124662782Y-109864650D02*
X124634211Y-109836078D01*
X124634211Y-109836078D02*
X124662782Y-109807507D01*
X124662782Y-109807507D02*
X124662782Y-109864650D01*
X124119926Y-110378936D02*
X124177068Y-110407507D01*
X124177068Y-110407507D02*
X124291354Y-110407507D01*
X124291354Y-110407507D02*
X124348497Y-110378936D01*
X124348497Y-110378936D02*
X124377068Y-110350364D01*
X124377068Y-110350364D02*
X124405640Y-110293221D01*
X124405640Y-110293221D02*
X124405640Y-110121793D01*
X124405640Y-110121793D02*
X124377068Y-110064650D01*
X124377068Y-110064650D02*
X124348497Y-110036078D01*
X124348497Y-110036078D02*
X124291354Y-110007507D01*
X124291354Y-110007507D02*
X124177068Y-110007507D01*
X124177068Y-110007507D02*
X124119926Y-110036078D01*
X123634211Y-110378936D02*
X123691354Y-110407507D01*
X123691354Y-110407507D02*
X123805640Y-110407507D01*
X123805640Y-110407507D02*
X123862782Y-110378936D01*
X123862782Y-110378936D02*
X123891354Y-110321793D01*
X123891354Y-110321793D02*
X123891354Y-110093221D01*
X123891354Y-110093221D02*
X123862782Y-110036078D01*
X123862782Y-110036078D02*
X123805640Y-110007507D01*
X123805640Y-110007507D02*
X123691354Y-110007507D01*
X123691354Y-110007507D02*
X123634211Y-110036078D01*
X123634211Y-110036078D02*
X123605640Y-110093221D01*
X123605640Y-110093221D02*
X123605640Y-110150364D01*
X123605640Y-110150364D02*
X123891354Y-110207507D01*
X134291353Y-111373473D02*
X134291353Y-110773473D01*
X134091354Y-110973473D02*
X133862782Y-110973473D01*
X134005639Y-110773473D02*
X134005639Y-111287759D01*
X134005639Y-111287759D02*
X133977068Y-111344902D01*
X133977068Y-111344902D02*
X133919925Y-111373473D01*
X133919925Y-111373473D02*
X133862782Y-111373473D01*
X133205639Y-111373473D02*
X133205639Y-110973473D01*
X133205639Y-110773473D02*
X133234211Y-110802044D01*
X133234211Y-110802044D02*
X133205639Y-110830616D01*
X133205639Y-110830616D02*
X133177068Y-110802044D01*
X133177068Y-110802044D02*
X133205639Y-110773473D01*
X133205639Y-110773473D02*
X133205639Y-110830616D01*
X132948497Y-111344902D02*
X132891354Y-111373473D01*
X132891354Y-111373473D02*
X132777068Y-111373473D01*
X132777068Y-111373473D02*
X132719925Y-111344902D01*
X132719925Y-111344902D02*
X132691354Y-111287759D01*
X132691354Y-111287759D02*
X132691354Y-111259187D01*
X132691354Y-111259187D02*
X132719925Y-111202044D01*
X132719925Y-111202044D02*
X132777068Y-111173473D01*
X132777068Y-111173473D02*
X132862783Y-111173473D01*
X132862783Y-111173473D02*
X132919925Y-111144902D01*
X132919925Y-111144902D02*
X132948497Y-111087759D01*
X132948497Y-111087759D02*
X132948497Y-111059187D01*
X132948497Y-111059187D02*
X132919925Y-111002044D01*
X132919925Y-111002044D02*
X132862783Y-110973473D01*
X132862783Y-110973473D02*
X132777068Y-110973473D01*
X132777068Y-110973473D02*
X132719925Y-111002044D01*
X131977068Y-110973473D02*
X131977068Y-111373473D01*
X131977068Y-111030616D02*
X131948497Y-111002044D01*
X131948497Y-111002044D02*
X131891354Y-110973473D01*
X131891354Y-110973473D02*
X131805640Y-110973473D01*
X131805640Y-110973473D02*
X131748497Y-111002044D01*
X131748497Y-111002044D02*
X131719926Y-111059187D01*
X131719926Y-111059187D02*
X131719926Y-111373473D01*
X131348497Y-111373473D02*
X131405640Y-111344902D01*
X131405640Y-111344902D02*
X131434211Y-111316330D01*
X131434211Y-111316330D02*
X131462783Y-111259187D01*
X131462783Y-111259187D02*
X131462783Y-111087759D01*
X131462783Y-111087759D02*
X131434211Y-111030616D01*
X131434211Y-111030616D02*
X131405640Y-111002044D01*
X131405640Y-111002044D02*
X131348497Y-110973473D01*
X131348497Y-110973473D02*
X131262783Y-110973473D01*
X131262783Y-110973473D02*
X131205640Y-111002044D01*
X131205640Y-111002044D02*
X131177069Y-111030616D01*
X131177069Y-111030616D02*
X131148497Y-111087759D01*
X131148497Y-111087759D02*
X131148497Y-111259187D01*
X131148497Y-111259187D02*
X131177069Y-111316330D01*
X131177069Y-111316330D02*
X131205640Y-111344902D01*
X131205640Y-111344902D02*
X131262783Y-111373473D01*
X131262783Y-111373473D02*
X131348497Y-111373473D01*
X130977069Y-110973473D02*
X130748497Y-110973473D01*
X130891354Y-110773473D02*
X130891354Y-111287759D01*
X130891354Y-111287759D02*
X130862783Y-111344902D01*
X130862783Y-111344902D02*
X130805640Y-111373473D01*
X130805640Y-111373473D02*
X130748497Y-111373473D01*
X129834212Y-111344902D02*
X129891354Y-111373473D01*
X129891354Y-111373473D02*
X130005640Y-111373473D01*
X130005640Y-111373473D02*
X130062783Y-111344902D01*
X130062783Y-111344902D02*
X130091354Y-111316330D01*
X130091354Y-111316330D02*
X130119926Y-111259187D01*
X130119926Y-111259187D02*
X130119926Y-111087759D01*
X130119926Y-111087759D02*
X130091354Y-111030616D01*
X130091354Y-111030616D02*
X130062783Y-111002044D01*
X130062783Y-111002044D02*
X130005640Y-110973473D01*
X130005640Y-110973473D02*
X129891354Y-110973473D01*
X129891354Y-110973473D02*
X129834212Y-111002044D01*
X129348497Y-111344902D02*
X129405640Y-111373473D01*
X129405640Y-111373473D02*
X129519926Y-111373473D01*
X129519926Y-111373473D02*
X129577068Y-111344902D01*
X129577068Y-111344902D02*
X129605640Y-111287759D01*
X129605640Y-111287759D02*
X129605640Y-111059187D01*
X129605640Y-111059187D02*
X129577068Y-111002044D01*
X129577068Y-111002044D02*
X129519926Y-110973473D01*
X129519926Y-110973473D02*
X129405640Y-110973473D01*
X129405640Y-110973473D02*
X129348497Y-111002044D01*
X129348497Y-111002044D02*
X129319926Y-111059187D01*
X129319926Y-111059187D02*
X129319926Y-111116330D01*
X129319926Y-111116330D02*
X129605640Y-111173473D01*
X129062782Y-111373473D02*
X129062782Y-110973473D01*
X129062782Y-111087759D02*
X129034211Y-111030616D01*
X129034211Y-111030616D02*
X129005640Y-111002044D01*
X129005640Y-111002044D02*
X128948497Y-110973473D01*
X128948497Y-110973473D02*
X128891354Y-110973473D01*
X128777068Y-110973473D02*
X128548496Y-110973473D01*
X128691353Y-110773473D02*
X128691353Y-111287759D01*
X128691353Y-111287759D02*
X128662782Y-111344902D01*
X128662782Y-111344902D02*
X128605639Y-111373473D01*
X128605639Y-111373473D02*
X128548496Y-111373473D01*
X128348496Y-111373473D02*
X128348496Y-110973473D01*
X128348496Y-110773473D02*
X128377068Y-110802044D01*
X128377068Y-110802044D02*
X128348496Y-110830616D01*
X128348496Y-110830616D02*
X128319925Y-110802044D01*
X128319925Y-110802044D02*
X128348496Y-110773473D01*
X128348496Y-110773473D02*
X128348496Y-110830616D01*
X128148497Y-110973473D02*
X127919925Y-110973473D01*
X128062782Y-111373473D02*
X128062782Y-110859187D01*
X128062782Y-110859187D02*
X128034211Y-110802044D01*
X128034211Y-110802044D02*
X127977068Y-110773473D01*
X127977068Y-110773473D02*
X127919925Y-110773473D01*
X127719925Y-111373473D02*
X127719925Y-110973473D01*
X127719925Y-110773473D02*
X127748497Y-110802044D01*
X127748497Y-110802044D02*
X127719925Y-110830616D01*
X127719925Y-110830616D02*
X127691354Y-110802044D01*
X127691354Y-110802044D02*
X127719925Y-110773473D01*
X127719925Y-110773473D02*
X127719925Y-110830616D01*
X127205640Y-111344902D02*
X127262783Y-111373473D01*
X127262783Y-111373473D02*
X127377069Y-111373473D01*
X127377069Y-111373473D02*
X127434211Y-111344902D01*
X127434211Y-111344902D02*
X127462783Y-111287759D01*
X127462783Y-111287759D02*
X127462783Y-111059187D01*
X127462783Y-111059187D02*
X127434211Y-111002044D01*
X127434211Y-111002044D02*
X127377069Y-110973473D01*
X127377069Y-110973473D02*
X127262783Y-110973473D01*
X127262783Y-110973473D02*
X127205640Y-111002044D01*
X127205640Y-111002044D02*
X127177069Y-111059187D01*
X127177069Y-111059187D02*
X127177069Y-111116330D01*
X127177069Y-111116330D02*
X127462783Y-111173473D01*
X126662783Y-111373473D02*
X126662783Y-110773473D01*
X126662783Y-111344902D02*
X126719925Y-111373473D01*
X126719925Y-111373473D02*
X126834211Y-111373473D01*
X126834211Y-111373473D02*
X126891354Y-111344902D01*
X126891354Y-111344902D02*
X126919925Y-111316330D01*
X126919925Y-111316330D02*
X126948497Y-111259187D01*
X126948497Y-111259187D02*
X126948497Y-111087759D01*
X126948497Y-111087759D02*
X126919925Y-111030616D01*
X126919925Y-111030616D02*
X126891354Y-111002044D01*
X126891354Y-111002044D02*
X126834211Y-110973473D01*
X126834211Y-110973473D02*
X126719925Y-110973473D01*
X126719925Y-110973473D02*
X126662783Y-111002044D01*
X125662783Y-111373473D02*
X125662783Y-111059187D01*
X125662783Y-111059187D02*
X125691354Y-111002044D01*
X125691354Y-111002044D02*
X125748497Y-110973473D01*
X125748497Y-110973473D02*
X125862783Y-110973473D01*
X125862783Y-110973473D02*
X125919925Y-111002044D01*
X125662783Y-111344902D02*
X125719925Y-111373473D01*
X125719925Y-111373473D02*
X125862783Y-111373473D01*
X125862783Y-111373473D02*
X125919925Y-111344902D01*
X125919925Y-111344902D02*
X125948497Y-111287759D01*
X125948497Y-111287759D02*
X125948497Y-111230616D01*
X125948497Y-111230616D02*
X125919925Y-111173473D01*
X125919925Y-111173473D02*
X125862783Y-111144902D01*
X125862783Y-111144902D02*
X125719925Y-111144902D01*
X125719925Y-111144902D02*
X125662783Y-111116330D01*
X125119926Y-111344902D02*
X125177068Y-111373473D01*
X125177068Y-111373473D02*
X125291354Y-111373473D01*
X125291354Y-111373473D02*
X125348497Y-111344902D01*
X125348497Y-111344902D02*
X125377068Y-111316330D01*
X125377068Y-111316330D02*
X125405640Y-111259187D01*
X125405640Y-111259187D02*
X125405640Y-111087759D01*
X125405640Y-111087759D02*
X125377068Y-111030616D01*
X125377068Y-111030616D02*
X125348497Y-111002044D01*
X125348497Y-111002044D02*
X125291354Y-110973473D01*
X125291354Y-110973473D02*
X125177068Y-110973473D01*
X125177068Y-110973473D02*
X125119926Y-111002044D01*
X124605640Y-111344902D02*
X124662782Y-111373473D01*
X124662782Y-111373473D02*
X124777068Y-111373473D01*
X124777068Y-111373473D02*
X124834211Y-111344902D01*
X124834211Y-111344902D02*
X124862782Y-111316330D01*
X124862782Y-111316330D02*
X124891354Y-111259187D01*
X124891354Y-111259187D02*
X124891354Y-111087759D01*
X124891354Y-111087759D02*
X124862782Y-111030616D01*
X124862782Y-111030616D02*
X124834211Y-111002044D01*
X124834211Y-111002044D02*
X124777068Y-110973473D01*
X124777068Y-110973473D02*
X124662782Y-110973473D01*
X124662782Y-110973473D02*
X124605640Y-111002044D01*
X124262782Y-111373473D02*
X124319925Y-111344902D01*
X124319925Y-111344902D02*
X124348496Y-111316330D01*
X124348496Y-111316330D02*
X124377068Y-111259187D01*
X124377068Y-111259187D02*
X124377068Y-111087759D01*
X124377068Y-111087759D02*
X124348496Y-111030616D01*
X124348496Y-111030616D02*
X124319925Y-111002044D01*
X124319925Y-111002044D02*
X124262782Y-110973473D01*
X124262782Y-110973473D02*
X124177068Y-110973473D01*
X124177068Y-110973473D02*
X124119925Y-111002044D01*
X124119925Y-111002044D02*
X124091354Y-111030616D01*
X124091354Y-111030616D02*
X124062782Y-111087759D01*
X124062782Y-111087759D02*
X124062782Y-111259187D01*
X124062782Y-111259187D02*
X124091354Y-111316330D01*
X124091354Y-111316330D02*
X124119925Y-111344902D01*
X124119925Y-111344902D02*
X124177068Y-111373473D01*
X124177068Y-111373473D02*
X124262782Y-111373473D01*
X123805639Y-111373473D02*
X123805639Y-110973473D01*
X123805639Y-111087759D02*
X123777068Y-111030616D01*
X123777068Y-111030616D02*
X123748497Y-111002044D01*
X123748497Y-111002044D02*
X123691354Y-110973473D01*
X123691354Y-110973473D02*
X123634211Y-110973473D01*
X123177068Y-111373473D02*
X123177068Y-110773473D01*
X123177068Y-111344902D02*
X123234210Y-111373473D01*
X123234210Y-111373473D02*
X123348496Y-111373473D01*
X123348496Y-111373473D02*
X123405639Y-111344902D01*
X123405639Y-111344902D02*
X123434210Y-111316330D01*
X123434210Y-111316330D02*
X123462782Y-111259187D01*
X123462782Y-111259187D02*
X123462782Y-111087759D01*
X123462782Y-111087759D02*
X123434210Y-111030616D01*
X123434210Y-111030616D02*
X123405639Y-111002044D01*
X123405639Y-111002044D02*
X123348496Y-110973473D01*
X123348496Y-110973473D02*
X123234210Y-110973473D01*
X123234210Y-110973473D02*
X123177068Y-111002044D01*
X122891353Y-111373473D02*
X122891353Y-110973473D01*
X122891353Y-110773473D02*
X122919925Y-110802044D01*
X122919925Y-110802044D02*
X122891353Y-110830616D01*
X122891353Y-110830616D02*
X122862782Y-110802044D01*
X122862782Y-110802044D02*
X122891353Y-110773473D01*
X122891353Y-110773473D02*
X122891353Y-110830616D01*
X122605639Y-110973473D02*
X122605639Y-111373473D01*
X122605639Y-111030616D02*
X122577068Y-111002044D01*
X122577068Y-111002044D02*
X122519925Y-110973473D01*
X122519925Y-110973473D02*
X122434211Y-110973473D01*
X122434211Y-110973473D02*
X122377068Y-111002044D01*
X122377068Y-111002044D02*
X122348497Y-111059187D01*
X122348497Y-111059187D02*
X122348497Y-111373473D01*
X121805640Y-110973473D02*
X121805640Y-111459187D01*
X121805640Y-111459187D02*
X121834211Y-111516330D01*
X121834211Y-111516330D02*
X121862782Y-111544902D01*
X121862782Y-111544902D02*
X121919925Y-111573473D01*
X121919925Y-111573473D02*
X122005640Y-111573473D01*
X122005640Y-111573473D02*
X122062782Y-111544902D01*
X121805640Y-111344902D02*
X121862782Y-111373473D01*
X121862782Y-111373473D02*
X121977068Y-111373473D01*
X121977068Y-111373473D02*
X122034211Y-111344902D01*
X122034211Y-111344902D02*
X122062782Y-111316330D01*
X122062782Y-111316330D02*
X122091354Y-111259187D01*
X122091354Y-111259187D02*
X122091354Y-111087759D01*
X122091354Y-111087759D02*
X122062782Y-111030616D01*
X122062782Y-111030616D02*
X122034211Y-111002044D01*
X122034211Y-111002044D02*
X121977068Y-110973473D01*
X121977068Y-110973473D02*
X121862782Y-110973473D01*
X121862782Y-110973473D02*
X121805640Y-111002044D01*
X134377068Y-111939439D02*
X134148496Y-111939439D01*
X134291353Y-111739439D02*
X134291353Y-112253725D01*
X134291353Y-112253725D02*
X134262782Y-112310868D01*
X134262782Y-112310868D02*
X134205639Y-112339439D01*
X134205639Y-112339439D02*
X134148496Y-112339439D01*
X133862782Y-112339439D02*
X133919925Y-112310868D01*
X133919925Y-112310868D02*
X133948496Y-112282296D01*
X133948496Y-112282296D02*
X133977068Y-112225153D01*
X133977068Y-112225153D02*
X133977068Y-112053725D01*
X133977068Y-112053725D02*
X133948496Y-111996582D01*
X133948496Y-111996582D02*
X133919925Y-111968010D01*
X133919925Y-111968010D02*
X133862782Y-111939439D01*
X133862782Y-111939439D02*
X133777068Y-111939439D01*
X133777068Y-111939439D02*
X133719925Y-111968010D01*
X133719925Y-111968010D02*
X133691354Y-111996582D01*
X133691354Y-111996582D02*
X133662782Y-112053725D01*
X133662782Y-112053725D02*
X133662782Y-112225153D01*
X133662782Y-112225153D02*
X133691354Y-112282296D01*
X133691354Y-112282296D02*
X133719925Y-112310868D01*
X133719925Y-112310868D02*
X133777068Y-112339439D01*
X133777068Y-112339439D02*
X133862782Y-112339439D01*
X132691354Y-112310868D02*
X132748496Y-112339439D01*
X132748496Y-112339439D02*
X132862782Y-112339439D01*
X132862782Y-112339439D02*
X132919925Y-112310868D01*
X132919925Y-112310868D02*
X132948496Y-112282296D01*
X132948496Y-112282296D02*
X132977068Y-112225153D01*
X132977068Y-112225153D02*
X132977068Y-112053725D01*
X132977068Y-112053725D02*
X132948496Y-111996582D01*
X132948496Y-111996582D02*
X132919925Y-111968010D01*
X132919925Y-111968010D02*
X132862782Y-111939439D01*
X132862782Y-111939439D02*
X132748496Y-111939439D01*
X132748496Y-111939439D02*
X132691354Y-111968010D01*
X132177068Y-111939439D02*
X132177068Y-112339439D01*
X132434210Y-111939439D02*
X132434210Y-112253725D01*
X132434210Y-112253725D02*
X132405639Y-112310868D01*
X132405639Y-112310868D02*
X132348496Y-112339439D01*
X132348496Y-112339439D02*
X132262782Y-112339439D01*
X132262782Y-112339439D02*
X132205639Y-112310868D01*
X132205639Y-112310868D02*
X132177068Y-112282296D01*
X131891353Y-112339439D02*
X131891353Y-111939439D01*
X131891353Y-112053725D02*
X131862782Y-111996582D01*
X131862782Y-111996582D02*
X131834211Y-111968010D01*
X131834211Y-111968010D02*
X131777068Y-111939439D01*
X131777068Y-111939439D02*
X131719925Y-111939439D01*
X131519924Y-112339439D02*
X131519924Y-111939439D01*
X131519924Y-112053725D02*
X131491353Y-111996582D01*
X131491353Y-111996582D02*
X131462782Y-111968010D01*
X131462782Y-111968010D02*
X131405639Y-111939439D01*
X131405639Y-111939439D02*
X131348496Y-111939439D01*
X130919924Y-112310868D02*
X130977067Y-112339439D01*
X130977067Y-112339439D02*
X131091353Y-112339439D01*
X131091353Y-112339439D02*
X131148495Y-112310868D01*
X131148495Y-112310868D02*
X131177067Y-112253725D01*
X131177067Y-112253725D02*
X131177067Y-112025153D01*
X131177067Y-112025153D02*
X131148495Y-111968010D01*
X131148495Y-111968010D02*
X131091353Y-111939439D01*
X131091353Y-111939439D02*
X130977067Y-111939439D01*
X130977067Y-111939439D02*
X130919924Y-111968010D01*
X130919924Y-111968010D02*
X130891353Y-112025153D01*
X130891353Y-112025153D02*
X130891353Y-112082296D01*
X130891353Y-112082296D02*
X131177067Y-112139439D01*
X130634209Y-111939439D02*
X130634209Y-112339439D01*
X130634209Y-111996582D02*
X130605638Y-111968010D01*
X130605638Y-111968010D02*
X130548495Y-111939439D01*
X130548495Y-111939439D02*
X130462781Y-111939439D01*
X130462781Y-111939439D02*
X130405638Y-111968010D01*
X130405638Y-111968010D02*
X130377067Y-112025153D01*
X130377067Y-112025153D02*
X130377067Y-112339439D01*
X130177067Y-111939439D02*
X129948495Y-111939439D01*
X130091352Y-111739439D02*
X130091352Y-112253725D01*
X130091352Y-112253725D02*
X130062781Y-112310868D01*
X130062781Y-112310868D02*
X130005638Y-112339439D01*
X130005638Y-112339439D02*
X129948495Y-112339439D01*
X129291352Y-112025153D02*
X129091352Y-112025153D01*
X129005638Y-112339439D02*
X129291352Y-112339439D01*
X129291352Y-112339439D02*
X129291352Y-111739439D01*
X129291352Y-111739439D02*
X129005638Y-111739439D01*
X128748495Y-111739439D02*
X128748495Y-112225153D01*
X128748495Y-112225153D02*
X128719924Y-112282296D01*
X128719924Y-112282296D02*
X128691353Y-112310868D01*
X128691353Y-112310868D02*
X128634210Y-112339439D01*
X128634210Y-112339439D02*
X128519924Y-112339439D01*
X128519924Y-112339439D02*
X128462781Y-112310868D01*
X128462781Y-112310868D02*
X128434210Y-112282296D01*
X128434210Y-112282296D02*
X128405638Y-112225153D01*
X128405638Y-112225153D02*
X128405638Y-111739439D01*
X127577067Y-112339439D02*
X127634210Y-112310868D01*
X127634210Y-112310868D02*
X127662781Y-112253725D01*
X127662781Y-112253725D02*
X127662781Y-111739439D01*
X127091353Y-112339439D02*
X127091353Y-112025153D01*
X127091353Y-112025153D02*
X127119924Y-111968010D01*
X127119924Y-111968010D02*
X127177067Y-111939439D01*
X127177067Y-111939439D02*
X127291353Y-111939439D01*
X127291353Y-111939439D02*
X127348495Y-111968010D01*
X127091353Y-112310868D02*
X127148495Y-112339439D01*
X127148495Y-112339439D02*
X127291353Y-112339439D01*
X127291353Y-112339439D02*
X127348495Y-112310868D01*
X127348495Y-112310868D02*
X127377067Y-112253725D01*
X127377067Y-112253725D02*
X127377067Y-112196582D01*
X127377067Y-112196582D02*
X127348495Y-112139439D01*
X127348495Y-112139439D02*
X127291353Y-112110868D01*
X127291353Y-112110868D02*
X127148495Y-112110868D01*
X127148495Y-112110868D02*
X127091353Y-112082296D01*
X126862781Y-111939439D02*
X126748496Y-112339439D01*
X126748496Y-112339439D02*
X126634210Y-112053725D01*
X126634210Y-112053725D02*
X126519924Y-112339439D01*
X126519924Y-112339439D02*
X126405638Y-111939439D01*
X126205639Y-112310868D02*
X126148496Y-112339439D01*
X126148496Y-112339439D02*
X126034210Y-112339439D01*
X126034210Y-112339439D02*
X125977067Y-112310868D01*
X125977067Y-112310868D02*
X125948496Y-112253725D01*
X125948496Y-112253725D02*
X125948496Y-112225153D01*
X125948496Y-112225153D02*
X125977067Y-112168010D01*
X125977067Y-112168010D02*
X126034210Y-112139439D01*
X126034210Y-112139439D02*
X126119925Y-112139439D01*
X126119925Y-112139439D02*
X126177067Y-112110868D01*
X126177067Y-112110868D02*
X126205639Y-112053725D01*
X126205639Y-112053725D02*
X126205639Y-112025153D01*
X126205639Y-112025153D02*
X126177067Y-111968010D01*
X126177067Y-111968010D02*
X126119925Y-111939439D01*
X126119925Y-111939439D02*
X126034210Y-111939439D01*
X126034210Y-111939439D02*
X125977067Y-111968010D01*
X125691353Y-112282296D02*
X125662782Y-112310868D01*
X125662782Y-112310868D02*
X125691353Y-112339439D01*
X125691353Y-112339439D02*
X125719925Y-112310868D01*
X125719925Y-112310868D02*
X125691353Y-112282296D01*
X125691353Y-112282296D02*
X125691353Y-112339439D01*
X134291353Y-113305405D02*
X134291353Y-112705405D01*
X134291353Y-112705405D02*
X134148496Y-112705405D01*
X134148496Y-112705405D02*
X134062782Y-112733976D01*
X134062782Y-112733976D02*
X134005639Y-112791119D01*
X134005639Y-112791119D02*
X133977068Y-112848262D01*
X133977068Y-112848262D02*
X133948496Y-112962548D01*
X133948496Y-112962548D02*
X133948496Y-113048262D01*
X133948496Y-113048262D02*
X133977068Y-113162548D01*
X133977068Y-113162548D02*
X134005639Y-113219691D01*
X134005639Y-113219691D02*
X134062782Y-113276834D01*
X134062782Y-113276834D02*
X134148496Y-113305405D01*
X134148496Y-113305405D02*
X134291353Y-113305405D01*
X133605639Y-113305405D02*
X133662782Y-113276834D01*
X133662782Y-113276834D02*
X133691353Y-113248262D01*
X133691353Y-113248262D02*
X133719925Y-113191119D01*
X133719925Y-113191119D02*
X133719925Y-113019691D01*
X133719925Y-113019691D02*
X133691353Y-112962548D01*
X133691353Y-112962548D02*
X133662782Y-112933976D01*
X133662782Y-112933976D02*
X133605639Y-112905405D01*
X133605639Y-112905405D02*
X133519925Y-112905405D01*
X133519925Y-112905405D02*
X133462782Y-112933976D01*
X133462782Y-112933976D02*
X133434211Y-112962548D01*
X133434211Y-112962548D02*
X133405639Y-113019691D01*
X133405639Y-113019691D02*
X133405639Y-113191119D01*
X133405639Y-113191119D02*
X133434211Y-113248262D01*
X133434211Y-113248262D02*
X133462782Y-113276834D01*
X133462782Y-113276834D02*
X133519925Y-113305405D01*
X133519925Y-113305405D02*
X133605639Y-113305405D01*
X132691353Y-112905405D02*
X132691353Y-113305405D01*
X132691353Y-112962548D02*
X132662782Y-112933976D01*
X132662782Y-112933976D02*
X132605639Y-112905405D01*
X132605639Y-112905405D02*
X132519925Y-112905405D01*
X132519925Y-112905405D02*
X132462782Y-112933976D01*
X132462782Y-112933976D02*
X132434211Y-112991119D01*
X132434211Y-112991119D02*
X132434211Y-113305405D01*
X132062782Y-113305405D02*
X132119925Y-113276834D01*
X132119925Y-113276834D02*
X132148496Y-113248262D01*
X132148496Y-113248262D02*
X132177068Y-113191119D01*
X132177068Y-113191119D02*
X132177068Y-113019691D01*
X132177068Y-113019691D02*
X132148496Y-112962548D01*
X132148496Y-112962548D02*
X132119925Y-112933976D01*
X132119925Y-112933976D02*
X132062782Y-112905405D01*
X132062782Y-112905405D02*
X131977068Y-112905405D01*
X131977068Y-112905405D02*
X131919925Y-112933976D01*
X131919925Y-112933976D02*
X131891354Y-112962548D01*
X131891354Y-112962548D02*
X131862782Y-113019691D01*
X131862782Y-113019691D02*
X131862782Y-113191119D01*
X131862782Y-113191119D02*
X131891354Y-113248262D01*
X131891354Y-113248262D02*
X131919925Y-113276834D01*
X131919925Y-113276834D02*
X131977068Y-113305405D01*
X131977068Y-113305405D02*
X132062782Y-113305405D01*
X131691354Y-112905405D02*
X131462782Y-112905405D01*
X131605639Y-112705405D02*
X131605639Y-113219691D01*
X131605639Y-113219691D02*
X131577068Y-113276834D01*
X131577068Y-113276834D02*
X131519925Y-113305405D01*
X131519925Y-113305405D02*
X131462782Y-113305405D01*
X130834211Y-113276834D02*
X130777068Y-113305405D01*
X130777068Y-113305405D02*
X130662782Y-113305405D01*
X130662782Y-113305405D02*
X130605639Y-113276834D01*
X130605639Y-113276834D02*
X130577068Y-113219691D01*
X130577068Y-113219691D02*
X130577068Y-113191119D01*
X130577068Y-113191119D02*
X130605639Y-113133976D01*
X130605639Y-113133976D02*
X130662782Y-113105405D01*
X130662782Y-113105405D02*
X130748497Y-113105405D01*
X130748497Y-113105405D02*
X130805639Y-113076834D01*
X130805639Y-113076834D02*
X130834211Y-113019691D01*
X130834211Y-113019691D02*
X130834211Y-112991119D01*
X130834211Y-112991119D02*
X130805639Y-112933976D01*
X130805639Y-112933976D02*
X130748497Y-112905405D01*
X130748497Y-112905405D02*
X130662782Y-112905405D01*
X130662782Y-112905405D02*
X130605639Y-112933976D01*
X130091354Y-113276834D02*
X130148497Y-113305405D01*
X130148497Y-113305405D02*
X130262783Y-113305405D01*
X130262783Y-113305405D02*
X130319925Y-113276834D01*
X130319925Y-113276834D02*
X130348497Y-113219691D01*
X130348497Y-113219691D02*
X130348497Y-112991119D01*
X130348497Y-112991119D02*
X130319925Y-112933976D01*
X130319925Y-112933976D02*
X130262783Y-112905405D01*
X130262783Y-112905405D02*
X130148497Y-112905405D01*
X130148497Y-112905405D02*
X130091354Y-112933976D01*
X130091354Y-112933976D02*
X130062783Y-112991119D01*
X130062783Y-112991119D02*
X130062783Y-113048262D01*
X130062783Y-113048262D02*
X130348497Y-113105405D01*
X129719925Y-113305405D02*
X129777068Y-113276834D01*
X129777068Y-113276834D02*
X129805639Y-113219691D01*
X129805639Y-113219691D02*
X129805639Y-112705405D01*
X129405639Y-113305405D02*
X129462782Y-113276834D01*
X129462782Y-113276834D02*
X129491353Y-113219691D01*
X129491353Y-113219691D02*
X129491353Y-112705405D01*
X128634210Y-113305405D02*
X128691353Y-113276834D01*
X128691353Y-113276834D02*
X128719924Y-113248262D01*
X128719924Y-113248262D02*
X128748496Y-113191119D01*
X128748496Y-113191119D02*
X128748496Y-113019691D01*
X128748496Y-113019691D02*
X128719924Y-112962548D01*
X128719924Y-112962548D02*
X128691353Y-112933976D01*
X128691353Y-112933976D02*
X128634210Y-112905405D01*
X128634210Y-112905405D02*
X128548496Y-112905405D01*
X128548496Y-112905405D02*
X128491353Y-112933976D01*
X128491353Y-112933976D02*
X128462782Y-112962548D01*
X128462782Y-112962548D02*
X128434210Y-113019691D01*
X128434210Y-113019691D02*
X128434210Y-113191119D01*
X128434210Y-113191119D02*
X128462782Y-113248262D01*
X128462782Y-113248262D02*
X128491353Y-113276834D01*
X128491353Y-113276834D02*
X128548496Y-113305405D01*
X128548496Y-113305405D02*
X128634210Y-113305405D01*
X128177067Y-113305405D02*
X128177067Y-112905405D01*
X128177067Y-113019691D02*
X128148496Y-112962548D01*
X128148496Y-112962548D02*
X128119925Y-112933976D01*
X128119925Y-112933976D02*
X128062782Y-112905405D01*
X128062782Y-112905405D02*
X128005639Y-112905405D01*
X127091353Y-112905405D02*
X127091353Y-113305405D01*
X127348495Y-112905405D02*
X127348495Y-113219691D01*
X127348495Y-113219691D02*
X127319924Y-113276834D01*
X127319924Y-113276834D02*
X127262781Y-113305405D01*
X127262781Y-113305405D02*
X127177067Y-113305405D01*
X127177067Y-113305405D02*
X127119924Y-113276834D01*
X127119924Y-113276834D02*
X127091353Y-113248262D01*
X126834210Y-113276834D02*
X126777067Y-113305405D01*
X126777067Y-113305405D02*
X126662781Y-113305405D01*
X126662781Y-113305405D02*
X126605638Y-113276834D01*
X126605638Y-113276834D02*
X126577067Y-113219691D01*
X126577067Y-113219691D02*
X126577067Y-113191119D01*
X126577067Y-113191119D02*
X126605638Y-113133976D01*
X126605638Y-113133976D02*
X126662781Y-113105405D01*
X126662781Y-113105405D02*
X126748496Y-113105405D01*
X126748496Y-113105405D02*
X126805638Y-113076834D01*
X126805638Y-113076834D02*
X126834210Y-113019691D01*
X126834210Y-113019691D02*
X126834210Y-112991119D01*
X126834210Y-112991119D02*
X126805638Y-112933976D01*
X126805638Y-112933976D02*
X126748496Y-112905405D01*
X126748496Y-112905405D02*
X126662781Y-112905405D01*
X126662781Y-112905405D02*
X126605638Y-112933976D01*
X126091353Y-113276834D02*
X126148496Y-113305405D01*
X126148496Y-113305405D02*
X126262782Y-113305405D01*
X126262782Y-113305405D02*
X126319924Y-113276834D01*
X126319924Y-113276834D02*
X126348496Y-113219691D01*
X126348496Y-113219691D02*
X126348496Y-112991119D01*
X126348496Y-112991119D02*
X126319924Y-112933976D01*
X126319924Y-112933976D02*
X126262782Y-112905405D01*
X126262782Y-112905405D02*
X126148496Y-112905405D01*
X126148496Y-112905405D02*
X126091353Y-112933976D01*
X126091353Y-112933976D02*
X126062782Y-112991119D01*
X126062782Y-112991119D02*
X126062782Y-113048262D01*
X126062782Y-113048262D02*
X126348496Y-113105405D01*
X125262781Y-113305405D02*
X125319924Y-113276834D01*
X125319924Y-113276834D02*
X125348495Y-113248262D01*
X125348495Y-113248262D02*
X125377067Y-113191119D01*
X125377067Y-113191119D02*
X125377067Y-113019691D01*
X125377067Y-113019691D02*
X125348495Y-112962548D01*
X125348495Y-112962548D02*
X125319924Y-112933976D01*
X125319924Y-112933976D02*
X125262781Y-112905405D01*
X125262781Y-112905405D02*
X125177067Y-112905405D01*
X125177067Y-112905405D02*
X125119924Y-112933976D01*
X125119924Y-112933976D02*
X125091353Y-112962548D01*
X125091353Y-112962548D02*
X125062781Y-113019691D01*
X125062781Y-113019691D02*
X125062781Y-113191119D01*
X125062781Y-113191119D02*
X125091353Y-113248262D01*
X125091353Y-113248262D02*
X125119924Y-113276834D01*
X125119924Y-113276834D02*
X125177067Y-113305405D01*
X125177067Y-113305405D02*
X125262781Y-113305405D01*
X124548496Y-112905405D02*
X124548496Y-113305405D01*
X124805638Y-112905405D02*
X124805638Y-113219691D01*
X124805638Y-113219691D02*
X124777067Y-113276834D01*
X124777067Y-113276834D02*
X124719924Y-113305405D01*
X124719924Y-113305405D02*
X124634210Y-113305405D01*
X124634210Y-113305405D02*
X124577067Y-113276834D01*
X124577067Y-113276834D02*
X124548496Y-113248262D01*
X124348496Y-112905405D02*
X124119924Y-112905405D01*
X124262781Y-112705405D02*
X124262781Y-113219691D01*
X124262781Y-113219691D02*
X124234210Y-113276834D01*
X124234210Y-113276834D02*
X124177067Y-113305405D01*
X124177067Y-113305405D02*
X124119924Y-113305405D01*
X123948496Y-113276834D02*
X123891353Y-113305405D01*
X123891353Y-113305405D02*
X123777067Y-113305405D01*
X123777067Y-113305405D02*
X123719924Y-113276834D01*
X123719924Y-113276834D02*
X123691353Y-113219691D01*
X123691353Y-113219691D02*
X123691353Y-113191119D01*
X123691353Y-113191119D02*
X123719924Y-113133976D01*
X123719924Y-113133976D02*
X123777067Y-113105405D01*
X123777067Y-113105405D02*
X123862782Y-113105405D01*
X123862782Y-113105405D02*
X123919924Y-113076834D01*
X123919924Y-113076834D02*
X123948496Y-113019691D01*
X123948496Y-113019691D02*
X123948496Y-112991119D01*
X123948496Y-112991119D02*
X123919924Y-112933976D01*
X123919924Y-112933976D02*
X123862782Y-112905405D01*
X123862782Y-112905405D02*
X123777067Y-112905405D01*
X123777067Y-112905405D02*
X123719924Y-112933976D01*
X123434210Y-113305405D02*
X123434210Y-112905405D01*
X123434210Y-112705405D02*
X123462782Y-112733976D01*
X123462782Y-112733976D02*
X123434210Y-112762548D01*
X123434210Y-112762548D02*
X123405639Y-112733976D01*
X123405639Y-112733976D02*
X123434210Y-112705405D01*
X123434210Y-112705405D02*
X123434210Y-112762548D01*
X122891354Y-113305405D02*
X122891354Y-112705405D01*
X122891354Y-113276834D02*
X122948496Y-113305405D01*
X122948496Y-113305405D02*
X123062782Y-113305405D01*
X123062782Y-113305405D02*
X123119925Y-113276834D01*
X123119925Y-113276834D02*
X123148496Y-113248262D01*
X123148496Y-113248262D02*
X123177068Y-113191119D01*
X123177068Y-113191119D02*
X123177068Y-113019691D01*
X123177068Y-113019691D02*
X123148496Y-112962548D01*
X123148496Y-112962548D02*
X123119925Y-112933976D01*
X123119925Y-112933976D02*
X123062782Y-112905405D01*
X123062782Y-112905405D02*
X122948496Y-112905405D01*
X122948496Y-112905405D02*
X122891354Y-112933976D01*
X122377068Y-113276834D02*
X122434211Y-113305405D01*
X122434211Y-113305405D02*
X122548497Y-113305405D01*
X122548497Y-113305405D02*
X122605639Y-113276834D01*
X122605639Y-113276834D02*
X122634211Y-113219691D01*
X122634211Y-113219691D02*
X122634211Y-112991119D01*
X122634211Y-112991119D02*
X122605639Y-112933976D01*
X122605639Y-112933976D02*
X122548497Y-112905405D01*
X122548497Y-112905405D02*
X122434211Y-112905405D01*
X122434211Y-112905405D02*
X122377068Y-112933976D01*
X122377068Y-112933976D02*
X122348497Y-112991119D01*
X122348497Y-112991119D02*
X122348497Y-113048262D01*
X122348497Y-113048262D02*
X122634211Y-113105405D01*
X121548496Y-113305405D02*
X121605639Y-113276834D01*
X121605639Y-113276834D02*
X121634210Y-113248262D01*
X121634210Y-113248262D02*
X121662782Y-113191119D01*
X121662782Y-113191119D02*
X121662782Y-113019691D01*
X121662782Y-113019691D02*
X121634210Y-112962548D01*
X121634210Y-112962548D02*
X121605639Y-112933976D01*
X121605639Y-112933976D02*
X121548496Y-112905405D01*
X121548496Y-112905405D02*
X121462782Y-112905405D01*
X121462782Y-112905405D02*
X121405639Y-112933976D01*
X121405639Y-112933976D02*
X121377068Y-112962548D01*
X121377068Y-112962548D02*
X121348496Y-113019691D01*
X121348496Y-113019691D02*
X121348496Y-113191119D01*
X121348496Y-113191119D02*
X121377068Y-113248262D01*
X121377068Y-113248262D02*
X121405639Y-113276834D01*
X121405639Y-113276834D02*
X121462782Y-113305405D01*
X121462782Y-113305405D02*
X121548496Y-113305405D01*
X121177068Y-112905405D02*
X120948496Y-112905405D01*
X121091353Y-113305405D02*
X121091353Y-112791119D01*
X121091353Y-112791119D02*
X121062782Y-112733976D01*
X121062782Y-112733976D02*
X121005639Y-112705405D01*
X121005639Y-112705405D02*
X120948496Y-112705405D01*
X134291353Y-114271371D02*
X134291353Y-113871371D01*
X134291353Y-113985657D02*
X134262782Y-113928514D01*
X134262782Y-113928514D02*
X134234211Y-113899942D01*
X134234211Y-113899942D02*
X134177068Y-113871371D01*
X134177068Y-113871371D02*
X134119925Y-113871371D01*
X133691353Y-114242800D02*
X133748496Y-114271371D01*
X133748496Y-114271371D02*
X133862782Y-114271371D01*
X133862782Y-114271371D02*
X133919924Y-114242800D01*
X133919924Y-114242800D02*
X133948496Y-114185657D01*
X133948496Y-114185657D02*
X133948496Y-113957085D01*
X133948496Y-113957085D02*
X133919924Y-113899942D01*
X133919924Y-113899942D02*
X133862782Y-113871371D01*
X133862782Y-113871371D02*
X133748496Y-113871371D01*
X133748496Y-113871371D02*
X133691353Y-113899942D01*
X133691353Y-113899942D02*
X133662782Y-113957085D01*
X133662782Y-113957085D02*
X133662782Y-114014228D01*
X133662782Y-114014228D02*
X133948496Y-114071371D01*
X133434210Y-114242800D02*
X133377067Y-114271371D01*
X133377067Y-114271371D02*
X133262781Y-114271371D01*
X133262781Y-114271371D02*
X133205638Y-114242800D01*
X133205638Y-114242800D02*
X133177067Y-114185657D01*
X133177067Y-114185657D02*
X133177067Y-114157085D01*
X133177067Y-114157085D02*
X133205638Y-114099942D01*
X133205638Y-114099942D02*
X133262781Y-114071371D01*
X133262781Y-114071371D02*
X133348496Y-114071371D01*
X133348496Y-114071371D02*
X133405638Y-114042800D01*
X133405638Y-114042800D02*
X133434210Y-113985657D01*
X133434210Y-113985657D02*
X133434210Y-113957085D01*
X133434210Y-113957085D02*
X133405638Y-113899942D01*
X133405638Y-113899942D02*
X133348496Y-113871371D01*
X133348496Y-113871371D02*
X133262781Y-113871371D01*
X133262781Y-113871371D02*
X133205638Y-113899942D01*
X132691353Y-114242800D02*
X132748496Y-114271371D01*
X132748496Y-114271371D02*
X132862782Y-114271371D01*
X132862782Y-114271371D02*
X132919924Y-114242800D01*
X132919924Y-114242800D02*
X132948496Y-114185657D01*
X132948496Y-114185657D02*
X132948496Y-113957085D01*
X132948496Y-113957085D02*
X132919924Y-113899942D01*
X132919924Y-113899942D02*
X132862782Y-113871371D01*
X132862782Y-113871371D02*
X132748496Y-113871371D01*
X132748496Y-113871371D02*
X132691353Y-113899942D01*
X132691353Y-113899942D02*
X132662782Y-113957085D01*
X132662782Y-113957085D02*
X132662782Y-114014228D01*
X132662782Y-114014228D02*
X132948496Y-114071371D01*
X132148496Y-114271371D02*
X132148496Y-113957085D01*
X132148496Y-113957085D02*
X132177067Y-113899942D01*
X132177067Y-113899942D02*
X132234210Y-113871371D01*
X132234210Y-113871371D02*
X132348496Y-113871371D01*
X132348496Y-113871371D02*
X132405638Y-113899942D01*
X132148496Y-114242800D02*
X132205638Y-114271371D01*
X132205638Y-114271371D02*
X132348496Y-114271371D01*
X132348496Y-114271371D02*
X132405638Y-114242800D01*
X132405638Y-114242800D02*
X132434210Y-114185657D01*
X132434210Y-114185657D02*
X132434210Y-114128514D01*
X132434210Y-114128514D02*
X132405638Y-114071371D01*
X132405638Y-114071371D02*
X132348496Y-114042800D01*
X132348496Y-114042800D02*
X132205638Y-114042800D01*
X132205638Y-114042800D02*
X132148496Y-114014228D01*
X131862781Y-114271371D02*
X131862781Y-113871371D01*
X131862781Y-113985657D02*
X131834210Y-113928514D01*
X131834210Y-113928514D02*
X131805639Y-113899942D01*
X131805639Y-113899942D02*
X131748496Y-113871371D01*
X131748496Y-113871371D02*
X131691353Y-113871371D01*
X131234210Y-114242800D02*
X131291352Y-114271371D01*
X131291352Y-114271371D02*
X131405638Y-114271371D01*
X131405638Y-114271371D02*
X131462781Y-114242800D01*
X131462781Y-114242800D02*
X131491352Y-114214228D01*
X131491352Y-114214228D02*
X131519924Y-114157085D01*
X131519924Y-114157085D02*
X131519924Y-113985657D01*
X131519924Y-113985657D02*
X131491352Y-113928514D01*
X131491352Y-113928514D02*
X131462781Y-113899942D01*
X131462781Y-113899942D02*
X131405638Y-113871371D01*
X131405638Y-113871371D02*
X131291352Y-113871371D01*
X131291352Y-113871371D02*
X131234210Y-113899942D01*
X130977066Y-114271371D02*
X130977066Y-113671371D01*
X130719924Y-114271371D02*
X130719924Y-113957085D01*
X130719924Y-113957085D02*
X130748495Y-113899942D01*
X130748495Y-113899942D02*
X130805638Y-113871371D01*
X130805638Y-113871371D02*
X130891352Y-113871371D01*
X130891352Y-113871371D02*
X130948495Y-113899942D01*
X130948495Y-113899942D02*
X130977066Y-113928514D01*
X129977066Y-113871371D02*
X129977066Y-114471371D01*
X129977066Y-113899942D02*
X129919924Y-113871371D01*
X129919924Y-113871371D02*
X129805638Y-113871371D01*
X129805638Y-113871371D02*
X129748495Y-113899942D01*
X129748495Y-113899942D02*
X129719924Y-113928514D01*
X129719924Y-113928514D02*
X129691352Y-113985657D01*
X129691352Y-113985657D02*
X129691352Y-114157085D01*
X129691352Y-114157085D02*
X129719924Y-114214228D01*
X129719924Y-114214228D02*
X129748495Y-114242800D01*
X129748495Y-114242800D02*
X129805638Y-114271371D01*
X129805638Y-114271371D02*
X129919924Y-114271371D01*
X129919924Y-114271371D02*
X129977066Y-114242800D01*
X129177067Y-113871371D02*
X129177067Y-114271371D01*
X129434209Y-113871371D02*
X129434209Y-114185657D01*
X129434209Y-114185657D02*
X129405638Y-114242800D01*
X129405638Y-114242800D02*
X129348495Y-114271371D01*
X129348495Y-114271371D02*
X129262781Y-114271371D01*
X129262781Y-114271371D02*
X129205638Y-114242800D01*
X129205638Y-114242800D02*
X129177067Y-114214228D01*
X128891352Y-114271371D02*
X128891352Y-113871371D01*
X128891352Y-113985657D02*
X128862781Y-113928514D01*
X128862781Y-113928514D02*
X128834210Y-113899942D01*
X128834210Y-113899942D02*
X128777067Y-113871371D01*
X128777067Y-113871371D02*
X128719924Y-113871371D01*
X128519923Y-113871371D02*
X128519923Y-114471371D01*
X128519923Y-113899942D02*
X128462781Y-113871371D01*
X128462781Y-113871371D02*
X128348495Y-113871371D01*
X128348495Y-113871371D02*
X128291352Y-113899942D01*
X128291352Y-113899942D02*
X128262781Y-113928514D01*
X128262781Y-113928514D02*
X128234209Y-113985657D01*
X128234209Y-113985657D02*
X128234209Y-114157085D01*
X128234209Y-114157085D02*
X128262781Y-114214228D01*
X128262781Y-114214228D02*
X128291352Y-114242800D01*
X128291352Y-114242800D02*
X128348495Y-114271371D01*
X128348495Y-114271371D02*
X128462781Y-114271371D01*
X128462781Y-114271371D02*
X128519923Y-114242800D01*
X127891352Y-114271371D02*
X127948495Y-114242800D01*
X127948495Y-114242800D02*
X127977066Y-114214228D01*
X127977066Y-114214228D02*
X128005638Y-114157085D01*
X128005638Y-114157085D02*
X128005638Y-113985657D01*
X128005638Y-113985657D02*
X127977066Y-113928514D01*
X127977066Y-113928514D02*
X127948495Y-113899942D01*
X127948495Y-113899942D02*
X127891352Y-113871371D01*
X127891352Y-113871371D02*
X127805638Y-113871371D01*
X127805638Y-113871371D02*
X127748495Y-113899942D01*
X127748495Y-113899942D02*
X127719924Y-113928514D01*
X127719924Y-113928514D02*
X127691352Y-113985657D01*
X127691352Y-113985657D02*
X127691352Y-114157085D01*
X127691352Y-114157085D02*
X127719924Y-114214228D01*
X127719924Y-114214228D02*
X127748495Y-114242800D01*
X127748495Y-114242800D02*
X127805638Y-114271371D01*
X127805638Y-114271371D02*
X127891352Y-114271371D01*
X127462781Y-114242800D02*
X127405638Y-114271371D01*
X127405638Y-114271371D02*
X127291352Y-114271371D01*
X127291352Y-114271371D02*
X127234209Y-114242800D01*
X127234209Y-114242800D02*
X127205638Y-114185657D01*
X127205638Y-114185657D02*
X127205638Y-114157085D01*
X127205638Y-114157085D02*
X127234209Y-114099942D01*
X127234209Y-114099942D02*
X127291352Y-114071371D01*
X127291352Y-114071371D02*
X127377067Y-114071371D01*
X127377067Y-114071371D02*
X127434209Y-114042800D01*
X127434209Y-114042800D02*
X127462781Y-113985657D01*
X127462781Y-113985657D02*
X127462781Y-113957085D01*
X127462781Y-113957085D02*
X127434209Y-113899942D01*
X127434209Y-113899942D02*
X127377067Y-113871371D01*
X127377067Y-113871371D02*
X127291352Y-113871371D01*
X127291352Y-113871371D02*
X127234209Y-113899942D01*
X126719924Y-114242800D02*
X126777067Y-114271371D01*
X126777067Y-114271371D02*
X126891353Y-114271371D01*
X126891353Y-114271371D02*
X126948495Y-114242800D01*
X126948495Y-114242800D02*
X126977067Y-114185657D01*
X126977067Y-114185657D02*
X126977067Y-113957085D01*
X126977067Y-113957085D02*
X126948495Y-113899942D01*
X126948495Y-113899942D02*
X126891353Y-113871371D01*
X126891353Y-113871371D02*
X126777067Y-113871371D01*
X126777067Y-113871371D02*
X126719924Y-113899942D01*
X126719924Y-113899942D02*
X126691353Y-113957085D01*
X126691353Y-113957085D02*
X126691353Y-114014228D01*
X126691353Y-114014228D02*
X126977067Y-114071371D01*
X126462781Y-114242800D02*
X126405638Y-114271371D01*
X126405638Y-114271371D02*
X126291352Y-114271371D01*
X126291352Y-114271371D02*
X126234209Y-114242800D01*
X126234209Y-114242800D02*
X126205638Y-114185657D01*
X126205638Y-114185657D02*
X126205638Y-114157085D01*
X126205638Y-114157085D02*
X126234209Y-114099942D01*
X126234209Y-114099942D02*
X126291352Y-114071371D01*
X126291352Y-114071371D02*
X126377067Y-114071371D01*
X126377067Y-114071371D02*
X126434209Y-114042800D01*
X126434209Y-114042800D02*
X126462781Y-113985657D01*
X126462781Y-113985657D02*
X126462781Y-113957085D01*
X126462781Y-113957085D02*
X126434209Y-113899942D01*
X126434209Y-113899942D02*
X126377067Y-113871371D01*
X126377067Y-113871371D02*
X126291352Y-113871371D01*
X126291352Y-113871371D02*
X126234209Y-113899942D01*
X125948495Y-114214228D02*
X125919924Y-114242800D01*
X125919924Y-114242800D02*
X125948495Y-114271371D01*
X125948495Y-114271371D02*
X125977067Y-114242800D01*
X125977067Y-114242800D02*
X125948495Y-114214228D01*
X125948495Y-114214228D02*
X125948495Y-114271371D01*
D12*
X148492448Y-108233472D02*
X148440067Y-107814424D01*
X148440067Y-107814424D02*
X148466258Y-107738234D01*
X148466258Y-107738234D02*
X148532925Y-107700138D01*
X148532925Y-107700138D02*
X148675782Y-107700138D01*
X148675782Y-107700138D02*
X148751972Y-107738234D01*
X148487687Y-108195377D02*
X148563877Y-108233472D01*
X148563877Y-108233472D02*
X148742448Y-108233472D01*
X148742448Y-108233472D02*
X148809115Y-108195377D01*
X148809115Y-108195377D02*
X148835306Y-108119186D01*
X148835306Y-108119186D02*
X148825782Y-108042996D01*
X148825782Y-108042996D02*
X148780544Y-107966805D01*
X148780544Y-107966805D02*
X148704353Y-107928710D01*
X148704353Y-107928710D02*
X148525782Y-107928710D01*
X148525782Y-107928710D02*
X148449591Y-107890615D01*
X148135306Y-108233472D02*
X148068639Y-107700138D01*
X148087687Y-107852519D02*
X148042449Y-107776329D01*
X148042449Y-107776329D02*
X148001973Y-107738234D01*
X148001973Y-107738234D02*
X147925782Y-107700138D01*
X147925782Y-107700138D02*
X147854354Y-107700138D01*
X147711496Y-107700138D02*
X147425782Y-107700138D01*
X147571020Y-107433472D02*
X147656734Y-108119186D01*
X147656734Y-108119186D02*
X147630544Y-108195377D01*
X147630544Y-108195377D02*
X147563877Y-108233472D01*
X147563877Y-108233472D02*
X147492449Y-108233472D01*
X147242449Y-108233472D02*
X147142449Y-107433472D01*
X146921020Y-108233472D02*
X146868639Y-107814424D01*
X146868639Y-107814424D02*
X146894830Y-107738234D01*
X146894830Y-107738234D02*
X146961497Y-107700138D01*
X146961497Y-107700138D02*
X147068639Y-107700138D01*
X147068639Y-107700138D02*
X147144830Y-107738234D01*
X147144830Y-107738234D02*
X147185306Y-107776329D01*
X146456735Y-108233472D02*
X146523402Y-108195377D01*
X146523402Y-108195377D02*
X146554354Y-108157281D01*
X146554354Y-108157281D02*
X146580545Y-108081091D01*
X146580545Y-108081091D02*
X146551973Y-107852519D01*
X146551973Y-107852519D02*
X146506735Y-107776329D01*
X146506735Y-107776329D02*
X146466259Y-107738234D01*
X146466259Y-107738234D02*
X146390068Y-107700138D01*
X146390068Y-107700138D02*
X146282926Y-107700138D01*
X146282926Y-107700138D02*
X146216259Y-107738234D01*
X146216259Y-107738234D02*
X146185307Y-107776329D01*
X146185307Y-107776329D02*
X146159116Y-107852519D01*
X146159116Y-107852519D02*
X146187688Y-108081091D01*
X146187688Y-108081091D02*
X146232926Y-108157281D01*
X146232926Y-108157281D02*
X146273402Y-108195377D01*
X146273402Y-108195377D02*
X146349592Y-108233472D01*
X146349592Y-108233472D02*
X146456735Y-108233472D01*
X145885307Y-108233472D02*
X145818640Y-107700138D01*
X145837688Y-107852519D02*
X145792450Y-107776329D01*
X145792450Y-107776329D02*
X145751974Y-107738234D01*
X145751974Y-107738234D02*
X145675783Y-107700138D01*
X145675783Y-107700138D02*
X145604355Y-107700138D01*
X145421021Y-108233472D02*
X145321021Y-107433472D01*
X145099592Y-108233472D02*
X145047211Y-107814424D01*
X145047211Y-107814424D02*
X145073402Y-107738234D01*
X145073402Y-107738234D02*
X145140069Y-107700138D01*
X145140069Y-107700138D02*
X145247211Y-107700138D01*
X145247211Y-107700138D02*
X145323402Y-107738234D01*
X145323402Y-107738234D02*
X145363878Y-107776329D01*
X144732926Y-108157281D02*
X144701974Y-108195377D01*
X144701974Y-108195377D02*
X144742450Y-108233472D01*
X144742450Y-108233472D02*
X144773402Y-108195377D01*
X144773402Y-108195377D02*
X144732926Y-108157281D01*
X144732926Y-108157281D02*
X144742450Y-108233472D01*
X143997212Y-107700138D02*
X144078164Y-108347757D01*
X144078164Y-108347757D02*
X144123402Y-108423948D01*
X144123402Y-108423948D02*
X144163878Y-108462043D01*
X144163878Y-108462043D02*
X144240069Y-108500138D01*
X144240069Y-108500138D02*
X144347212Y-108500138D01*
X144347212Y-108500138D02*
X144413878Y-108462043D01*
X144059117Y-108195377D02*
X144135307Y-108233472D01*
X144135307Y-108233472D02*
X144278164Y-108233472D01*
X144278164Y-108233472D02*
X144344831Y-108195377D01*
X144344831Y-108195377D02*
X144375783Y-108157281D01*
X144375783Y-108157281D02*
X144401974Y-108081091D01*
X144401974Y-108081091D02*
X144373402Y-107852519D01*
X144373402Y-107852519D02*
X144328164Y-107776329D01*
X144328164Y-107776329D02*
X144287688Y-107738234D01*
X144287688Y-107738234D02*
X144211497Y-107700138D01*
X144211497Y-107700138D02*
X144068640Y-107700138D01*
X144068640Y-107700138D02*
X144001974Y-107738234D01*
X143706736Y-108233472D02*
X143640069Y-107700138D01*
X143606736Y-107433472D02*
X143647212Y-107471567D01*
X143647212Y-107471567D02*
X143616260Y-107509662D01*
X143616260Y-107509662D02*
X143575784Y-107471567D01*
X143575784Y-107471567D02*
X143606736Y-107433472D01*
X143606736Y-107433472D02*
X143616260Y-107509662D01*
X143390069Y-107700138D02*
X143104355Y-107700138D01*
X143249593Y-107433472D02*
X143335307Y-108119186D01*
X143335307Y-108119186D02*
X143309117Y-108195377D01*
X143309117Y-108195377D02*
X143242450Y-108233472D01*
X143242450Y-108233472D02*
X143171022Y-108233472D01*
X142921022Y-108233472D02*
X142821022Y-107433472D01*
X142599593Y-108233472D02*
X142547212Y-107814424D01*
X142547212Y-107814424D02*
X142573403Y-107738234D01*
X142573403Y-107738234D02*
X142640070Y-107700138D01*
X142640070Y-107700138D02*
X142747212Y-107700138D01*
X142747212Y-107700138D02*
X142823403Y-107738234D01*
X142823403Y-107738234D02*
X142863879Y-107776329D01*
X141854356Y-107700138D02*
X141921022Y-108233472D01*
X142175784Y-107700138D02*
X142228165Y-108119186D01*
X142228165Y-108119186D02*
X142201975Y-108195377D01*
X142201975Y-108195377D02*
X142135308Y-108233472D01*
X142135308Y-108233472D02*
X142028165Y-108233472D01*
X142028165Y-108233472D02*
X141951975Y-108195377D01*
X141951975Y-108195377D02*
X141911499Y-108157281D01*
X141563880Y-108233472D02*
X141463880Y-107433472D01*
X141501975Y-107738234D02*
X141425785Y-107700138D01*
X141425785Y-107700138D02*
X141282928Y-107700138D01*
X141282928Y-107700138D02*
X141216261Y-107738234D01*
X141216261Y-107738234D02*
X141185309Y-107776329D01*
X141185309Y-107776329D02*
X141159118Y-107852519D01*
X141159118Y-107852519D02*
X141187690Y-108081091D01*
X141187690Y-108081091D02*
X141232928Y-108157281D01*
X141232928Y-108157281D02*
X141273404Y-108195377D01*
X141273404Y-108195377D02*
X141349594Y-108233472D01*
X141349594Y-108233472D02*
X141492451Y-108233472D01*
X141492451Y-108233472D02*
X141559118Y-108195377D01*
X140875785Y-108157281D02*
X140844833Y-108195377D01*
X140844833Y-108195377D02*
X140885309Y-108233472D01*
X140885309Y-108233472D02*
X140916261Y-108195377D01*
X140916261Y-108195377D02*
X140875785Y-108157281D01*
X140875785Y-108157281D02*
X140885309Y-108233472D01*
X140528166Y-108233472D02*
X140461499Y-107700138D01*
X140428166Y-107433472D02*
X140468642Y-107471567D01*
X140468642Y-107471567D02*
X140437690Y-107509662D01*
X140437690Y-107509662D02*
X140397214Y-107471567D01*
X140397214Y-107471567D02*
X140428166Y-107433472D01*
X140428166Y-107433472D02*
X140437690Y-107509662D01*
X140063880Y-108233472D02*
X140130547Y-108195377D01*
X140130547Y-108195377D02*
X140161499Y-108157281D01*
X140161499Y-108157281D02*
X140187690Y-108081091D01*
X140187690Y-108081091D02*
X140159118Y-107852519D01*
X140159118Y-107852519D02*
X140113880Y-107776329D01*
X140113880Y-107776329D02*
X140073404Y-107738234D01*
X140073404Y-107738234D02*
X139997213Y-107700138D01*
X139997213Y-107700138D02*
X139890071Y-107700138D01*
X139890071Y-107700138D02*
X139823404Y-107738234D01*
X139823404Y-107738234D02*
X139792452Y-107776329D01*
X139792452Y-107776329D02*
X139766261Y-107852519D01*
X139766261Y-107852519D02*
X139794833Y-108081091D01*
X139794833Y-108081091D02*
X139840071Y-108157281D01*
X139840071Y-108157281D02*
X139880547Y-108195377D01*
X139880547Y-108195377D02*
X139956737Y-108233472D01*
X139956737Y-108233472D02*
X140063880Y-108233472D01*
X138851976Y-107395377D02*
X139623404Y-108423948D01*
X138268643Y-108157281D02*
X138309119Y-108195377D01*
X138309119Y-108195377D02*
X138421024Y-108233472D01*
X138421024Y-108233472D02*
X138492452Y-108233472D01*
X138492452Y-108233472D02*
X138594833Y-108195377D01*
X138594833Y-108195377D02*
X138656738Y-108119186D01*
X138656738Y-108119186D02*
X138682928Y-108042996D01*
X138682928Y-108042996D02*
X138699595Y-107890615D01*
X138699595Y-107890615D02*
X138685309Y-107776329D01*
X138685309Y-107776329D02*
X138630548Y-107623948D01*
X138630548Y-107623948D02*
X138585309Y-107547757D01*
X138585309Y-107547757D02*
X138504357Y-107471567D01*
X138504357Y-107471567D02*
X138392452Y-107433472D01*
X138392452Y-107433472D02*
X138321024Y-107433472D01*
X138321024Y-107433472D02*
X138218643Y-107471567D01*
X138218643Y-107471567D02*
X138187690Y-107509662D01*
X137956738Y-108233472D02*
X137856738Y-107433472D01*
X137635309Y-108233472D02*
X137582928Y-107814424D01*
X137582928Y-107814424D02*
X137609119Y-107738234D01*
X137609119Y-107738234D02*
X137675786Y-107700138D01*
X137675786Y-107700138D02*
X137782928Y-107700138D01*
X137782928Y-107700138D02*
X137859119Y-107738234D01*
X137859119Y-107738234D02*
X137899595Y-107776329D01*
X136956738Y-108233472D02*
X136904357Y-107814424D01*
X136904357Y-107814424D02*
X136930548Y-107738234D01*
X136930548Y-107738234D02*
X136997215Y-107700138D01*
X136997215Y-107700138D02*
X137140072Y-107700138D01*
X137140072Y-107700138D02*
X137216262Y-107738234D01*
X136951977Y-108195377D02*
X137028167Y-108233472D01*
X137028167Y-108233472D02*
X137206738Y-108233472D01*
X137206738Y-108233472D02*
X137273405Y-108195377D01*
X137273405Y-108195377D02*
X137299596Y-108119186D01*
X137299596Y-108119186D02*
X137290072Y-108042996D01*
X137290072Y-108042996D02*
X137244834Y-107966805D01*
X137244834Y-107966805D02*
X137168643Y-107928710D01*
X137168643Y-107928710D02*
X136990072Y-107928710D01*
X136990072Y-107928710D02*
X136913881Y-107890615D01*
X136599596Y-108233472D02*
X136532929Y-107700138D01*
X136499596Y-107433472D02*
X136540072Y-107471567D01*
X136540072Y-107471567D02*
X136509120Y-107509662D01*
X136509120Y-107509662D02*
X136468644Y-107471567D01*
X136468644Y-107471567D02*
X136499596Y-107433472D01*
X136499596Y-107433472D02*
X136509120Y-107509662D01*
X136175786Y-107700138D02*
X136242453Y-108233472D01*
X136185310Y-107776329D02*
X136144834Y-107738234D01*
X136144834Y-107738234D02*
X136068643Y-107700138D01*
X136068643Y-107700138D02*
X135961501Y-107700138D01*
X135961501Y-107700138D02*
X135894834Y-107738234D01*
X135894834Y-107738234D02*
X135868643Y-107814424D01*
X135868643Y-107814424D02*
X135921024Y-108233472D01*
X135261501Y-107814424D02*
X135159120Y-107852519D01*
X135159120Y-107852519D02*
X135128168Y-107890615D01*
X135128168Y-107890615D02*
X135101977Y-107966805D01*
X135101977Y-107966805D02*
X135116263Y-108081091D01*
X135116263Y-108081091D02*
X135161501Y-108157281D01*
X135161501Y-108157281D02*
X135201977Y-108195377D01*
X135201977Y-108195377D02*
X135278168Y-108233472D01*
X135278168Y-108233472D02*
X135563882Y-108233472D01*
X135563882Y-108233472D02*
X135463882Y-107433472D01*
X135463882Y-107433472D02*
X135213882Y-107433472D01*
X135213882Y-107433472D02*
X135147215Y-107471567D01*
X135147215Y-107471567D02*
X135116263Y-107509662D01*
X135116263Y-107509662D02*
X135090072Y-107585853D01*
X135090072Y-107585853D02*
X135099596Y-107662043D01*
X135099596Y-107662043D02*
X135144834Y-107738234D01*
X135144834Y-107738234D02*
X135185311Y-107776329D01*
X135185311Y-107776329D02*
X135261501Y-107814424D01*
X135261501Y-107814424D02*
X135511501Y-107814424D01*
X134425787Y-107700138D02*
X134492453Y-108233472D01*
X134747215Y-107700138D02*
X134799596Y-108119186D01*
X134799596Y-108119186D02*
X134773406Y-108195377D01*
X134773406Y-108195377D02*
X134706739Y-108233472D01*
X134706739Y-108233472D02*
X134599596Y-108233472D01*
X134599596Y-108233472D02*
X134523406Y-108195377D01*
X134523406Y-108195377D02*
X134482930Y-108157281D01*
X134166263Y-108195377D02*
X134099597Y-108233472D01*
X134099597Y-108233472D02*
X133956740Y-108233472D01*
X133956740Y-108233472D02*
X133880549Y-108195377D01*
X133880549Y-108195377D02*
X133835311Y-108119186D01*
X133835311Y-108119186D02*
X133830549Y-108081091D01*
X133830549Y-108081091D02*
X133856740Y-108004900D01*
X133856740Y-108004900D02*
X133923406Y-107966805D01*
X133923406Y-107966805D02*
X134030549Y-107966805D01*
X134030549Y-107966805D02*
X134097216Y-107928710D01*
X134097216Y-107928710D02*
X134123406Y-107852519D01*
X134123406Y-107852519D02*
X134118644Y-107814424D01*
X134118644Y-107814424D02*
X134073406Y-107738234D01*
X134073406Y-107738234D02*
X133997216Y-107700138D01*
X133997216Y-107700138D02*
X133890073Y-107700138D01*
X133890073Y-107700138D02*
X133823406Y-107738234D01*
X148067982Y-107156200D02*
X148148935Y-107194295D01*
X148148935Y-107194295D02*
X148301316Y-107194295D01*
X148301316Y-107194295D02*
X148372744Y-107156200D01*
X148372744Y-107156200D02*
X148406077Y-107118104D01*
X148406077Y-107118104D02*
X148434649Y-107041914D01*
X148434649Y-107041914D02*
X148406077Y-106813342D01*
X148406077Y-106813342D02*
X148358458Y-106737152D01*
X148358458Y-106737152D02*
X148315601Y-106699057D01*
X148315601Y-106699057D02*
X148234649Y-106660961D01*
X148234649Y-106660961D02*
X148082268Y-106660961D01*
X148082268Y-106660961D02*
X148010839Y-106699057D01*
X147615602Y-107194295D02*
X147687030Y-107156200D01*
X147687030Y-107156200D02*
X147720363Y-107118104D01*
X147720363Y-107118104D02*
X147748935Y-107041914D01*
X147748935Y-107041914D02*
X147720363Y-106813342D01*
X147720363Y-106813342D02*
X147672744Y-106737152D01*
X147672744Y-106737152D02*
X147629887Y-106699057D01*
X147629887Y-106699057D02*
X147548935Y-106660961D01*
X147548935Y-106660961D02*
X147434649Y-106660961D01*
X147434649Y-106660961D02*
X147363221Y-106699057D01*
X147363221Y-106699057D02*
X147329887Y-106737152D01*
X147329887Y-106737152D02*
X147301316Y-106813342D01*
X147301316Y-106813342D02*
X147329887Y-107041914D01*
X147329887Y-107041914D02*
X147377506Y-107118104D01*
X147377506Y-107118104D02*
X147420363Y-107156200D01*
X147420363Y-107156200D02*
X147501316Y-107194295D01*
X147501316Y-107194295D02*
X147615602Y-107194295D01*
X146939411Y-106660961D02*
X147006077Y-107194295D01*
X146948934Y-106737152D02*
X146906077Y-106699057D01*
X146906077Y-106699057D02*
X146825125Y-106660961D01*
X146825125Y-106660961D02*
X146710839Y-106660961D01*
X146710839Y-106660961D02*
X146639411Y-106699057D01*
X146639411Y-106699057D02*
X146610839Y-106775247D01*
X146610839Y-106775247D02*
X146663220Y-107194295D01*
X146215601Y-106660961D02*
X146282267Y-107194295D01*
X146225124Y-106737152D02*
X146182267Y-106699057D01*
X146182267Y-106699057D02*
X146101315Y-106660961D01*
X146101315Y-106660961D02*
X145987029Y-106660961D01*
X145987029Y-106660961D02*
X145915601Y-106699057D01*
X145915601Y-106699057D02*
X145887029Y-106775247D01*
X145887029Y-106775247D02*
X145939410Y-107194295D01*
X145248933Y-107156200D02*
X145329886Y-107194295D01*
X145329886Y-107194295D02*
X145482267Y-107194295D01*
X145482267Y-107194295D02*
X145553695Y-107156200D01*
X145553695Y-107156200D02*
X145582267Y-107080009D01*
X145582267Y-107080009D02*
X145544172Y-106775247D01*
X145544172Y-106775247D02*
X145496552Y-106699057D01*
X145496552Y-106699057D02*
X145415600Y-106660961D01*
X145415600Y-106660961D02*
X145263219Y-106660961D01*
X145263219Y-106660961D02*
X145191791Y-106699057D01*
X145191791Y-106699057D02*
X145163219Y-106775247D01*
X145163219Y-106775247D02*
X145172743Y-106851438D01*
X145172743Y-106851438D02*
X145563219Y-106927628D01*
X144525124Y-107156200D02*
X144606077Y-107194295D01*
X144606077Y-107194295D02*
X144758458Y-107194295D01*
X144758458Y-107194295D02*
X144829886Y-107156200D01*
X144829886Y-107156200D02*
X144863219Y-107118104D01*
X144863219Y-107118104D02*
X144891791Y-107041914D01*
X144891791Y-107041914D02*
X144863219Y-106813342D01*
X144863219Y-106813342D02*
X144815600Y-106737152D01*
X144815600Y-106737152D02*
X144772743Y-106699057D01*
X144772743Y-106699057D02*
X144691791Y-106660961D01*
X144691791Y-106660961D02*
X144539410Y-106660961D01*
X144539410Y-106660961D02*
X144467981Y-106699057D01*
X144234648Y-106660961D02*
X143929886Y-106660961D01*
X144087029Y-106394295D02*
X144172744Y-107080009D01*
X144172744Y-107080009D02*
X144144172Y-107156200D01*
X144144172Y-107156200D02*
X144072744Y-107194295D01*
X144072744Y-107194295D02*
X143996553Y-107194295D01*
X143615601Y-107194295D02*
X143687029Y-107156200D01*
X143687029Y-107156200D02*
X143720362Y-107118104D01*
X143720362Y-107118104D02*
X143748934Y-107041914D01*
X143748934Y-107041914D02*
X143720362Y-106813342D01*
X143720362Y-106813342D02*
X143672743Y-106737152D01*
X143672743Y-106737152D02*
X143629886Y-106699057D01*
X143629886Y-106699057D02*
X143548934Y-106660961D01*
X143548934Y-106660961D02*
X143434648Y-106660961D01*
X143434648Y-106660961D02*
X143363220Y-106699057D01*
X143363220Y-106699057D02*
X143329886Y-106737152D01*
X143329886Y-106737152D02*
X143301315Y-106813342D01*
X143301315Y-106813342D02*
X143329886Y-107041914D01*
X143329886Y-107041914D02*
X143377505Y-107118104D01*
X143377505Y-107118104D02*
X143420362Y-107156200D01*
X143420362Y-107156200D02*
X143501315Y-107194295D01*
X143501315Y-107194295D02*
X143615601Y-107194295D01*
X143006076Y-107194295D02*
X142939410Y-106660961D01*
X142958457Y-106813342D02*
X142910838Y-106737152D01*
X142910838Y-106737152D02*
X142867981Y-106699057D01*
X142867981Y-106699057D02*
X142787029Y-106660961D01*
X142787029Y-106660961D02*
X142710838Y-106660961D01*
X141834648Y-106660961D02*
X141934648Y-107460961D01*
X141839409Y-106699057D02*
X141758457Y-106660961D01*
X141758457Y-106660961D02*
X141606076Y-106660961D01*
X141606076Y-106660961D02*
X141534648Y-106699057D01*
X141534648Y-106699057D02*
X141501314Y-106737152D01*
X141501314Y-106737152D02*
X141472743Y-106813342D01*
X141472743Y-106813342D02*
X141501314Y-107041914D01*
X141501314Y-107041914D02*
X141548933Y-107118104D01*
X141548933Y-107118104D02*
X141591790Y-107156200D01*
X141591790Y-107156200D02*
X141672743Y-107194295D01*
X141672743Y-107194295D02*
X141825124Y-107194295D01*
X141825124Y-107194295D02*
X141896552Y-107156200D01*
X141063219Y-107194295D02*
X141134647Y-107156200D01*
X141134647Y-107156200D02*
X141167980Y-107118104D01*
X141167980Y-107118104D02*
X141196552Y-107041914D01*
X141196552Y-107041914D02*
X141167980Y-106813342D01*
X141167980Y-106813342D02*
X141120361Y-106737152D01*
X141120361Y-106737152D02*
X141077504Y-106699057D01*
X141077504Y-106699057D02*
X140996552Y-106660961D01*
X140996552Y-106660961D02*
X140882266Y-106660961D01*
X140882266Y-106660961D02*
X140810838Y-106699057D01*
X140810838Y-106699057D02*
X140777504Y-106737152D01*
X140777504Y-106737152D02*
X140748933Y-106813342D01*
X140748933Y-106813342D02*
X140777504Y-107041914D01*
X140777504Y-107041914D02*
X140825123Y-107118104D01*
X140825123Y-107118104D02*
X140867980Y-107156200D01*
X140867980Y-107156200D02*
X140948933Y-107194295D01*
X140948933Y-107194295D02*
X141063219Y-107194295D01*
X140463218Y-106660961D02*
X140377504Y-107194295D01*
X140377504Y-107194295D02*
X140177504Y-106813342D01*
X140177504Y-106813342D02*
X140072742Y-107194295D01*
X140072742Y-107194295D02*
X139853694Y-106660961D01*
X139306075Y-107156200D02*
X139387028Y-107194295D01*
X139387028Y-107194295D02*
X139539409Y-107194295D01*
X139539409Y-107194295D02*
X139610837Y-107156200D01*
X139610837Y-107156200D02*
X139639409Y-107080009D01*
X139639409Y-107080009D02*
X139601314Y-106775247D01*
X139601314Y-106775247D02*
X139553694Y-106699057D01*
X139553694Y-106699057D02*
X139472742Y-106660961D01*
X139472742Y-106660961D02*
X139320361Y-106660961D01*
X139320361Y-106660961D02*
X139248933Y-106699057D01*
X139248933Y-106699057D02*
X139220361Y-106775247D01*
X139220361Y-106775247D02*
X139229885Y-106851438D01*
X139229885Y-106851438D02*
X139620361Y-106927628D01*
X138929885Y-107194295D02*
X138863219Y-106660961D01*
X138882266Y-106813342D02*
X138834647Y-106737152D01*
X138834647Y-106737152D02*
X138791790Y-106699057D01*
X138791790Y-106699057D02*
X138710838Y-106660961D01*
X138710838Y-106660961D02*
X138634647Y-106660961D01*
X138125123Y-107156200D02*
X138206076Y-107194295D01*
X138206076Y-107194295D02*
X138358457Y-107194295D01*
X138358457Y-107194295D02*
X138429885Y-107156200D01*
X138429885Y-107156200D02*
X138458457Y-107080009D01*
X138458457Y-107080009D02*
X138420362Y-106775247D01*
X138420362Y-106775247D02*
X138372742Y-106699057D01*
X138372742Y-106699057D02*
X138291790Y-106660961D01*
X138291790Y-106660961D02*
X138139409Y-106660961D01*
X138139409Y-106660961D02*
X138067981Y-106699057D01*
X138067981Y-106699057D02*
X138039409Y-106775247D01*
X138039409Y-106775247D02*
X138048933Y-106851438D01*
X138048933Y-106851438D02*
X138439409Y-106927628D01*
X137406076Y-107194295D02*
X137306076Y-106394295D01*
X137401314Y-107156200D02*
X137482267Y-107194295D01*
X137482267Y-107194295D02*
X137634648Y-107194295D01*
X137634648Y-107194295D02*
X137706076Y-107156200D01*
X137706076Y-107156200D02*
X137739409Y-107118104D01*
X137739409Y-107118104D02*
X137767981Y-107041914D01*
X137767981Y-107041914D02*
X137739409Y-106813342D01*
X137739409Y-106813342D02*
X137691790Y-106737152D01*
X137691790Y-106737152D02*
X137648933Y-106699057D01*
X137648933Y-106699057D02*
X137567981Y-106660961D01*
X137567981Y-106660961D02*
X137415600Y-106660961D01*
X137415600Y-106660961D02*
X137344171Y-106699057D01*
X136415599Y-107194295D02*
X136315599Y-106394295D01*
X136353694Y-106699057D02*
X136272742Y-106660961D01*
X136272742Y-106660961D02*
X136120361Y-106660961D01*
X136120361Y-106660961D02*
X136048933Y-106699057D01*
X136048933Y-106699057D02*
X136015599Y-106737152D01*
X136015599Y-106737152D02*
X135987028Y-106813342D01*
X135987028Y-106813342D02*
X136015599Y-107041914D01*
X136015599Y-107041914D02*
X136063218Y-107118104D01*
X136063218Y-107118104D02*
X136106075Y-107156200D01*
X136106075Y-107156200D02*
X136187028Y-107194295D01*
X136187028Y-107194295D02*
X136339409Y-107194295D01*
X136339409Y-107194295D02*
X136410837Y-107156200D01*
X135701313Y-106660961D02*
X135577504Y-107194295D01*
X135320361Y-106660961D02*
X135577504Y-107194295D01*
X135577504Y-107194295D02*
X135677504Y-107384771D01*
X135677504Y-107384771D02*
X135720361Y-107422866D01*
X135720361Y-107422866D02*
X135801313Y-107460961D01*
D11*
X154590494Y-133556517D02*
X154638113Y-133651755D01*
X154638113Y-133651755D02*
X154638113Y-133794612D01*
X154638113Y-133794612D02*
X154590494Y-133937469D01*
X154590494Y-133937469D02*
X154495256Y-134032707D01*
X154495256Y-134032707D02*
X154400018Y-134080326D01*
X154400018Y-134080326D02*
X154209542Y-134127945D01*
X154209542Y-134127945D02*
X154066685Y-134127945D01*
X154066685Y-134127945D02*
X153876209Y-134080326D01*
X153876209Y-134080326D02*
X153780971Y-134032707D01*
X153780971Y-134032707D02*
X153685733Y-133937469D01*
X153685733Y-133937469D02*
X153638113Y-133794612D01*
X153638113Y-133794612D02*
X153638113Y-133699374D01*
X153638113Y-133699374D02*
X153685733Y-133556517D01*
X153685733Y-133556517D02*
X153733352Y-133508898D01*
X153733352Y-133508898D02*
X154066685Y-133508898D01*
X154066685Y-133508898D02*
X154066685Y-133699374D01*
X153638113Y-133080326D02*
X154638113Y-133080326D01*
X154638113Y-133080326D02*
X153638113Y-132508898D01*
X153638113Y-132508898D02*
X154638113Y-132508898D01*
X153638113Y-132032707D02*
X154638113Y-132032707D01*
X154638113Y-132032707D02*
X154638113Y-131794612D01*
X154638113Y-131794612D02*
X154590494Y-131651755D01*
X154590494Y-131651755D02*
X154495256Y-131556517D01*
X154495256Y-131556517D02*
X154400018Y-131508898D01*
X154400018Y-131508898D02*
X154209542Y-131461279D01*
X154209542Y-131461279D02*
X154066685Y-131461279D01*
X154066685Y-131461279D02*
X153876209Y-131508898D01*
X153876209Y-131508898D02*
X153780971Y-131556517D01*
X153780971Y-131556517D02*
X153685733Y-131651755D01*
X153685733Y-131651755D02*
X153638113Y-131794612D01*
X153638113Y-131794612D02*
X153638113Y-132032707D01*
X156208066Y-134127945D02*
X156160446Y-133985088D01*
X156160446Y-133985088D02*
X156160446Y-133746993D01*
X156160446Y-133746993D02*
X156208066Y-133651755D01*
X156208066Y-133651755D02*
X156255685Y-133604136D01*
X156255685Y-133604136D02*
X156350923Y-133556517D01*
X156350923Y-133556517D02*
X156446161Y-133556517D01*
X156446161Y-133556517D02*
X156541399Y-133604136D01*
X156541399Y-133604136D02*
X156589018Y-133651755D01*
X156589018Y-133651755D02*
X156636637Y-133746993D01*
X156636637Y-133746993D02*
X156684256Y-133937469D01*
X156684256Y-133937469D02*
X156731875Y-134032707D01*
X156731875Y-134032707D02*
X156779494Y-134080326D01*
X156779494Y-134080326D02*
X156874732Y-134127945D01*
X156874732Y-134127945D02*
X156969970Y-134127945D01*
X156969970Y-134127945D02*
X157065208Y-134080326D01*
X157065208Y-134080326D02*
X157112827Y-134032707D01*
X157112827Y-134032707D02*
X157160446Y-133937469D01*
X157160446Y-133937469D02*
X157160446Y-133699374D01*
X157160446Y-133699374D02*
X157112827Y-133556517D01*
X156684256Y-133127945D02*
X156684256Y-132794612D01*
X156160446Y-132651755D02*
X156160446Y-133127945D01*
X156160446Y-133127945D02*
X157160446Y-133127945D01*
X157160446Y-133127945D02*
X157160446Y-132651755D01*
X157160446Y-132366040D02*
X157160446Y-131794612D01*
X156160446Y-132080326D02*
X157160446Y-132080326D01*
X158682780Y-133508898D02*
X159158971Y-133842231D01*
X158682780Y-134080326D02*
X159682780Y-134080326D01*
X159682780Y-134080326D02*
X159682780Y-133699374D01*
X159682780Y-133699374D02*
X159635161Y-133604136D01*
X159635161Y-133604136D02*
X159587542Y-133556517D01*
X159587542Y-133556517D02*
X159492304Y-133508898D01*
X159492304Y-133508898D02*
X159349447Y-133508898D01*
X159349447Y-133508898D02*
X159254209Y-133556517D01*
X159254209Y-133556517D02*
X159206590Y-133604136D01*
X159206590Y-133604136D02*
X159158971Y-133699374D01*
X159158971Y-133699374D02*
X159158971Y-134080326D01*
X159682780Y-133175564D02*
X158682780Y-132508898D01*
X159682780Y-132508898D02*
X158682780Y-133175564D01*
X162205113Y-134223183D02*
X162205113Y-133651755D01*
X161205113Y-133937469D02*
X162205113Y-133937469D01*
X162205113Y-133413659D02*
X161205113Y-132746993D01*
X162205113Y-132746993D02*
X161205113Y-133413659D01*
X163727446Y-133508898D02*
X164203637Y-133842231D01*
X163727446Y-134080326D02*
X164727446Y-134080326D01*
X164727446Y-134080326D02*
X164727446Y-133699374D01*
X164727446Y-133699374D02*
X164679827Y-133604136D01*
X164679827Y-133604136D02*
X164632208Y-133556517D01*
X164632208Y-133556517D02*
X164536970Y-133508898D01*
X164536970Y-133508898D02*
X164394113Y-133508898D01*
X164394113Y-133508898D02*
X164298875Y-133556517D01*
X164298875Y-133556517D02*
X164251256Y-133604136D01*
X164251256Y-133604136D02*
X164203637Y-133699374D01*
X164203637Y-133699374D02*
X164203637Y-134080326D01*
X163775066Y-133127945D02*
X163727446Y-132985088D01*
X163727446Y-132985088D02*
X163727446Y-132746993D01*
X163727446Y-132746993D02*
X163775066Y-132651755D01*
X163775066Y-132651755D02*
X163822685Y-132604136D01*
X163822685Y-132604136D02*
X163917923Y-132556517D01*
X163917923Y-132556517D02*
X164013161Y-132556517D01*
X164013161Y-132556517D02*
X164108399Y-132604136D01*
X164108399Y-132604136D02*
X164156018Y-132651755D01*
X164156018Y-132651755D02*
X164203637Y-132746993D01*
X164203637Y-132746993D02*
X164251256Y-132937469D01*
X164251256Y-132937469D02*
X164298875Y-133032707D01*
X164298875Y-133032707D02*
X164346494Y-133080326D01*
X164346494Y-133080326D02*
X164441732Y-133127945D01*
X164441732Y-133127945D02*
X164536970Y-133127945D01*
X164536970Y-133127945D02*
X164632208Y-133080326D01*
X164632208Y-133080326D02*
X164679827Y-133032707D01*
X164679827Y-133032707D02*
X164727446Y-132937469D01*
X164727446Y-132937469D02*
X164727446Y-132699374D01*
X164727446Y-132699374D02*
X164679827Y-132556517D01*
X164727446Y-132270802D02*
X164727446Y-131699374D01*
X163727446Y-131985088D02*
X164727446Y-131985088D01*
X166249780Y-134080326D02*
X167249780Y-134080326D01*
X167249780Y-134080326D02*
X167249780Y-133699374D01*
X167249780Y-133699374D02*
X167202161Y-133604136D01*
X167202161Y-133604136D02*
X167154542Y-133556517D01*
X167154542Y-133556517D02*
X167059304Y-133508898D01*
X167059304Y-133508898D02*
X166916447Y-133508898D01*
X166916447Y-133508898D02*
X166821209Y-133556517D01*
X166821209Y-133556517D02*
X166773590Y-133604136D01*
X166773590Y-133604136D02*
X166725971Y-133699374D01*
X166725971Y-133699374D02*
X166725971Y-134080326D01*
X167249780Y-133175564D02*
X166249780Y-132937469D01*
X166249780Y-132937469D02*
X166964066Y-132746993D01*
X166964066Y-132746993D02*
X166249780Y-132556517D01*
X166249780Y-132556517D02*
X167249780Y-132318422D01*
X166249780Y-131937469D02*
X167249780Y-131937469D01*
X167249780Y-131937469D02*
X166535495Y-131604136D01*
X166535495Y-131604136D02*
X167249780Y-131270803D01*
X167249780Y-131270803D02*
X166249780Y-131270803D01*
X168772113Y-134080326D02*
X169772113Y-134080326D01*
X169772113Y-134080326D02*
X169772113Y-133699374D01*
X169772113Y-133699374D02*
X169724494Y-133604136D01*
X169724494Y-133604136D02*
X169676875Y-133556517D01*
X169676875Y-133556517D02*
X169581637Y-133508898D01*
X169581637Y-133508898D02*
X169438780Y-133508898D01*
X169438780Y-133508898D02*
X169343542Y-133556517D01*
X169343542Y-133556517D02*
X169295923Y-133604136D01*
X169295923Y-133604136D02*
X169248304Y-133699374D01*
X169248304Y-133699374D02*
X169248304Y-134080326D01*
X168772113Y-132508898D02*
X169248304Y-132842231D01*
X168772113Y-133080326D02*
X169772113Y-133080326D01*
X169772113Y-133080326D02*
X169772113Y-132699374D01*
X169772113Y-132699374D02*
X169724494Y-132604136D01*
X169724494Y-132604136D02*
X169676875Y-132556517D01*
X169676875Y-132556517D02*
X169581637Y-132508898D01*
X169581637Y-132508898D02*
X169438780Y-132508898D01*
X169438780Y-132508898D02*
X169343542Y-132556517D01*
X169343542Y-132556517D02*
X169295923Y-132604136D01*
X169295923Y-132604136D02*
X169248304Y-132699374D01*
X169248304Y-132699374D02*
X169248304Y-133080326D01*
X169772113Y-131889850D02*
X169772113Y-131699374D01*
X169772113Y-131699374D02*
X169724494Y-131604136D01*
X169724494Y-131604136D02*
X169629256Y-131508898D01*
X169629256Y-131508898D02*
X169438780Y-131461279D01*
X169438780Y-131461279D02*
X169105447Y-131461279D01*
X169105447Y-131461279D02*
X168914971Y-131508898D01*
X168914971Y-131508898D02*
X168819733Y-131604136D01*
X168819733Y-131604136D02*
X168772113Y-131699374D01*
X168772113Y-131699374D02*
X168772113Y-131889850D01*
X168772113Y-131889850D02*
X168819733Y-131985088D01*
X168819733Y-131985088D02*
X168914971Y-132080326D01*
X168914971Y-132080326D02*
X169105447Y-132127945D01*
X169105447Y-132127945D02*
X169438780Y-132127945D01*
X169438780Y-132127945D02*
X169629256Y-132080326D01*
X169629256Y-132080326D02*
X169724494Y-131985088D01*
X169724494Y-131985088D02*
X169772113Y-131889850D01*
X169772113Y-131175564D02*
X169772113Y-130604136D01*
X168772113Y-130889850D02*
X169772113Y-130889850D01*
X169772113Y-130080326D02*
X169772113Y-129889850D01*
X169772113Y-129889850D02*
X169724494Y-129794612D01*
X169724494Y-129794612D02*
X169629256Y-129699374D01*
X169629256Y-129699374D02*
X169438780Y-129651755D01*
X169438780Y-129651755D02*
X169105447Y-129651755D01*
X169105447Y-129651755D02*
X168914971Y-129699374D01*
X168914971Y-129699374D02*
X168819733Y-129794612D01*
X168819733Y-129794612D02*
X168772113Y-129889850D01*
X168772113Y-129889850D02*
X168772113Y-130080326D01*
X168772113Y-130080326D02*
X168819733Y-130175564D01*
X168819733Y-130175564D02*
X168914971Y-130270802D01*
X168914971Y-130270802D02*
X169105447Y-130318421D01*
X169105447Y-130318421D02*
X169438780Y-130318421D01*
X169438780Y-130318421D02*
X169629256Y-130270802D01*
X169629256Y-130270802D02*
X169724494Y-130175564D01*
X169724494Y-130175564D02*
X169772113Y-130080326D01*
X168867352Y-128651755D02*
X168819733Y-128699374D01*
X168819733Y-128699374D02*
X168772113Y-128842231D01*
X168772113Y-128842231D02*
X168772113Y-128937469D01*
X168772113Y-128937469D02*
X168819733Y-129080326D01*
X168819733Y-129080326D02*
X168914971Y-129175564D01*
X168914971Y-129175564D02*
X169010209Y-129223183D01*
X169010209Y-129223183D02*
X169200685Y-129270802D01*
X169200685Y-129270802D02*
X169343542Y-129270802D01*
X169343542Y-129270802D02*
X169534018Y-129223183D01*
X169534018Y-129223183D02*
X169629256Y-129175564D01*
X169629256Y-129175564D02*
X169724494Y-129080326D01*
X169724494Y-129080326D02*
X169772113Y-128937469D01*
X169772113Y-128937469D02*
X169772113Y-128842231D01*
X169772113Y-128842231D02*
X169724494Y-128699374D01*
X169724494Y-128699374D02*
X169676875Y-128651755D01*
X169772113Y-128032707D02*
X169772113Y-127842231D01*
X169772113Y-127842231D02*
X169724494Y-127746993D01*
X169724494Y-127746993D02*
X169629256Y-127651755D01*
X169629256Y-127651755D02*
X169438780Y-127604136D01*
X169438780Y-127604136D02*
X169105447Y-127604136D01*
X169105447Y-127604136D02*
X168914971Y-127651755D01*
X168914971Y-127651755D02*
X168819733Y-127746993D01*
X168819733Y-127746993D02*
X168772113Y-127842231D01*
X168772113Y-127842231D02*
X168772113Y-128032707D01*
X168772113Y-128032707D02*
X168819733Y-128127945D01*
X168819733Y-128127945D02*
X168914971Y-128223183D01*
X168914971Y-128223183D02*
X169105447Y-128270802D01*
X169105447Y-128270802D02*
X169438780Y-128270802D01*
X169438780Y-128270802D02*
X169629256Y-128223183D01*
X169629256Y-128223183D02*
X169724494Y-128127945D01*
X169724494Y-128127945D02*
X169772113Y-128032707D01*
X168772113Y-126699374D02*
X168772113Y-127175564D01*
X168772113Y-127175564D02*
X169772113Y-127175564D01*
X151653066Y-134045713D02*
X151653066Y-133283809D01*
X151272113Y-133664761D02*
X152034018Y-133664761D01*
X152272113Y-132331428D02*
X152272113Y-132807618D01*
X152272113Y-132807618D02*
X151795923Y-132855237D01*
X151795923Y-132855237D02*
X151843542Y-132807618D01*
X151843542Y-132807618D02*
X151891161Y-132712380D01*
X151891161Y-132712380D02*
X151891161Y-132474285D01*
X151891161Y-132474285D02*
X151843542Y-132379047D01*
X151843542Y-132379047D02*
X151795923Y-132331428D01*
X151795923Y-132331428D02*
X151700685Y-132283809D01*
X151700685Y-132283809D02*
X151462590Y-132283809D01*
X151462590Y-132283809D02*
X151367352Y-132331428D01*
X151367352Y-132331428D02*
X151319733Y-132379047D01*
X151319733Y-132379047D02*
X151272113Y-132474285D01*
X151272113Y-132474285D02*
X151272113Y-132712380D01*
X151272113Y-132712380D02*
X151319733Y-132807618D01*
X151319733Y-132807618D02*
X151367352Y-132855237D01*
X152272113Y-131998094D02*
X151272113Y-131664761D01*
X151272113Y-131664761D02*
X152272113Y-131331428D01*
X93930326Y-126007275D02*
X93930326Y-125007275D01*
X93930326Y-125007275D02*
X93692231Y-125007275D01*
X93692231Y-125007275D02*
X93549374Y-125054894D01*
X93549374Y-125054894D02*
X93454136Y-125150132D01*
X93454136Y-125150132D02*
X93406517Y-125245370D01*
X93406517Y-125245370D02*
X93358898Y-125435846D01*
X93358898Y-125435846D02*
X93358898Y-125578703D01*
X93358898Y-125578703D02*
X93406517Y-125769179D01*
X93406517Y-125769179D02*
X93454136Y-125864417D01*
X93454136Y-125864417D02*
X93549374Y-125959656D01*
X93549374Y-125959656D02*
X93692231Y-126007275D01*
X93692231Y-126007275D02*
X93930326Y-126007275D01*
X92930326Y-125483465D02*
X92596993Y-125483465D01*
X92454136Y-126007275D02*
X92930326Y-126007275D01*
X92930326Y-126007275D02*
X92930326Y-125007275D01*
X92930326Y-125007275D02*
X92454136Y-125007275D01*
X92168421Y-125007275D02*
X91835088Y-126007275D01*
X91835088Y-126007275D02*
X91501755Y-125007275D01*
X91168421Y-126007275D02*
X91168421Y-125007275D01*
X90120803Y-125912036D02*
X90168422Y-125959656D01*
X90168422Y-125959656D02*
X90311279Y-126007275D01*
X90311279Y-126007275D02*
X90406517Y-126007275D01*
X90406517Y-126007275D02*
X90549374Y-125959656D01*
X90549374Y-125959656D02*
X90644612Y-125864417D01*
X90644612Y-125864417D02*
X90692231Y-125769179D01*
X90692231Y-125769179D02*
X90739850Y-125578703D01*
X90739850Y-125578703D02*
X90739850Y-125435846D01*
X90739850Y-125435846D02*
X90692231Y-125245370D01*
X90692231Y-125245370D02*
X90644612Y-125150132D01*
X90644612Y-125150132D02*
X90549374Y-125054894D01*
X90549374Y-125054894D02*
X90406517Y-125007275D01*
X90406517Y-125007275D02*
X90311279Y-125007275D01*
X90311279Y-125007275D02*
X90168422Y-125054894D01*
X90168422Y-125054894D02*
X90120803Y-125102513D01*
X89692231Y-125483465D02*
X89358898Y-125483465D01*
X89216041Y-126007275D02*
X89692231Y-126007275D01*
X89692231Y-126007275D02*
X89692231Y-125007275D01*
X89692231Y-125007275D02*
X89216041Y-125007275D01*
X88025564Y-125483465D02*
X87692231Y-125483465D01*
X87549374Y-126007275D02*
X88025564Y-126007275D01*
X88025564Y-126007275D02*
X88025564Y-125007275D01*
X88025564Y-125007275D02*
X87549374Y-125007275D01*
X87168421Y-125959656D02*
X87025564Y-126007275D01*
X87025564Y-126007275D02*
X86787469Y-126007275D01*
X86787469Y-126007275D02*
X86692231Y-125959656D01*
X86692231Y-125959656D02*
X86644612Y-125912036D01*
X86644612Y-125912036D02*
X86596993Y-125816798D01*
X86596993Y-125816798D02*
X86596993Y-125721560D01*
X86596993Y-125721560D02*
X86644612Y-125626322D01*
X86644612Y-125626322D02*
X86692231Y-125578703D01*
X86692231Y-125578703D02*
X86787469Y-125531084D01*
X86787469Y-125531084D02*
X86977945Y-125483465D01*
X86977945Y-125483465D02*
X87073183Y-125435846D01*
X87073183Y-125435846D02*
X87120802Y-125388227D01*
X87120802Y-125388227D02*
X87168421Y-125292989D01*
X87168421Y-125292989D02*
X87168421Y-125197751D01*
X87168421Y-125197751D02*
X87120802Y-125102513D01*
X87120802Y-125102513D02*
X87073183Y-125054894D01*
X87073183Y-125054894D02*
X86977945Y-125007275D01*
X86977945Y-125007275D02*
X86739850Y-125007275D01*
X86739850Y-125007275D02*
X86596993Y-125054894D01*
X86168421Y-126007275D02*
X86168421Y-125007275D01*
X86168421Y-125007275D02*
X85930326Y-125007275D01*
X85930326Y-125007275D02*
X85787469Y-125054894D01*
X85787469Y-125054894D02*
X85692231Y-125150132D01*
X85692231Y-125150132D02*
X85644612Y-125245370D01*
X85644612Y-125245370D02*
X85596993Y-125435846D01*
X85596993Y-125435846D02*
X85596993Y-125578703D01*
X85596993Y-125578703D02*
X85644612Y-125769179D01*
X85644612Y-125769179D02*
X85692231Y-125864417D01*
X85692231Y-125864417D02*
X85787469Y-125959656D01*
X85787469Y-125959656D02*
X85930326Y-126007275D01*
X85930326Y-126007275D02*
X86168421Y-126007275D01*
X93977945Y-127569600D02*
X93835088Y-127617219D01*
X93835088Y-127617219D02*
X93596993Y-127617219D01*
X93596993Y-127617219D02*
X93501755Y-127569600D01*
X93501755Y-127569600D02*
X93454136Y-127521980D01*
X93454136Y-127521980D02*
X93406517Y-127426742D01*
X93406517Y-127426742D02*
X93406517Y-127331504D01*
X93406517Y-127331504D02*
X93454136Y-127236266D01*
X93454136Y-127236266D02*
X93501755Y-127188647D01*
X93501755Y-127188647D02*
X93596993Y-127141028D01*
X93596993Y-127141028D02*
X93787469Y-127093409D01*
X93787469Y-127093409D02*
X93882707Y-127045790D01*
X93882707Y-127045790D02*
X93930326Y-126998171D01*
X93930326Y-126998171D02*
X93977945Y-126902933D01*
X93977945Y-126902933D02*
X93977945Y-126807695D01*
X93977945Y-126807695D02*
X93930326Y-126712457D01*
X93930326Y-126712457D02*
X93882707Y-126664838D01*
X93882707Y-126664838D02*
X93787469Y-126617219D01*
X93787469Y-126617219D02*
X93549374Y-126617219D01*
X93549374Y-126617219D02*
X93406517Y-126664838D01*
X92977945Y-127093409D02*
X92644612Y-127093409D01*
X92501755Y-127617219D02*
X92977945Y-127617219D01*
X92977945Y-127617219D02*
X92977945Y-126617219D01*
X92977945Y-126617219D02*
X92501755Y-126617219D01*
X92073183Y-127617219D02*
X92073183Y-126617219D01*
X92073183Y-126617219D02*
X91501755Y-127617219D01*
X91501755Y-127617219D02*
X91501755Y-126617219D01*
X91073183Y-127569600D02*
X90930326Y-127617219D01*
X90930326Y-127617219D02*
X90692231Y-127617219D01*
X90692231Y-127617219D02*
X90596993Y-127569600D01*
X90596993Y-127569600D02*
X90549374Y-127521980D01*
X90549374Y-127521980D02*
X90501755Y-127426742D01*
X90501755Y-127426742D02*
X90501755Y-127331504D01*
X90501755Y-127331504D02*
X90549374Y-127236266D01*
X90549374Y-127236266D02*
X90596993Y-127188647D01*
X90596993Y-127188647D02*
X90692231Y-127141028D01*
X90692231Y-127141028D02*
X90882707Y-127093409D01*
X90882707Y-127093409D02*
X90977945Y-127045790D01*
X90977945Y-127045790D02*
X91025564Y-126998171D01*
X91025564Y-126998171D02*
X91073183Y-126902933D01*
X91073183Y-126902933D02*
X91073183Y-126807695D01*
X91073183Y-126807695D02*
X91025564Y-126712457D01*
X91025564Y-126712457D02*
X90977945Y-126664838D01*
X90977945Y-126664838D02*
X90882707Y-126617219D01*
X90882707Y-126617219D02*
X90644612Y-126617219D01*
X90644612Y-126617219D02*
X90501755Y-126664838D01*
X90073183Y-127093409D02*
X89739850Y-127093409D01*
X89596993Y-127617219D02*
X90073183Y-127617219D01*
X90073183Y-127617219D02*
X90073183Y-126617219D01*
X90073183Y-126617219D02*
X89596993Y-126617219D01*
X89311278Y-126617219D02*
X88739850Y-126617219D01*
X89025564Y-127617219D02*
X89025564Y-126617219D01*
X88406516Y-127617219D02*
X88406516Y-126617219D01*
X88073183Y-126617219D02*
X87739850Y-127617219D01*
X87739850Y-127617219D02*
X87406517Y-126617219D01*
X87073183Y-127093409D02*
X86739850Y-127093409D01*
X86596993Y-127617219D02*
X87073183Y-127617219D01*
X87073183Y-127617219D02*
X87073183Y-126617219D01*
X87073183Y-126617219D02*
X86596993Y-126617219D01*
X113663660Y-111962457D02*
X113758898Y-111914838D01*
X113758898Y-111914838D02*
X113854136Y-111819600D01*
X113854136Y-111819600D02*
X113996993Y-111676742D01*
X113996993Y-111676742D02*
X114092231Y-111629123D01*
X114092231Y-111629123D02*
X114187469Y-111629123D01*
X114139850Y-111867219D02*
X114235088Y-111819600D01*
X114235088Y-111819600D02*
X114330326Y-111724361D01*
X114330326Y-111724361D02*
X114377945Y-111533885D01*
X114377945Y-111533885D02*
X114377945Y-111200552D01*
X114377945Y-111200552D02*
X114330326Y-111010076D01*
X114330326Y-111010076D02*
X114235088Y-110914838D01*
X114235088Y-110914838D02*
X114139850Y-110867219D01*
X114139850Y-110867219D02*
X113949374Y-110867219D01*
X113949374Y-110867219D02*
X113854136Y-110914838D01*
X113854136Y-110914838D02*
X113758898Y-111010076D01*
X113758898Y-111010076D02*
X113711279Y-111200552D01*
X113711279Y-111200552D02*
X113711279Y-111533885D01*
X113711279Y-111533885D02*
X113758898Y-111724361D01*
X113758898Y-111724361D02*
X113854136Y-111819600D01*
X113854136Y-111819600D02*
X113949374Y-111867219D01*
X113949374Y-111867219D02*
X114139850Y-111867219D01*
X112711279Y-111771980D02*
X112758898Y-111819600D01*
X112758898Y-111819600D02*
X112901755Y-111867219D01*
X112901755Y-111867219D02*
X112996993Y-111867219D01*
X112996993Y-111867219D02*
X113139850Y-111819600D01*
X113139850Y-111819600D02*
X113235088Y-111724361D01*
X113235088Y-111724361D02*
X113282707Y-111629123D01*
X113282707Y-111629123D02*
X113330326Y-111438647D01*
X113330326Y-111438647D02*
X113330326Y-111295790D01*
X113330326Y-111295790D02*
X113282707Y-111105314D01*
X113282707Y-111105314D02*
X113235088Y-111010076D01*
X113235088Y-111010076D02*
X113139850Y-110914838D01*
X113139850Y-110914838D02*
X112996993Y-110867219D01*
X112996993Y-110867219D02*
X112901755Y-110867219D01*
X112901755Y-110867219D02*
X112758898Y-110914838D01*
X112758898Y-110914838D02*
X112711279Y-110962457D01*
X121577945Y-110619600D02*
X121435088Y-110667219D01*
X121435088Y-110667219D02*
X121196993Y-110667219D01*
X121196993Y-110667219D02*
X121101755Y-110619600D01*
X121101755Y-110619600D02*
X121054136Y-110571980D01*
X121054136Y-110571980D02*
X121006517Y-110476742D01*
X121006517Y-110476742D02*
X121006517Y-110381504D01*
X121006517Y-110381504D02*
X121054136Y-110286266D01*
X121054136Y-110286266D02*
X121101755Y-110238647D01*
X121101755Y-110238647D02*
X121196993Y-110191028D01*
X121196993Y-110191028D02*
X121387469Y-110143409D01*
X121387469Y-110143409D02*
X121482707Y-110095790D01*
X121482707Y-110095790D02*
X121530326Y-110048171D01*
X121530326Y-110048171D02*
X121577945Y-109952933D01*
X121577945Y-109952933D02*
X121577945Y-109857695D01*
X121577945Y-109857695D02*
X121530326Y-109762457D01*
X121530326Y-109762457D02*
X121482707Y-109714838D01*
X121482707Y-109714838D02*
X121387469Y-109667219D01*
X121387469Y-109667219D02*
X121149374Y-109667219D01*
X121149374Y-109667219D02*
X121006517Y-109714838D01*
X120577945Y-110667219D02*
X120577945Y-109667219D01*
X120577945Y-109667219D02*
X120006517Y-110667219D01*
X120006517Y-110667219D02*
X120006517Y-109667219D01*
D13*
X145845740Y-130429464D02*
X145845740Y-129129464D01*
X145845740Y-129129464D02*
X145412406Y-130058036D01*
X145412406Y-130058036D02*
X144979073Y-129129464D01*
X144979073Y-129129464D02*
X144979073Y-130429464D01*
X144360026Y-130429464D02*
X144360026Y-129129464D01*
X143740978Y-130429464D02*
X143740978Y-129129464D01*
X143740978Y-129129464D02*
X142998121Y-130429464D01*
X142998121Y-130429464D02*
X142998121Y-129129464D01*
X142379073Y-130429464D02*
X142379073Y-129129464D01*
X140769549Y-130429464D02*
X140769549Y-129129464D01*
X140769549Y-129129464D02*
X140336215Y-130058036D01*
X140336215Y-130058036D02*
X139902882Y-129129464D01*
X139902882Y-129129464D02*
X139902882Y-130429464D01*
X139036216Y-129129464D02*
X138788597Y-129129464D01*
X138788597Y-129129464D02*
X138664787Y-129191369D01*
X138664787Y-129191369D02*
X138540978Y-129315179D01*
X138540978Y-129315179D02*
X138479073Y-129562798D01*
X138479073Y-129562798D02*
X138479073Y-129996131D01*
X138479073Y-129996131D02*
X138540978Y-130243750D01*
X138540978Y-130243750D02*
X138664787Y-130367560D01*
X138664787Y-130367560D02*
X138788597Y-130429464D01*
X138788597Y-130429464D02*
X139036216Y-130429464D01*
X139036216Y-130429464D02*
X139160025Y-130367560D01*
X139160025Y-130367560D02*
X139283835Y-130243750D01*
X139283835Y-130243750D02*
X139345739Y-129996131D01*
X139345739Y-129996131D02*
X139345739Y-129562798D01*
X139345739Y-129562798D02*
X139283835Y-129315179D01*
X139283835Y-129315179D02*
X139160025Y-129191369D01*
X139160025Y-129191369D02*
X139036216Y-129129464D01*
X137921930Y-130429464D02*
X137921930Y-129129464D01*
X137921930Y-129129464D02*
X137612406Y-129129464D01*
X137612406Y-129129464D02*
X137426692Y-129191369D01*
X137426692Y-129191369D02*
X137302882Y-129315179D01*
X137302882Y-129315179D02*
X137240977Y-129438988D01*
X137240977Y-129438988D02*
X137179073Y-129686607D01*
X137179073Y-129686607D02*
X137179073Y-129872321D01*
X137179073Y-129872321D02*
X137240977Y-130119940D01*
X137240977Y-130119940D02*
X137302882Y-130243750D01*
X137302882Y-130243750D02*
X137426692Y-130367560D01*
X137426692Y-130367560D02*
X137612406Y-130429464D01*
X137612406Y-130429464D02*
X137921930Y-130429464D01*
X136621930Y-129129464D02*
X136621930Y-130181845D01*
X136621930Y-130181845D02*
X136560025Y-130305655D01*
X136560025Y-130305655D02*
X136498120Y-130367560D01*
X136498120Y-130367560D02*
X136374311Y-130429464D01*
X136374311Y-130429464D02*
X136126692Y-130429464D01*
X136126692Y-130429464D02*
X136002882Y-130367560D01*
X136002882Y-130367560D02*
X135940977Y-130305655D01*
X135940977Y-130305655D02*
X135879073Y-130181845D01*
X135879073Y-130181845D02*
X135879073Y-129129464D01*
X134517168Y-130305655D02*
X134579072Y-130367560D01*
X134579072Y-130367560D02*
X134764787Y-130429464D01*
X134764787Y-130429464D02*
X134888596Y-130429464D01*
X134888596Y-130429464D02*
X135074310Y-130367560D01*
X135074310Y-130367560D02*
X135198120Y-130243750D01*
X135198120Y-130243750D02*
X135260025Y-130119940D01*
X135260025Y-130119940D02*
X135321929Y-129872321D01*
X135321929Y-129872321D02*
X135321929Y-129686607D01*
X135321929Y-129686607D02*
X135260025Y-129438988D01*
X135260025Y-129438988D02*
X135198120Y-129315179D01*
X135198120Y-129315179D02*
X135074310Y-129191369D01*
X135074310Y-129191369D02*
X134888596Y-129129464D01*
X134888596Y-129129464D02*
X134764787Y-129129464D01*
X134764787Y-129129464D02*
X134579072Y-129191369D01*
X134579072Y-129191369D02*
X134517168Y-129253274D01*
X134021929Y-130058036D02*
X133402882Y-130058036D01*
X134145739Y-130429464D02*
X133712406Y-129129464D01*
X133712406Y-129129464D02*
X133279072Y-130429464D01*
X132102882Y-130429464D02*
X132536215Y-129810417D01*
X132845739Y-130429464D02*
X132845739Y-129129464D01*
X132845739Y-129129464D02*
X132350501Y-129129464D01*
X132350501Y-129129464D02*
X132226691Y-129191369D01*
X132226691Y-129191369D02*
X132164786Y-129253274D01*
X132164786Y-129253274D02*
X132102882Y-129377083D01*
X132102882Y-129377083D02*
X132102882Y-129562798D01*
X132102882Y-129562798D02*
X132164786Y-129686607D01*
X132164786Y-129686607D02*
X132226691Y-129748512D01*
X132226691Y-129748512D02*
X132350501Y-129810417D01*
X132350501Y-129810417D02*
X132845739Y-129810417D01*
X131545739Y-130429464D02*
X131545739Y-129129464D01*
X131545739Y-129129464D02*
X131236215Y-129129464D01*
X131236215Y-129129464D02*
X131050501Y-129191369D01*
X131050501Y-129191369D02*
X130926691Y-129315179D01*
X130926691Y-129315179D02*
X130864786Y-129438988D01*
X130864786Y-129438988D02*
X130802882Y-129686607D01*
X130802882Y-129686607D02*
X130802882Y-129872321D01*
X130802882Y-129872321D02*
X130864786Y-130119940D01*
X130864786Y-130119940D02*
X130926691Y-130243750D01*
X130926691Y-130243750D02*
X131050501Y-130367560D01*
X131050501Y-130367560D02*
X131236215Y-130429464D01*
X131236215Y-130429464D02*
X131545739Y-130429464D01*
X129317167Y-130367560D02*
X129131453Y-130429464D01*
X129131453Y-130429464D02*
X128821929Y-130429464D01*
X128821929Y-130429464D02*
X128698120Y-130367560D01*
X128698120Y-130367560D02*
X128636215Y-130305655D01*
X128636215Y-130305655D02*
X128574310Y-130181845D01*
X128574310Y-130181845D02*
X128574310Y-130058036D01*
X128574310Y-130058036D02*
X128636215Y-129934226D01*
X128636215Y-129934226D02*
X128698120Y-129872321D01*
X128698120Y-129872321D02*
X128821929Y-129810417D01*
X128821929Y-129810417D02*
X129069548Y-129748512D01*
X129069548Y-129748512D02*
X129193358Y-129686607D01*
X129193358Y-129686607D02*
X129255263Y-129624702D01*
X129255263Y-129624702D02*
X129317167Y-129500893D01*
X129317167Y-129500893D02*
X129317167Y-129377083D01*
X129317167Y-129377083D02*
X129255263Y-129253274D01*
X129255263Y-129253274D02*
X129193358Y-129191369D01*
X129193358Y-129191369D02*
X129069548Y-129129464D01*
X129069548Y-129129464D02*
X128760025Y-129129464D01*
X128760025Y-129129464D02*
X128574310Y-129191369D01*
X127769549Y-129810417D02*
X127769549Y-130429464D01*
X128202882Y-129129464D02*
X127769549Y-129810417D01*
X127769549Y-129810417D02*
X127336215Y-129129464D01*
X126964786Y-130367560D02*
X126779072Y-130429464D01*
X126779072Y-130429464D02*
X126469548Y-130429464D01*
X126469548Y-130429464D02*
X126345739Y-130367560D01*
X126345739Y-130367560D02*
X126283834Y-130305655D01*
X126283834Y-130305655D02*
X126221929Y-130181845D01*
X126221929Y-130181845D02*
X126221929Y-130058036D01*
X126221929Y-130058036D02*
X126283834Y-129934226D01*
X126283834Y-129934226D02*
X126345739Y-129872321D01*
X126345739Y-129872321D02*
X126469548Y-129810417D01*
X126469548Y-129810417D02*
X126717167Y-129748512D01*
X126717167Y-129748512D02*
X126840977Y-129686607D01*
X126840977Y-129686607D02*
X126902882Y-129624702D01*
X126902882Y-129624702D02*
X126964786Y-129500893D01*
X126964786Y-129500893D02*
X126964786Y-129377083D01*
X126964786Y-129377083D02*
X126902882Y-129253274D01*
X126902882Y-129253274D02*
X126840977Y-129191369D01*
X126840977Y-129191369D02*
X126717167Y-129129464D01*
X126717167Y-129129464D02*
X126407644Y-129129464D01*
X126407644Y-129129464D02*
X126221929Y-129191369D01*
X125850501Y-129129464D02*
X125107644Y-129129464D01*
X125479072Y-130429464D02*
X125479072Y-129129464D01*
X124674311Y-129748512D02*
X124240977Y-129748512D01*
X124055263Y-130429464D02*
X124674311Y-130429464D01*
X124674311Y-130429464D02*
X124674311Y-129129464D01*
X124674311Y-129129464D02*
X124055263Y-129129464D01*
X123498121Y-130429464D02*
X123498121Y-129129464D01*
X123498121Y-129129464D02*
X123064787Y-130058036D01*
X123064787Y-130058036D02*
X122631454Y-129129464D01*
X122631454Y-129129464D02*
X122631454Y-130429464D01*
D14*
G36*
X145981716Y-121007070D02*
G01*
X143131646Y-121007070D01*
X142031882Y-125265077D01*
X140936819Y-121007070D01*
X138096580Y-121007070D01*
X138096580Y-128010001D01*
X139865692Y-128010001D01*
X139865692Y-122663769D01*
X141238154Y-128010001D01*
X142840143Y-128010001D01*
X144207475Y-122663769D01*
X144207475Y-128010001D01*
X145981716Y-128010001D01*
X145981716Y-121007070D01*
G37*
G36*
X136735659Y-121007070D02*
G01*
X133885589Y-121007070D01*
X132785825Y-125265077D01*
X131690762Y-121007070D01*
X128850523Y-121007070D01*
X128850523Y-128010001D01*
X130619635Y-128010001D01*
X130619635Y-122663769D01*
X131992096Y-128010001D01*
X133594085Y-128010001D01*
X134961418Y-122663769D01*
X134961418Y-128010001D01*
X136735659Y-128010001D01*
X136735659Y-121007070D01*
G37*
G36*
X127843510Y-125677542D02*
G01*
X125782466Y-125548033D01*
X125716505Y-125878401D01*
X125623877Y-126128815D01*
X125509769Y-126315260D01*
X125327283Y-126499877D01*
X125112012Y-126631615D01*
X124857410Y-126713391D01*
X124553620Y-126742258D01*
X124251546Y-126715074D01*
X124018416Y-126640898D01*
X123838965Y-126525981D01*
X123695633Y-126368805D01*
X123614490Y-126203631D01*
X123587639Y-126024611D01*
X123612991Y-125854101D01*
X123690024Y-125694190D01*
X123826570Y-125539484D01*
X124006085Y-125423640D01*
X124349657Y-125288680D01*
X124936165Y-125135567D01*
X125671777Y-124940213D01*
X126236064Y-124730596D01*
X126659334Y-124512194D01*
X126968143Y-124288411D01*
X127238044Y-124003128D01*
X127426698Y-123688230D01*
X127540875Y-123337334D01*
X127580216Y-122940740D01*
X127545896Y-122591040D01*
X127442803Y-122254031D01*
X127266913Y-121923896D01*
X127030583Y-121635030D01*
X126720672Y-121384479D01*
X126324869Y-121171628D01*
X125895900Y-121029481D01*
X125331826Y-120933450D01*
X124601064Y-120897649D01*
X123914391Y-120935070D01*
X123358150Y-121037880D01*
X122910409Y-121194739D01*
X122552416Y-121398591D01*
X122245558Y-121674381D01*
X122003217Y-122022410D01*
X121823808Y-122455706D01*
X121712953Y-122992886D01*
X123754762Y-123113420D01*
X123835245Y-122807022D01*
X123950565Y-122581609D01*
X124096702Y-122419709D01*
X124282177Y-122303984D01*
X124517588Y-122229913D01*
X124816486Y-122203005D01*
X125163280Y-122247374D01*
X125385816Y-122362434D01*
X125530178Y-122540926D01*
X125576875Y-122749681D01*
X125539668Y-122903330D01*
X125419155Y-123048879D01*
X125208329Y-123164590D01*
X124692105Y-123305761D01*
X123739000Y-123535422D01*
X123084107Y-123740868D01*
X122657562Y-123922108D01*
X122270228Y-124157291D01*
X121977008Y-124415014D01*
X121763389Y-124695747D01*
X121608657Y-125013749D01*
X121515273Y-125356038D01*
X121483426Y-125728833D01*
X121524997Y-126165422D01*
X121648470Y-126575675D01*
X121856568Y-126967084D01*
X122135113Y-127311518D01*
X122479687Y-127597046D01*
X122899057Y-127826635D01*
X123354847Y-127981897D01*
X123911071Y-128082903D01*
X124586959Y-128119421D01*
X125347388Y-128083365D01*
X125949809Y-127985476D01*
X126421531Y-127838671D01*
X126786362Y-127652004D01*
X127063886Y-127429985D01*
X127368244Y-127065668D01*
X127598568Y-126657247D01*
X127757636Y-126197717D01*
X127843510Y-125677542D01*
G37*
G36*
X119343503Y-123606746D02*
G01*
X119548568Y-123459188D01*
X119669713Y-123314729D01*
X119736631Y-123130088D01*
X119764773Y-122801819D01*
X119711810Y-122493905D01*
X119547380Y-122198609D01*
X119246392Y-121904569D01*
X118882588Y-121672376D01*
X118405272Y-121462156D01*
X117790411Y-121279503D01*
X116823027Y-121113449D01*
X115695687Y-121054506D01*
X114877910Y-121113874D01*
X114271900Y-121271683D01*
X113829378Y-121506551D01*
X113485105Y-121849343D01*
X113276466Y-122283572D01*
X113202260Y-122838749D01*
X113263053Y-123336454D01*
X113438883Y-123761987D01*
X113735357Y-124132102D01*
X114215087Y-124499210D01*
X114688103Y-124700087D01*
X115867284Y-125029253D01*
X118235617Y-125540759D01*
X117239453Y-125647950D01*
X116476678Y-125805420D01*
X115810547Y-126063452D01*
X115323656Y-126414073D01*
X115088990Y-126714508D01*
X114944662Y-127080620D01*
X114893496Y-127531533D01*
X114960706Y-128018918D01*
X115171318Y-128520107D01*
X115552072Y-129049747D01*
X116027301Y-129505186D01*
X116631314Y-129918504D01*
X117385554Y-130287570D01*
X118182087Y-130552172D01*
X119048382Y-130715027D01*
X119995240Y-130771073D01*
X120678907Y-130729050D01*
X121203151Y-130616177D01*
X121600307Y-130447598D01*
X121934535Y-130196302D01*
X122115687Y-129924173D01*
X122174766Y-129618735D01*
X122131161Y-129329758D01*
X121988750Y-129005295D01*
X121783258Y-128702210D01*
X121546280Y-128447933D01*
X121288430Y-128261825D01*
X121104494Y-128212678D01*
X121005249Y-128239368D01*
X120975924Y-128310473D01*
X121056622Y-128527946D01*
X121129113Y-128683871D01*
X121061024Y-128825862D01*
X120782386Y-128980675D01*
X120407290Y-129072585D01*
X119881032Y-129107877D01*
X119126956Y-129064441D01*
X118401800Y-128935539D01*
X117709237Y-128732083D01*
X117116789Y-128484178D01*
X116589315Y-128183587D01*
X116221591Y-127893990D01*
X115962852Y-127575397D01*
X115893328Y-127331157D01*
X115961447Y-127035724D01*
X116167830Y-126805144D01*
X116560795Y-126627444D01*
X117315758Y-126493991D01*
X118595338Y-126438009D01*
X119493272Y-126507765D01*
X119911123Y-126576837D01*
X120008383Y-126546758D01*
X120047899Y-126385351D01*
X120011729Y-126066248D01*
X119881716Y-125610515D01*
X119683773Y-125194000D01*
X119487117Y-124988868D01*
X119249588Y-124903310D01*
X118414110Y-124733780D01*
X116814515Y-124430822D01*
X116118909Y-124251619D01*
X115221074Y-123952789D01*
X114693499Y-123703996D01*
X114358702Y-123448770D01*
X114133507Y-123157195D01*
X114072840Y-122935860D01*
X114134494Y-122725947D01*
X114335652Y-122555413D01*
X114755805Y-122423869D01*
X115527452Y-122367556D01*
X116239837Y-122389695D01*
X116924619Y-122455092D01*
X117564643Y-122559032D01*
X117981898Y-122666411D01*
X118298470Y-122805132D01*
X118359399Y-122888672D01*
X118284856Y-123035023D01*
X118130983Y-123121875D01*
X117869057Y-123212147D01*
X117767159Y-123283955D01*
X117716552Y-123409105D01*
X117793188Y-123498833D01*
X118190753Y-123584269D01*
X119343503Y-123606746D01*
G37*
G36*
X130684612Y-107895729D02*
G01*
X130686688Y-107953248D01*
X130692916Y-107993792D01*
X130703785Y-108022857D01*
X130725645Y-108050701D01*
X130783653Y-108091123D01*
X130888799Y-108138506D01*
X131030949Y-108176120D01*
X131112606Y-108187346D01*
X131203750Y-108191263D01*
X131323884Y-108184707D01*
X131432712Y-108165762D01*
X131531646Y-108135209D01*
X131624889Y-108091244D01*
X131707399Y-108035499D01*
X131780286Y-107967536D01*
X131841968Y-107888951D01*
X131894440Y-107796712D01*
X131937456Y-107688977D01*
X131966829Y-107576323D01*
X131985472Y-107447457D01*
X131992044Y-107300143D01*
X131984897Y-107150333D01*
X131964465Y-107017274D01*
X131931960Y-106898974D01*
X131885253Y-106785767D01*
X131829162Y-106688256D01*
X131763921Y-106604661D01*
X131687216Y-106531707D01*
X131601247Y-106471687D01*
X131505024Y-106424043D01*
X131402655Y-106390229D01*
X131292154Y-106369487D01*
X131172243Y-106362372D01*
X131030216Y-106374951D01*
X130903820Y-106407801D01*
X130799284Y-106454452D01*
X130734438Y-106499881D01*
X130709159Y-106531022D01*
X130698290Y-106562651D01*
X130692062Y-106607958D01*
X130689986Y-106672438D01*
X130692794Y-106742536D01*
X130702320Y-106789187D01*
X130718684Y-106815321D01*
X130740544Y-106823503D01*
X130761502Y-106818480D01*
X130792445Y-106799323D01*
X130873778Y-106745345D01*
X130992602Y-106691367D01*
X131065398Y-106673661D01*
X131157222Y-106667187D01*
X131258254Y-106678291D01*
X131345167Y-106710296D01*
X131421194Y-106762087D01*
X131485973Y-106833272D01*
X131536036Y-106919545D01*
X131574023Y-107026713D01*
X131596180Y-107144196D01*
X131604064Y-107282313D01*
X131595449Y-107432550D01*
X131571946Y-107552323D01*
X131531716Y-107659001D01*
X131480478Y-107740268D01*
X131414562Y-107804891D01*
X131336985Y-107850300D01*
X131249301Y-107877093D01*
X131147697Y-107886448D01*
X131055683Y-107880526D01*
X130982466Y-107864344D01*
X130862909Y-107815495D01*
X130780966Y-107767257D01*
X130749876Y-107750083D01*
X130731018Y-107745764D01*
X130709159Y-107751259D01*
X130695603Y-107772875D01*
X130687421Y-107818060D01*
X130684612Y-107895729D01*
G37*
G36*
X129282780Y-108113105D02*
G01*
X129290963Y-108137041D01*
X129318318Y-108154138D01*
X129370952Y-108164396D01*
X129453506Y-108167815D01*
X129537648Y-108164396D01*
X129590282Y-108154138D01*
X129617515Y-108137041D01*
X129625697Y-108112983D01*
X129625697Y-107415547D01*
X129629433Y-107331210D01*
X129638764Y-107275718D01*
X129655030Y-107227670D01*
X129676256Y-107188768D01*
X129704423Y-107156512D01*
X129739759Y-107132592D01*
X129780981Y-107117878D01*
X129830617Y-107112686D01*
X129894603Y-107123996D01*
X129963119Y-107160680D01*
X130028174Y-107216313D01*
X130102459Y-107300387D01*
X130102459Y-108112983D01*
X130110642Y-108137041D01*
X130138729Y-108154138D01*
X130191364Y-108164396D01*
X130274528Y-108167815D01*
X130357937Y-108164396D01*
X130410572Y-108154138D01*
X130438538Y-108137163D01*
X130446720Y-108113227D01*
X130446720Y-106319385D01*
X130438538Y-106294961D01*
X130410572Y-106276521D01*
X130357937Y-106264919D01*
X130274528Y-106260767D01*
X130191364Y-106264919D01*
X130138729Y-106276399D01*
X130110642Y-106294717D01*
X130102459Y-106319263D01*
X130102459Y-106989344D01*
X130010481Y-106911245D01*
X129921475Y-106858796D01*
X129827148Y-106826412D01*
X129729501Y-106815687D01*
X129611269Y-106826674D01*
X129519818Y-106856720D01*
X129442057Y-106905736D01*
X129381821Y-106968827D01*
X129337014Y-107044861D01*
X129305983Y-107134912D01*
X129289091Y-107235064D01*
X129282780Y-107365233D01*
X129282780Y-108113105D01*
G37*
G36*
X128600610Y-106828998D02*
G01*
X128740561Y-106863192D01*
X128852669Y-106908499D01*
X128919591Y-106952463D01*
X128945481Y-106996304D01*
X128952320Y-107062372D01*
X128948290Y-107119036D01*
X128936688Y-107162267D01*
X128917515Y-107189256D01*
X128890893Y-107198660D01*
X128868046Y-107194552D01*
X128834228Y-107179242D01*
X128747400Y-107136133D01*
X128627843Y-107093147D01*
X128557571Y-107078745D01*
X128474214Y-107073607D01*
X128411435Y-107077377D01*
X128364183Y-107087407D01*
X128323439Y-107105446D01*
X128293108Y-107130150D01*
X128270562Y-107162120D01*
X128254884Y-107202568D01*
X128243283Y-107303928D01*
X128243283Y-107378422D01*
X128362107Y-107378422D01*
X128519753Y-107385021D01*
X128647749Y-107403091D01*
X128763992Y-107435599D01*
X128853401Y-107479050D01*
X128926505Y-107537899D01*
X128977721Y-107608988D01*
X129008473Y-107692544D01*
X129019364Y-107794368D01*
X129010768Y-107888907D01*
X128986636Y-107966803D01*
X128946926Y-108035017D01*
X128894434Y-108090635D01*
X128830291Y-108133989D01*
X128753628Y-108165861D01*
X128669816Y-108184707D01*
X128575331Y-108191263D01*
X128461833Y-108179690D01*
X128361496Y-108146078D01*
X128270814Y-108092302D01*
X128190038Y-108020293D01*
X128190038Y-108117257D01*
X128178436Y-108147421D01*
X128138869Y-108163053D01*
X128049354Y-108167815D01*
X127962648Y-108163053D01*
X127919539Y-108147421D01*
X127905861Y-108117257D01*
X127905861Y-107804504D01*
X128243283Y-107804504D01*
X128307979Y-107868858D01*
X128366992Y-107912215D01*
X128430553Y-107939741D01*
X128500226Y-107948974D01*
X128579346Y-107937270D01*
X128634804Y-107905376D01*
X128670654Y-107854816D01*
X128683286Y-107785331D01*
X128678851Y-107742211D01*
X128666189Y-107705708D01*
X128644593Y-107673961D01*
X128612212Y-107646357D01*
X128571744Y-107625624D01*
X128516591Y-107609598D01*
X128454764Y-107600622D01*
X128374441Y-107597264D01*
X128243283Y-107597264D01*
X128243283Y-107804504D01*
X127905861Y-107804504D01*
X127905861Y-107296967D01*
X127913901Y-107175978D01*
X127935903Y-107079591D01*
X127975395Y-106995483D01*
X128031524Y-106929870D01*
X128104213Y-106880295D01*
X128198953Y-106843775D01*
X128306163Y-106823290D01*
X128444173Y-106815687D01*
X128600610Y-106828998D01*
G37*
G36*
X127218440Y-108113105D02*
G01*
X127226622Y-108137041D01*
X127254710Y-108154138D01*
X127307344Y-108164396D01*
X127390509Y-108167815D01*
X127473918Y-108164396D01*
X127526552Y-108154138D01*
X127554518Y-108137041D01*
X127562700Y-108113105D01*
X127562700Y-106896531D01*
X127554518Y-106872595D01*
X127526552Y-106854888D01*
X127473918Y-106843286D01*
X127390509Y-106839134D01*
X127307344Y-106843286D01*
X127254710Y-106854888D01*
X127226622Y-106872595D01*
X127218440Y-106896531D01*
X127218440Y-108113105D01*
G37*
G36*
X127192550Y-106484738D02*
G01*
X127198363Y-106552594D01*
X127213271Y-106598167D01*
X127234926Y-106627742D01*
X127288261Y-106655415D01*
X127391974Y-106667187D01*
X127496805Y-106655656D01*
X127548412Y-106629085D01*
X127576974Y-106580993D01*
X127588712Y-106491454D01*
X127576597Y-106398276D01*
X127547069Y-106347840D01*
X127516222Y-106327723D01*
X127466293Y-106313377D01*
X127389288Y-106307662D01*
X127285632Y-106319332D01*
X127233583Y-106346496D01*
X127204440Y-106395267D01*
X127192550Y-106484738D01*
G37*
G36*
X125712927Y-108113105D02*
G01*
X125721109Y-108137041D01*
X125748464Y-108154138D01*
X125801099Y-108164396D01*
X125883653Y-108167815D01*
X125967794Y-108164396D01*
X126020429Y-108154138D01*
X126047662Y-108137041D01*
X126055844Y-108112983D01*
X126055844Y-107415547D01*
X126059580Y-107331210D01*
X126068911Y-107275718D01*
X126085177Y-107227670D01*
X126106402Y-107188768D01*
X126134569Y-107156512D01*
X126169905Y-107132592D01*
X126211128Y-107117878D01*
X126260764Y-107112686D01*
X126324750Y-107123996D01*
X126393265Y-107160680D01*
X126458320Y-107216313D01*
X126532606Y-107300387D01*
X126532606Y-108112983D01*
X126540788Y-108137041D01*
X126568876Y-108154138D01*
X126621510Y-108164396D01*
X126704675Y-108167815D01*
X126788084Y-108164396D01*
X126840718Y-108154138D01*
X126868684Y-108137041D01*
X126876866Y-108113105D01*
X126876866Y-106893845D01*
X126870027Y-106869909D01*
X126845481Y-106852812D01*
X126799685Y-106842554D01*
X126729344Y-106839134D01*
X126656926Y-106842554D01*
X126612595Y-106852812D01*
X126590003Y-106869909D01*
X126583164Y-106893845D01*
X126583164Y-107034651D01*
X126478124Y-106936352D01*
X126377634Y-106870397D01*
X126270345Y-106829233D01*
X126159647Y-106815687D01*
X126041416Y-106826674D01*
X125949965Y-106856720D01*
X125872156Y-106905619D01*
X125811967Y-106968217D01*
X125767163Y-107043551D01*
X125736130Y-107132958D01*
X125719217Y-107232154D01*
X125712927Y-107359860D01*
X125712927Y-108113105D01*
G37*
G36*
X125289367Y-106400470D02*
G01*
X125323237Y-106420258D01*
X125345398Y-106452984D01*
X125353890Y-106506964D01*
X125353890Y-108046671D01*
X125345398Y-108100650D01*
X125323237Y-108133377D01*
X125289367Y-108153165D01*
X125247278Y-108160000D01*
X124777355Y-108160000D01*
X124673221Y-108156594D01*
X124584036Y-108147055D01*
X124499015Y-108130343D01*
X124420760Y-108106877D01*
X124346914Y-108075527D01*
X124280687Y-108037267D01*
X124221440Y-107990673D01*
X124171388Y-107936273D01*
X124130914Y-107873785D01*
X124099703Y-107801207D01*
X124080446Y-107721967D01*
X124074720Y-107644525D01*
X124446650Y-107644525D01*
X124452162Y-107700659D01*
X124467899Y-107748450D01*
X124493271Y-107790436D01*
X124526639Y-107824654D01*
X124567017Y-107851166D01*
X124615422Y-107870816D01*
X124669756Y-107882181D01*
X124741695Y-107886448D01*
X125001325Y-107886448D01*
X125001325Y-107386238D01*
X124788224Y-107386238D01*
X124694508Y-107391185D01*
X124628367Y-107403946D01*
X124570903Y-107426024D01*
X124527250Y-107454260D01*
X124492527Y-107490665D01*
X124467166Y-107535104D01*
X124451978Y-107585526D01*
X124446650Y-107644525D01*
X124074720Y-107644525D01*
X124073691Y-107630603D01*
X124080792Y-107543490D01*
X124101046Y-107468304D01*
X124133602Y-107400031D01*
X124175418Y-107342152D01*
X124226631Y-107293189D01*
X124286182Y-107254103D01*
X124352103Y-107225296D01*
X124424790Y-107206353D01*
X124368789Y-107180801D01*
X124320254Y-107148956D01*
X124277903Y-107110533D01*
X124243073Y-107067013D01*
X124215592Y-107018362D01*
X124195324Y-106963942D01*
X124183045Y-106906010D01*
X124181604Y-106884441D01*
X124538241Y-106884441D01*
X124553262Y-106975666D01*
X124572290Y-107016292D01*
X124599057Y-107051259D01*
X124633114Y-107079707D01*
X124676238Y-107102062D01*
X124726880Y-107115332D01*
X124800558Y-107120502D01*
X125001325Y-107120502D01*
X125001325Y-106659371D01*
X124819609Y-106659371D01*
X124740586Y-106663642D01*
X124686496Y-106674515D01*
X124639878Y-106693346D01*
X124603820Y-106717745D01*
X124575257Y-106749229D01*
X124554605Y-106788454D01*
X124542498Y-106832736D01*
X124538241Y-106884441D01*
X124181604Y-106884441D01*
X124178838Y-106843042D01*
X124189618Y-106733289D01*
X124219870Y-106643618D01*
X124269806Y-106566310D01*
X124338084Y-106503545D01*
X124421757Y-106456292D01*
X124527983Y-106420990D01*
X124647029Y-106401099D01*
X124803244Y-106393635D01*
X125247278Y-106393635D01*
X125289367Y-106400470D01*
G37*
G36*
X122649511Y-108113105D02*
G01*
X122656350Y-108137041D01*
X122680286Y-108154138D01*
X122725348Y-108164396D01*
X122795690Y-108167815D01*
X122868841Y-108164396D01*
X122913171Y-108154138D01*
X122936374Y-108137041D01*
X122943213Y-108113105D01*
X122943213Y-107972299D01*
X123048257Y-108070514D01*
X123148866Y-108136552D01*
X123255870Y-108177753D01*
X123365387Y-108191263D01*
X123484803Y-108180244D01*
X123576413Y-108150230D01*
X123654174Y-108101214D01*
X123714410Y-108038122D01*
X123759139Y-107962262D01*
X123789637Y-107873381D01*
X123805926Y-107773944D01*
X123812107Y-107640251D01*
X123812107Y-106893845D01*
X123804658Y-106869909D01*
X123777302Y-106852812D01*
X123724057Y-106842554D01*
X123641381Y-106839134D01*
X123558094Y-106842554D01*
X123505460Y-106852812D01*
X123477372Y-106870031D01*
X123469190Y-106893967D01*
X123469190Y-107584563D01*
X123465640Y-107674896D01*
X123456978Y-107731231D01*
X123441023Y-107779226D01*
X123419364Y-107818304D01*
X123390625Y-107850519D01*
X123355129Y-107874480D01*
X123313913Y-107889102D01*
X123264270Y-107894263D01*
X123200426Y-107882827D01*
X123132501Y-107845781D01*
X123067481Y-107789593D01*
X122991085Y-107704364D01*
X122991085Y-106893845D01*
X122983635Y-106869909D01*
X122956280Y-106852812D01*
X122903646Y-106842554D01*
X122820237Y-106839134D01*
X122737072Y-106842554D01*
X122685048Y-106852812D01*
X122657693Y-106869909D01*
X122649511Y-106893845D01*
X122649511Y-108113105D01*
G37*
G36*
X121444783Y-107768722D02*
G01*
X121454919Y-107868357D01*
X121483740Y-107952027D01*
X121530683Y-108024759D01*
X121593771Y-108084651D01*
X121669946Y-108130614D01*
X121761810Y-108164518D01*
X121861311Y-108184377D01*
X121972103Y-108191263D01*
X122102529Y-108181371D01*
X122213904Y-108156336D01*
X122295969Y-108125439D01*
X122343719Y-108095764D01*
X122366922Y-108050823D01*
X122375104Y-107958866D01*
X122372418Y-107894630D01*
X122364235Y-107855917D01*
X122350558Y-107836622D01*
X122330041Y-107831737D01*
X122285711Y-107848712D01*
X122212561Y-107885837D01*
X122110833Y-107923572D01*
X122050429Y-107936541D01*
X121978942Y-107941158D01*
X121896388Y-107931632D01*
X121833496Y-107904277D01*
X121809994Y-107883937D01*
X121793196Y-107859092D01*
X121779518Y-107796078D01*
X121785932Y-107757715D01*
X121804797Y-107725736D01*
X121833357Y-107698821D01*
X121871720Y-107674445D01*
X121965997Y-107633412D01*
X122073953Y-107591036D01*
X122181908Y-107537669D01*
X122231714Y-107504199D01*
X122276064Y-107463907D01*
X122313223Y-107416256D01*
X122342986Y-107358517D01*
X122361520Y-107293269D01*
X122368265Y-107210872D01*
X122359576Y-107126110D01*
X122334193Y-107050160D01*
X122292624Y-106982493D01*
X122235764Y-106925108D01*
X122166049Y-106879699D01*
X122079326Y-106844385D01*
X121983735Y-106823178D01*
X121872330Y-106815687D01*
X121761078Y-106824235D01*
X121663381Y-106845607D01*
X121589619Y-106873206D01*
X121546510Y-106898852D01*
X121528070Y-106919734D01*
X121519888Y-106944159D01*
X121515125Y-106979574D01*
X121513049Y-107031964D01*
X121515125Y-107091926D01*
X121521964Y-107128684D01*
X121534909Y-107147002D01*
X121554082Y-107151765D01*
X121592306Y-107136866D01*
X121657152Y-107104870D01*
X121747400Y-107072875D01*
X121800617Y-107061902D01*
X121864148Y-107057976D01*
X121944870Y-107067623D01*
X122000802Y-107095223D01*
X122033653Y-107137355D01*
X122044521Y-107189012D01*
X122037896Y-107228387D01*
X122018632Y-107260087D01*
X121989434Y-107286432D01*
X121950244Y-107310767D01*
X121854012Y-107351800D01*
X121744713Y-107393443D01*
X121635415Y-107446078D01*
X121584262Y-107479627D01*
X121539061Y-107519961D01*
X121501149Y-107567431D01*
X121470795Y-107624497D01*
X121451676Y-107688836D01*
X121444783Y-107768722D01*
G37*
D15*
G36*
X91692636Y-120427712D02*
G01*
X91692636Y-121441258D01*
X91682744Y-121577363D01*
X91668647Y-121619511D01*
X91650504Y-121644407D01*
X91593718Y-121667488D01*
X91502127Y-121670419D01*
X91502127Y-121729038D01*
X92124580Y-121729038D01*
X92124580Y-121670419D01*
X92019433Y-121661626D01*
X91963379Y-121627555D01*
X91939016Y-121557213D01*
X91933887Y-121440526D01*
X91933887Y-120956742D01*
X91938100Y-120768797D01*
X91952022Y-120667314D01*
X91979316Y-120626647D01*
X92026394Y-120618221D01*
X92067244Y-120623350D01*
X92121649Y-120640203D01*
X92146928Y-120582867D01*
X91761146Y-120427712D01*
X91692636Y-120427712D01*
G37*
G36*
X91813353Y-119771187D02*
G01*
X91756221Y-119781842D01*
X91709855Y-119813319D01*
X91678677Y-119860035D01*
X91668090Y-119917733D01*
X91678498Y-119973772D01*
X91709672Y-120021230D01*
X91756136Y-120053413D01*
X91813353Y-120064278D01*
X91870413Y-120053422D01*
X91916851Y-120021230D01*
X91948025Y-119973772D01*
X91958433Y-119917733D01*
X91947887Y-119860020D01*
X91916851Y-119813319D01*
X91870360Y-119781828D01*
X91813353Y-119771187D01*
G37*
%TO.C,J201*%
D16*
X109570000Y-94350000D02*
X109570000Y-99650000D01*
X109570000Y-94350000D02*
X110140000Y-94350000D01*
X109570000Y-99650000D02*
X110140000Y-99650000D01*
X110140000Y-92960000D02*
X110140000Y-94350000D01*
X111760000Y-94350000D02*
X112680000Y-94350000D01*
X111760000Y-99650000D02*
X112680000Y-99650000D01*
X114300000Y-94350000D02*
X115220000Y-94350000D01*
X114300000Y-99650000D02*
X115220000Y-99650000D01*
X116840000Y-94350000D02*
X117760000Y-94350000D01*
X116840000Y-99650000D02*
X117760000Y-99650000D01*
X119380000Y-94350000D02*
X120300000Y-94350000D01*
X119380000Y-99650000D02*
X120300000Y-99650000D01*
X121920000Y-94350000D02*
X122840000Y-94350000D01*
X121920000Y-99650000D02*
X122840000Y-99650000D01*
X124460000Y-94350000D02*
X125380000Y-94350000D01*
X124460000Y-99650000D02*
X125380000Y-99650000D01*
X127000000Y-94350000D02*
X127920000Y-94350000D01*
X127000000Y-99650000D02*
X127920000Y-99650000D01*
X129540000Y-94350000D02*
X130460000Y-94350000D01*
X129540000Y-99650000D02*
X130460000Y-99650000D01*
X132080000Y-94350000D02*
X133000000Y-94350000D01*
X132080000Y-99650000D02*
X133000000Y-99650000D01*
X134620000Y-94350000D02*
X135540000Y-94350000D01*
X134620000Y-99650000D02*
X135540000Y-99650000D01*
X137160000Y-94350000D02*
X138080000Y-94350000D01*
X137160000Y-99650000D02*
X138080000Y-99650000D01*
X139700000Y-94350000D02*
X140620000Y-94350000D01*
X139700000Y-99650000D02*
X140620000Y-99650000D01*
X142240000Y-94350000D02*
X143160000Y-94350000D01*
X142240000Y-99650000D02*
X143160000Y-99650000D01*
X144780000Y-94350000D02*
X145700000Y-94350000D01*
X144780000Y-99650000D02*
X145700000Y-99650000D01*
X147320000Y-94350000D02*
X148240000Y-94350000D01*
X147320000Y-99650000D02*
X148240000Y-99650000D01*
X149860000Y-94350000D02*
X150430000Y-94350000D01*
X149860000Y-99650000D02*
X150430000Y-99650000D01*
X150430000Y-94350000D02*
X150430000Y-99650000D01*
D17*
%TO.C,G\u002A\u002A\u002A*%
G36*
X97170675Y-120666043D02*
G01*
X97170675Y-121120674D01*
X96716045Y-121120674D01*
X96261414Y-121120674D01*
X96261414Y-120666043D01*
X96261414Y-120211413D01*
X96716045Y-120211413D01*
X97170675Y-120211413D01*
X97170675Y-120666043D01*
G37*
G36*
X97473762Y-124909260D02*
G01*
X97473762Y-125060804D01*
X97322219Y-125060804D01*
X97170675Y-125060804D01*
X97170675Y-124909260D01*
X97170675Y-124757717D01*
X97322219Y-124757717D01*
X97473762Y-124757717D01*
X97473762Y-124909260D01*
G37*
G36*
X97776849Y-126424695D02*
G01*
X97776849Y-126576238D01*
X97625305Y-126576238D01*
X97473762Y-126576238D01*
X97473762Y-126424695D01*
X97473762Y-126273151D01*
X97625305Y-126273151D01*
X97776849Y-126273151D01*
X97776849Y-126424695D01*
G37*
G36*
X98079936Y-123393826D02*
G01*
X98079936Y-123545369D01*
X97928392Y-123545369D01*
X97776849Y-123545369D01*
X97776849Y-123393826D01*
X97776849Y-123242282D01*
X97928392Y-123242282D01*
X98079936Y-123242282D01*
X98079936Y-123393826D01*
G37*
G36*
X98383023Y-119756783D02*
G01*
X98383023Y-119908326D01*
X98231479Y-119908326D01*
X98079936Y-119908326D01*
X98079936Y-119756783D01*
X98079936Y-119605239D01*
X98231479Y-119605239D01*
X98383023Y-119605239D01*
X98383023Y-119756783D01*
G37*
G36*
X99292283Y-120666043D02*
G01*
X99292283Y-120817587D01*
X99140740Y-120817587D01*
X98989196Y-120817587D01*
X98989196Y-120666043D01*
X98989196Y-120514500D01*
X99140740Y-120514500D01*
X99292283Y-120514500D01*
X99292283Y-120666043D01*
G37*
G36*
X99898457Y-120362957D02*
G01*
X99898457Y-120514500D01*
X99746914Y-120514500D01*
X99595370Y-120514500D01*
X99595370Y-120362957D01*
X99595370Y-120211413D01*
X99746914Y-120211413D01*
X99898457Y-120211413D01*
X99898457Y-120362957D01*
G37*
G36*
X99898457Y-123696912D02*
G01*
X99898457Y-123848456D01*
X99746914Y-123848456D01*
X99595370Y-123848456D01*
X99595370Y-123696912D01*
X99595370Y-123545369D01*
X99746914Y-123545369D01*
X99898457Y-123545369D01*
X99898457Y-123696912D01*
G37*
G36*
X101110805Y-123999999D02*
G01*
X101110805Y-124151543D01*
X100959261Y-124151543D01*
X100807718Y-124151543D01*
X100807718Y-123999999D01*
X100807718Y-123848456D01*
X100959261Y-123848456D01*
X101110805Y-123848456D01*
X101110805Y-123999999D01*
G37*
G36*
X102020065Y-121575304D02*
G01*
X102020065Y-121726848D01*
X101868522Y-121726848D01*
X101716979Y-121726848D01*
X101716979Y-121575304D01*
X101716979Y-121423761D01*
X101868522Y-121423761D01*
X102020065Y-121423761D01*
X102020065Y-121575304D01*
G37*
G36*
X102323152Y-123696912D02*
G01*
X102323152Y-123848456D01*
X102171609Y-123848456D01*
X102020065Y-123848456D01*
X102020065Y-123696912D01*
X102020065Y-123545369D01*
X102171609Y-123545369D01*
X102323152Y-123545369D01*
X102323152Y-123696912D01*
G37*
G36*
X102626239Y-123393826D02*
G01*
X102626239Y-123545369D01*
X102474696Y-123545369D01*
X102323152Y-123545369D01*
X102323152Y-123393826D01*
X102323152Y-123242282D01*
X102474696Y-123242282D01*
X102626239Y-123242282D01*
X102626239Y-123393826D01*
G37*
G36*
X103838587Y-120666043D02*
G01*
X103838587Y-121120674D01*
X103383957Y-121120674D01*
X102929326Y-121120674D01*
X102929326Y-120666043D01*
X102929326Y-120211413D01*
X103383957Y-120211413D01*
X103838587Y-120211413D01*
X103838587Y-120666043D01*
G37*
G36*
X103838587Y-127333955D02*
G01*
X103838587Y-127788586D01*
X103383957Y-127788586D01*
X102929326Y-127788586D01*
X102929326Y-127333955D01*
X102929326Y-126879325D01*
X103383957Y-126879325D01*
X103838587Y-126879325D01*
X103838587Y-127333955D01*
G37*
G36*
X103535500Y-125666977D02*
G01*
X103535500Y-125970064D01*
X103383957Y-125970064D01*
X103232413Y-125970064D01*
X103232413Y-125666977D01*
X103232413Y-125363890D01*
X103383957Y-125363890D01*
X103535500Y-125363890D01*
X103535500Y-125666977D01*
G37*
G36*
X104141674Y-125818521D02*
G01*
X104141674Y-125970064D01*
X103990130Y-125970064D01*
X103838587Y-125970064D01*
X103838587Y-125818521D01*
X103838587Y-125666977D01*
X103990130Y-125666977D01*
X104141674Y-125666977D01*
X104141674Y-125818521D01*
G37*
G36*
X98989196Y-119756783D02*
G01*
X98989196Y-119908326D01*
X99140740Y-119908326D01*
X99292283Y-119908326D01*
X99292283Y-120059870D01*
X99292283Y-120211413D01*
X98989196Y-120211413D01*
X98686110Y-120211413D01*
X98686110Y-119908326D01*
X98686110Y-119605239D01*
X98837653Y-119605239D01*
X98989196Y-119605239D01*
X98989196Y-119756783D01*
G37*
G36*
X96109871Y-127788586D02*
G01*
X96261414Y-127788586D01*
X96261414Y-128091673D01*
X96261414Y-128394759D01*
X96109871Y-128394759D01*
X95958327Y-128394759D01*
X95958327Y-128091673D01*
X95958327Y-127788586D01*
X96109871Y-127788586D01*
G37*
G36*
X95958327Y-127637042D02*
G01*
X95958327Y-127788586D01*
X95806784Y-127788586D01*
X95655241Y-127788586D01*
X95655241Y-127637042D01*
X95655241Y-127485499D01*
X95806784Y-127485499D01*
X95958327Y-127485499D01*
X95958327Y-127637042D01*
G37*
G36*
X100201544Y-127637042D02*
G01*
X100201544Y-127788586D01*
X100353088Y-127788586D01*
X100504631Y-127788586D01*
X100504631Y-128091673D01*
X100504631Y-128394759D01*
X100353088Y-128394759D01*
X100201544Y-128394759D01*
X100201544Y-128243216D01*
X100201544Y-128091673D01*
X100050001Y-128091673D01*
X99898457Y-128091673D01*
X99898457Y-127788586D01*
X99898457Y-127485499D01*
X100050001Y-127485499D01*
X100201544Y-127485499D01*
X100201544Y-127637042D01*
G37*
G36*
X97776849Y-121726848D02*
G01*
X96716045Y-121726848D01*
X95655241Y-121726848D01*
X95655241Y-120666043D01*
X95655241Y-119908326D01*
X95958327Y-119908326D01*
X95958327Y-120666043D01*
X95958327Y-121423761D01*
X96716045Y-121423761D01*
X97473762Y-121423761D01*
X97473762Y-120666043D01*
X97473762Y-119908326D01*
X96716045Y-119908326D01*
X95958327Y-119908326D01*
X95655241Y-119908326D01*
X95655241Y-119605239D01*
X96716045Y-119605239D01*
X97776849Y-119605239D01*
X97776849Y-120666043D01*
X97776849Y-121726848D01*
G37*
G36*
X104444761Y-121726848D02*
G01*
X103383957Y-121726848D01*
X102323152Y-121726848D01*
X102323152Y-120666043D01*
X102323152Y-119908326D01*
X102626239Y-119908326D01*
X102626239Y-120666043D01*
X102626239Y-121423761D01*
X103383957Y-121423761D01*
X104141674Y-121423761D01*
X104141674Y-120666043D01*
X104141674Y-119908326D01*
X103383957Y-119908326D01*
X102626239Y-119908326D01*
X102323152Y-119908326D01*
X102323152Y-119605239D01*
X103383957Y-119605239D01*
X104444761Y-119605239D01*
X104444761Y-120666043D01*
X104444761Y-121726848D01*
G37*
G36*
X104444761Y-128394759D02*
G01*
X103383957Y-128394759D01*
X102323152Y-128394759D01*
X102323152Y-127333955D01*
X102323152Y-126576238D01*
X102626239Y-126576238D01*
X102626239Y-127333955D01*
X102626239Y-128091673D01*
X103383957Y-128091673D01*
X104141674Y-128091673D01*
X104141674Y-127333955D01*
X104141674Y-126576238D01*
X103383957Y-126576238D01*
X102626239Y-126576238D01*
X102323152Y-126576238D01*
X102323152Y-126273151D01*
X103383957Y-126273151D01*
X104444761Y-126273151D01*
X104444761Y-127333955D01*
X104444761Y-128394759D01*
G37*
G36*
X103535500Y-124606173D02*
G01*
X103535500Y-124757717D01*
X103687043Y-124757717D01*
X103838587Y-124757717D01*
X103838587Y-124606173D01*
X103838587Y-124454630D01*
X104141674Y-124454630D01*
X104444761Y-124454630D01*
X104444761Y-124606173D01*
X104444761Y-124757717D01*
X104293217Y-124757717D01*
X104141674Y-124757717D01*
X104141674Y-124909260D01*
X104141674Y-125060804D01*
X103990130Y-125060804D01*
X103838587Y-125060804D01*
X103838587Y-125212347D01*
X103838587Y-125363890D01*
X103687043Y-125363890D01*
X103535500Y-125363890D01*
X103535500Y-125212347D01*
X103535500Y-125060804D01*
X103383957Y-125060804D01*
X103232413Y-125060804D01*
X103232413Y-124757717D01*
X103232413Y-124454630D01*
X103383957Y-124454630D01*
X103535500Y-124454630D01*
X103535500Y-124606173D01*
G37*
G36*
X104293217Y-125060804D02*
G01*
X104444761Y-125060804D01*
X104444761Y-125212347D01*
X104444761Y-125363890D01*
X104293217Y-125363890D01*
X104141674Y-125363890D01*
X104141674Y-125212347D01*
X104141674Y-125060804D01*
X104293217Y-125060804D01*
G37*
G36*
X102929326Y-122333021D02*
G01*
X102929326Y-122636108D01*
X103232413Y-122636108D01*
X103535500Y-122636108D01*
X103535500Y-122484565D01*
X103535500Y-122333021D01*
X103383957Y-122333021D01*
X103232413Y-122333021D01*
X103232413Y-122181478D01*
X103232413Y-122029935D01*
X103687043Y-122029935D01*
X104141674Y-122029935D01*
X104141674Y-122484565D01*
X104141674Y-122939195D01*
X103838587Y-122939195D01*
X103535500Y-122939195D01*
X103535500Y-123090739D01*
X103535500Y-123242282D01*
X103383957Y-123242282D01*
X103232413Y-123242282D01*
X103232413Y-123090739D01*
X103232413Y-122939195D01*
X103080870Y-122939195D01*
X102929326Y-122939195D01*
X102929326Y-122787652D01*
X102929326Y-122636108D01*
X102777783Y-122636108D01*
X102626239Y-122636108D01*
X102626239Y-122484565D01*
X102626239Y-122333021D01*
X102474696Y-122333021D01*
X102323152Y-122333021D01*
X102323152Y-122181478D01*
X102323152Y-122029935D01*
X102626239Y-122029935D01*
X102929326Y-122029935D01*
X102929326Y-122333021D01*
G37*
G36*
X104293217Y-122939195D02*
G01*
X104444761Y-122939195D01*
X104444761Y-123090739D01*
X104444761Y-123242282D01*
X104293217Y-123242282D01*
X104141674Y-123242282D01*
X104141674Y-123090739D01*
X104141674Y-122939195D01*
X104293217Y-122939195D01*
G37*
G36*
X99292283Y-124757717D02*
G01*
X99140740Y-124757717D01*
X98989196Y-124757717D01*
X98989196Y-124909260D01*
X98989196Y-125060804D01*
X98534566Y-125060804D01*
X98079936Y-125060804D01*
X98079936Y-124909260D01*
X98079936Y-124757717D01*
X97928392Y-124757717D01*
X97776849Y-124757717D01*
X97776849Y-124454630D01*
X98383023Y-124454630D01*
X98383023Y-124606173D01*
X98383023Y-124757717D01*
X98534566Y-124757717D01*
X98686110Y-124757717D01*
X98686110Y-124606173D01*
X98686110Y-124454630D01*
X98534566Y-124454630D01*
X98383023Y-124454630D01*
X97776849Y-124454630D01*
X97776849Y-124151543D01*
X97928392Y-124151543D01*
X98079936Y-124151543D01*
X98079936Y-123999999D01*
X98079936Y-123848456D01*
X98231479Y-123848456D01*
X98383023Y-123848456D01*
X98383023Y-123393826D01*
X98383023Y-122939195D01*
X98534566Y-122939195D01*
X98686110Y-122939195D01*
X98686110Y-123242282D01*
X98686110Y-123545369D01*
X98837653Y-123545369D01*
X98989196Y-123545369D01*
X98989196Y-123393826D01*
X98989196Y-123242282D01*
X99140740Y-123242282D01*
X99292283Y-123242282D01*
X99292283Y-123393826D01*
X99292283Y-123545369D01*
X99140740Y-123545369D01*
X98989196Y-123545369D01*
X98989196Y-123848456D01*
X98989196Y-124151543D01*
X98837653Y-124151543D01*
X98686110Y-124151543D01*
X98686110Y-124303086D01*
X98686110Y-124454630D01*
X98989196Y-124454630D01*
X99292283Y-124454630D01*
X99292283Y-124151543D01*
X99292283Y-123848456D01*
X99443827Y-123848456D01*
X99595370Y-123848456D01*
X99595370Y-124151543D01*
X99595370Y-124454630D01*
X99746914Y-124454630D01*
X99898457Y-124454630D01*
X99898457Y-124303086D01*
X99898457Y-124151543D01*
X100050001Y-124151543D01*
X100201544Y-124151543D01*
X100201544Y-124303086D01*
X100201544Y-124454630D01*
X100050001Y-124454630D01*
X99898457Y-124454630D01*
X99898457Y-124606173D01*
X99898457Y-124757717D01*
X99746914Y-124757717D01*
X99595370Y-124757717D01*
X99595370Y-124606173D01*
X99595370Y-124454630D01*
X99443827Y-124454630D01*
X99292283Y-124454630D01*
X99292283Y-124606173D01*
X99292283Y-124757717D01*
G37*
G36*
X98989196Y-126273151D02*
G01*
X98837653Y-126273151D01*
X98686110Y-126273151D01*
X98686110Y-126424695D01*
X98686110Y-126576238D01*
X98534566Y-126576238D01*
X98383023Y-126576238D01*
X98383023Y-126879325D01*
X98383023Y-127182412D01*
X98534566Y-127182412D01*
X98686110Y-127182412D01*
X98686110Y-126879325D01*
X98686110Y-126576238D01*
X98837653Y-126576238D01*
X98989196Y-126576238D01*
X98989196Y-126727781D01*
X98989196Y-126879325D01*
X99140740Y-126879325D01*
X99292283Y-126879325D01*
X99292283Y-127333955D01*
X99292283Y-127485499D01*
X99292283Y-127788586D01*
X99140740Y-127788586D01*
X98989196Y-127788586D01*
X98989196Y-127940129D01*
X98989196Y-128091673D01*
X98837653Y-128091673D01*
X98686110Y-128091673D01*
X98686110Y-128243216D01*
X98686110Y-128394759D01*
X97928392Y-128394759D01*
X97170675Y-128394759D01*
X97170675Y-128243216D01*
X97170675Y-128091673D01*
X97019132Y-128091673D01*
X96867588Y-128091673D01*
X96867588Y-128243216D01*
X96867588Y-128394759D01*
X96716045Y-128394759D01*
X96564501Y-128394759D01*
X96564501Y-128091673D01*
X96564501Y-127788586D01*
X96867588Y-127788586D01*
X97170675Y-127788586D01*
X97170675Y-127940129D01*
X97170675Y-128091673D01*
X97322219Y-128091673D01*
X97473762Y-128091673D01*
X97473762Y-127940129D01*
X97473762Y-127788586D01*
X97625305Y-127788586D01*
X97776849Y-127788586D01*
X97776849Y-127940129D01*
X97776849Y-128091673D01*
X97928392Y-128091673D01*
X98079936Y-128091673D01*
X98079936Y-127788586D01*
X98079936Y-127485499D01*
X98231479Y-127485499D01*
X98383023Y-127485499D01*
X98383023Y-127637042D01*
X98383023Y-127788586D01*
X98686110Y-127788586D01*
X98989196Y-127788586D01*
X98989196Y-127637042D01*
X98989196Y-127485499D01*
X98686110Y-127485499D01*
X98383023Y-127485499D01*
X98383023Y-127333955D01*
X98383023Y-127182412D01*
X97776849Y-127182412D01*
X97170675Y-127182412D01*
X97170675Y-127333955D01*
X97170675Y-127485499D01*
X97019132Y-127485499D01*
X96867588Y-127485499D01*
X96867588Y-127333955D01*
X96867588Y-127182412D01*
X96716045Y-127182412D01*
X96564501Y-127182412D01*
X96564501Y-127333955D01*
X96564501Y-127485499D01*
X96261414Y-127485499D01*
X95958327Y-127485499D01*
X95958327Y-126879325D01*
X95958327Y-126273151D01*
X95806784Y-126273151D01*
X95655241Y-126273151D01*
X95655241Y-126121608D01*
X95655241Y-125970064D01*
X95806784Y-125970064D01*
X95958327Y-125970064D01*
X95958327Y-125818521D01*
X95958327Y-125666977D01*
X96261414Y-125666977D01*
X96261414Y-125970064D01*
X96261414Y-126273151D01*
X96412958Y-126273151D01*
X96564501Y-126273151D01*
X96564501Y-126424695D01*
X96564501Y-126576238D01*
X96412958Y-126576238D01*
X96261414Y-126576238D01*
X96261414Y-126727781D01*
X96261414Y-126879325D01*
X96564501Y-126879325D01*
X96867588Y-126879325D01*
X96867588Y-126576238D01*
X96867588Y-126424695D01*
X97170675Y-126424695D01*
X97170675Y-126879325D01*
X97625305Y-126879325D01*
X98079936Y-126879325D01*
X98079936Y-126424695D01*
X98079936Y-125970064D01*
X98383023Y-125970064D01*
X98383023Y-126121608D01*
X98383023Y-126273151D01*
X98534566Y-126273151D01*
X98686110Y-126273151D01*
X98686110Y-126121608D01*
X98686110Y-125970064D01*
X98534566Y-125970064D01*
X98383023Y-125970064D01*
X98079936Y-125970064D01*
X97625305Y-125970064D01*
X97170675Y-125970064D01*
X97170675Y-126273151D01*
X97170675Y-126424695D01*
X96867588Y-126424695D01*
X96867588Y-126273151D01*
X96716045Y-126273151D01*
X96564501Y-126273151D01*
X96564501Y-125970064D01*
X96564501Y-125666977D01*
X96412958Y-125666977D01*
X96261414Y-125666977D01*
X95958327Y-125666977D01*
X95806784Y-125666977D01*
X95655241Y-125666977D01*
X95655241Y-125515434D01*
X95655241Y-125363890D01*
X95958327Y-125363890D01*
X96261414Y-125363890D01*
X96261414Y-125060804D01*
X96261414Y-124757717D01*
X96412958Y-124757717D01*
X96564501Y-124757717D01*
X96564501Y-124909260D01*
X96564501Y-125060804D01*
X96716045Y-125060804D01*
X96867588Y-125060804D01*
X96867588Y-125363890D01*
X96867588Y-125666977D01*
X97019132Y-125666977D01*
X97170675Y-125666977D01*
X97170675Y-125515434D01*
X97170675Y-125363890D01*
X97322219Y-125363890D01*
X97473762Y-125363890D01*
X97473762Y-125212347D01*
X97473762Y-125060804D01*
X97625305Y-125060804D01*
X97776849Y-125060804D01*
X97776849Y-125212347D01*
X97776849Y-125363890D01*
X98837653Y-125363890D01*
X99898457Y-125363890D01*
X99898457Y-125212347D01*
X99898457Y-125060804D01*
X100050001Y-125060804D01*
X100201544Y-125060804D01*
X100201544Y-125363890D01*
X100201544Y-125666977D01*
X100050001Y-125666977D01*
X99898457Y-125666977D01*
X99898457Y-125818521D01*
X99898457Y-125970064D01*
X100050001Y-125970064D01*
X100201544Y-125970064D01*
X100201544Y-125818521D01*
X100201544Y-125666977D01*
X100353088Y-125666977D01*
X100504631Y-125666977D01*
X100504631Y-125818521D01*
X100504631Y-125970064D01*
X100807718Y-125970064D01*
X101110805Y-125970064D01*
X101110805Y-125818521D01*
X101110805Y-125666977D01*
X100959261Y-125666977D01*
X100807718Y-125666977D01*
X100807718Y-125515434D01*
X100807718Y-125363890D01*
X100656174Y-125363890D01*
X100504631Y-125363890D01*
X100504631Y-125212347D01*
X100504631Y-125060804D01*
X100353088Y-125060804D01*
X100201544Y-125060804D01*
X100201544Y-124909260D01*
X100201544Y-124757717D01*
X100504631Y-124757717D01*
X100807718Y-124757717D01*
X100807718Y-124606173D01*
X100807718Y-124454630D01*
X100959261Y-124454630D01*
X101110805Y-124454630D01*
X101110805Y-124303086D01*
X101110805Y-124151543D01*
X101262348Y-124151543D01*
X101413892Y-124151543D01*
X101413892Y-124303086D01*
X101413892Y-124454630D01*
X101565435Y-124454630D01*
X101716979Y-124454630D01*
X101716979Y-124909260D01*
X101716979Y-125363890D01*
X101565435Y-125363890D01*
X101413892Y-125363890D01*
X101413892Y-125060804D01*
X101413892Y-124757717D01*
X101262348Y-124757717D01*
X101110805Y-124757717D01*
X101110805Y-125060804D01*
X101110805Y-125363890D01*
X101262348Y-125363890D01*
X101413892Y-125363890D01*
X101413892Y-125666977D01*
X101413892Y-125970064D01*
X101565435Y-125970064D01*
X101716979Y-125970064D01*
X101716979Y-125818521D01*
X101716979Y-125666977D01*
X101868522Y-125666977D01*
X102020065Y-125666977D01*
X102020065Y-125515434D01*
X102020065Y-125363890D01*
X102171609Y-125363890D01*
X102323152Y-125363890D01*
X102323152Y-125515434D01*
X102323152Y-125666977D01*
X102474696Y-125666977D01*
X102626239Y-125666977D01*
X102626239Y-125515434D01*
X102626239Y-125363890D01*
X102474696Y-125363890D01*
X102323152Y-125363890D01*
X102323152Y-125212347D01*
X102323152Y-125060804D01*
X102474696Y-125060804D01*
X102626239Y-125060804D01*
X102626239Y-124909260D01*
X102626239Y-124757717D01*
X102474696Y-124757717D01*
X102323152Y-124757717D01*
X102323152Y-124606173D01*
X102323152Y-124454630D01*
X102474696Y-124454630D01*
X102626239Y-124454630D01*
X102626239Y-124303086D01*
X102626239Y-124151543D01*
X102474696Y-124151543D01*
X102323152Y-124151543D01*
X102323152Y-123999999D01*
X102323152Y-123848456D01*
X102474696Y-123848456D01*
X102626239Y-123848456D01*
X102626239Y-123696912D01*
X102626239Y-123545369D01*
X102777783Y-123545369D01*
X102929326Y-123545369D01*
X102929326Y-123393826D01*
X102929326Y-123242282D01*
X103080870Y-123242282D01*
X103232413Y-123242282D01*
X103232413Y-123545369D01*
X103232413Y-123848456D01*
X103535500Y-123848456D01*
X103838587Y-123848456D01*
X103838587Y-123545369D01*
X103838587Y-123242282D01*
X103990130Y-123242282D01*
X104141674Y-123242282D01*
X104141674Y-123393826D01*
X104141674Y-123545369D01*
X104293217Y-123545369D01*
X104444761Y-123545369D01*
X104444761Y-123848456D01*
X104444761Y-124151543D01*
X104293217Y-124151543D01*
X104141674Y-124151543D01*
X104141674Y-123999999D01*
X104141674Y-123848456D01*
X103990130Y-123848456D01*
X103838587Y-123848456D01*
X103838587Y-123999999D01*
X103838587Y-124151543D01*
X103535500Y-124151543D01*
X103232413Y-124151543D01*
X103232413Y-123999999D01*
X103232413Y-123848456D01*
X103080870Y-123848456D01*
X102929326Y-123848456D01*
X102929326Y-124757717D01*
X102929326Y-125666977D01*
X102777783Y-125666977D01*
X102626239Y-125666977D01*
X102626239Y-125818521D01*
X102626239Y-125970064D01*
X102323152Y-125970064D01*
X102020065Y-125970064D01*
X102020065Y-126121608D01*
X102020065Y-126273151D01*
X101565435Y-126273151D01*
X101110805Y-126273151D01*
X101110805Y-126424695D01*
X101110805Y-126576238D01*
X101565435Y-126576238D01*
X102020065Y-126576238D01*
X102020065Y-126727781D01*
X102020065Y-126879325D01*
X101868522Y-126879325D01*
X101716979Y-126879325D01*
X101716979Y-127030868D01*
X101716979Y-127182412D01*
X101868522Y-127182412D01*
X102020065Y-127182412D01*
X102020065Y-127637042D01*
X102020065Y-128091673D01*
X101868522Y-128091673D01*
X101716979Y-128091673D01*
X101716979Y-128243216D01*
X101716979Y-128394759D01*
X101565435Y-128394759D01*
X101413892Y-128394759D01*
X101413892Y-128243216D01*
X101413892Y-128091673D01*
X101262348Y-128091673D01*
X101110805Y-128091673D01*
X101110805Y-127485499D01*
X101110805Y-126879325D01*
X100807718Y-126879325D01*
X100504631Y-126879325D01*
X100504631Y-127030868D01*
X100504631Y-127182412D01*
X100656174Y-127182412D01*
X100807718Y-127182412D01*
X100807718Y-127333955D01*
X100807718Y-127485499D01*
X100504631Y-127485499D01*
X100201544Y-127485499D01*
X100201544Y-127333955D01*
X100201544Y-127182412D01*
X100050001Y-127182412D01*
X99898457Y-127182412D01*
X99898457Y-127030868D01*
X99898457Y-126879325D01*
X99746914Y-126879325D01*
X99595370Y-126879325D01*
X99595370Y-126727781D01*
X99595370Y-126576238D01*
X99746914Y-126576238D01*
X99898457Y-126576238D01*
X99898457Y-126273151D01*
X99898457Y-125970064D01*
X99746914Y-125970064D01*
X99595370Y-125970064D01*
X99595370Y-126121608D01*
X99595370Y-126273151D01*
X99443827Y-126273151D01*
X99292283Y-126273151D01*
X99292283Y-126121608D01*
X99292283Y-125970064D01*
X99140740Y-125970064D01*
X98989196Y-125970064D01*
X98989196Y-126121608D01*
X98989196Y-126273151D01*
G37*
G36*
X97322219Y-127485499D02*
G01*
X97473762Y-127485499D01*
X97473762Y-127637042D01*
X97473762Y-127788586D01*
X97322219Y-127788586D01*
X97170675Y-127788586D01*
X97170675Y-127637042D01*
X97170675Y-127485499D01*
X97322219Y-127485499D01*
G37*
G36*
X101413892Y-122636108D02*
G01*
X101262348Y-122636108D01*
X101110805Y-122636108D01*
X101110805Y-122787652D01*
X101110805Y-122939195D01*
X101262348Y-122939195D01*
X101413892Y-122939195D01*
X101413892Y-123090739D01*
X101413892Y-123242282D01*
X101565435Y-123242282D01*
X101716979Y-123242282D01*
X101716979Y-122939195D01*
X101716979Y-122636108D01*
X102171609Y-122636108D01*
X102626239Y-122636108D01*
X102626239Y-122787652D01*
X102626239Y-122939195D01*
X102323152Y-122939195D01*
X102020065Y-122939195D01*
X102020065Y-123242282D01*
X102020065Y-123545369D01*
X101868522Y-123545369D01*
X101716979Y-123545369D01*
X101716979Y-123848456D01*
X101716979Y-124151543D01*
X101565435Y-124151543D01*
X101413892Y-124151543D01*
X101413892Y-123696912D01*
X101413892Y-123242282D01*
X101110805Y-123242282D01*
X100807718Y-123242282D01*
X100807718Y-123545369D01*
X100807718Y-123848456D01*
X100504631Y-123848456D01*
X100201544Y-123848456D01*
X100201544Y-123545369D01*
X100201544Y-123242282D01*
X99746914Y-123242282D01*
X99292283Y-123242282D01*
X99292283Y-123090739D01*
X100504631Y-123090739D01*
X100504631Y-123242282D01*
X100656174Y-123242282D01*
X100807718Y-123242282D01*
X100807718Y-123090739D01*
X100807718Y-122939195D01*
X100656174Y-122939195D01*
X100504631Y-122939195D01*
X100504631Y-123090739D01*
X99292283Y-123090739D01*
X99292283Y-122939195D01*
X99140740Y-122939195D01*
X98989196Y-122939195D01*
X98989196Y-122787652D01*
X100201544Y-122787652D01*
X100201544Y-122939195D01*
X100353088Y-122939195D01*
X100504631Y-122939195D01*
X100504631Y-122787652D01*
X100504631Y-122636108D01*
X100353088Y-122636108D01*
X100201544Y-122636108D01*
X100201544Y-122787652D01*
X98989196Y-122787652D01*
X98989196Y-122636108D01*
X98686110Y-122636108D01*
X98383023Y-122636108D01*
X98383023Y-122787652D01*
X98383023Y-122939195D01*
X98231479Y-122939195D01*
X98079936Y-122939195D01*
X98079936Y-122787652D01*
X98079936Y-122636108D01*
X97928392Y-122636108D01*
X97776849Y-122636108D01*
X97776849Y-122787652D01*
X97776849Y-122939195D01*
X97625305Y-122939195D01*
X97473762Y-122939195D01*
X97473762Y-123242282D01*
X97473762Y-123545369D01*
X97625305Y-123545369D01*
X97776849Y-123545369D01*
X97776849Y-123696912D01*
X97776849Y-123848456D01*
X97625305Y-123848456D01*
X97473762Y-123848456D01*
X97473762Y-123999999D01*
X97473762Y-124151543D01*
X97322219Y-124151543D01*
X97170675Y-124151543D01*
X97170675Y-124454630D01*
X97170675Y-124757717D01*
X96867588Y-124757717D01*
X96564501Y-124757717D01*
X96564501Y-124303086D01*
X96564501Y-123848456D01*
X96412958Y-123848456D01*
X96261414Y-123848456D01*
X96261414Y-123999999D01*
X96261414Y-124151543D01*
X96109871Y-124151543D01*
X95958327Y-124151543D01*
X95958327Y-124303086D01*
X95958327Y-124454630D01*
X96109871Y-124454630D01*
X96261414Y-124454630D01*
X96261414Y-124606173D01*
X96261414Y-124757717D01*
X95958327Y-124757717D01*
X95655241Y-124757717D01*
X95655241Y-123848456D01*
X95655241Y-123696912D01*
X95958327Y-123696912D01*
X95958327Y-123848456D01*
X96109871Y-123848456D01*
X96261414Y-123848456D01*
X96261414Y-123696912D01*
X96261414Y-123545369D01*
X96109871Y-123545369D01*
X95958327Y-123545369D01*
X95958327Y-123696912D01*
X95655241Y-123696912D01*
X95655241Y-122939195D01*
X95806784Y-122939195D01*
X95958327Y-122939195D01*
X95958327Y-123090739D01*
X95958327Y-123242282D01*
X96261414Y-123242282D01*
X96564501Y-123242282D01*
X96564501Y-123393826D01*
X96564501Y-123545369D01*
X96716045Y-123545369D01*
X96867588Y-123545369D01*
X96867588Y-123696912D01*
X96867588Y-123848456D01*
X97019132Y-123848456D01*
X97170675Y-123848456D01*
X97170675Y-123242282D01*
X97170675Y-122636108D01*
X97019132Y-122636108D01*
X96867588Y-122636108D01*
X96867588Y-122939195D01*
X96867588Y-123242282D01*
X96716045Y-123242282D01*
X96564501Y-123242282D01*
X96564501Y-123090739D01*
X96564501Y-122939195D01*
X96261414Y-122939195D01*
X95958327Y-122939195D01*
X95958327Y-122787652D01*
X95958327Y-122636108D01*
X95806784Y-122636108D01*
X95655241Y-122636108D01*
X95655241Y-122484565D01*
X95655241Y-122333021D01*
X95806784Y-122333021D01*
X95958327Y-122333021D01*
X95958327Y-122484565D01*
X95958327Y-122636108D01*
X96109871Y-122636108D01*
X96261414Y-122636108D01*
X96261414Y-122484565D01*
X96261414Y-122333021D01*
X96109871Y-122333021D01*
X95958327Y-122333021D01*
X95958327Y-122181478D01*
X95958327Y-122029935D01*
X96261414Y-122029935D01*
X96564501Y-122029935D01*
X96564501Y-122181478D01*
X96564501Y-122333021D01*
X97322219Y-122333021D01*
X98079936Y-122333021D01*
X98079936Y-122484565D01*
X98079936Y-122636108D01*
X98231479Y-122636108D01*
X98383023Y-122636108D01*
X98383023Y-122484565D01*
X98383023Y-122333021D01*
X98534566Y-122333021D01*
X98686110Y-122333021D01*
X98686110Y-121878391D01*
X98686110Y-121423761D01*
X98534566Y-121423761D01*
X98383023Y-121423761D01*
X98383023Y-121726848D01*
X98383023Y-122029935D01*
X98231479Y-122029935D01*
X98079936Y-122029935D01*
X98079936Y-121575304D01*
X98079936Y-121120674D01*
X98231479Y-121120674D01*
X98383023Y-121120674D01*
X98383023Y-120969130D01*
X98383023Y-120817587D01*
X98231479Y-120817587D01*
X98079936Y-120817587D01*
X98079936Y-120514500D01*
X98079936Y-120211413D01*
X98231479Y-120211413D01*
X98383023Y-120211413D01*
X98383023Y-120362957D01*
X98383023Y-120514500D01*
X98534566Y-120514500D01*
X98686110Y-120514500D01*
X98686110Y-120817587D01*
X98686110Y-121120674D01*
X98837653Y-121120674D01*
X98989196Y-121120674D01*
X98989196Y-121423761D01*
X98989196Y-121726848D01*
X99140740Y-121726848D01*
X99292283Y-121726848D01*
X99292283Y-121423761D01*
X99292283Y-121120674D01*
X99595370Y-121120674D01*
X99898457Y-121120674D01*
X99898457Y-120969130D01*
X99898457Y-120817587D01*
X100050001Y-120817587D01*
X100201544Y-120817587D01*
X100201544Y-120969130D01*
X100201544Y-121120674D01*
X100353088Y-121120674D01*
X100504631Y-121120674D01*
X100504631Y-120969130D01*
X100504631Y-120817587D01*
X100353088Y-120817587D01*
X100201544Y-120817587D01*
X100201544Y-120362957D01*
X100201544Y-119908326D01*
X99898457Y-119908326D01*
X99595370Y-119908326D01*
X99595370Y-119756783D01*
X99595370Y-119605239D01*
X99898457Y-119605239D01*
X100201544Y-119605239D01*
X100201544Y-119756783D01*
X100201544Y-119908326D01*
X100353088Y-119908326D01*
X100504631Y-119908326D01*
X100504631Y-119756783D01*
X100504631Y-119605239D01*
X100656174Y-119605239D01*
X100807718Y-119605239D01*
X100807718Y-119756783D01*
X100807718Y-119908326D01*
X100656174Y-119908326D01*
X100504631Y-119908326D01*
X100504631Y-120362957D01*
X100504631Y-120817587D01*
X100807718Y-120817587D01*
X101110805Y-120817587D01*
X101110805Y-120666043D01*
X101110805Y-120514500D01*
X100959261Y-120514500D01*
X100807718Y-120514500D01*
X100807718Y-120211413D01*
X100807718Y-119908326D01*
X101110805Y-119908326D01*
X101413892Y-119908326D01*
X101413892Y-120059870D01*
X101413892Y-120211413D01*
X101565435Y-120211413D01*
X101716979Y-120211413D01*
X101716979Y-120059870D01*
X101716979Y-119908326D01*
X101868522Y-119908326D01*
X102020065Y-119908326D01*
X102020065Y-120211413D01*
X102020065Y-120514500D01*
X101868522Y-120514500D01*
X101716979Y-120514500D01*
X101716979Y-120666043D01*
X101716979Y-120817587D01*
X101565435Y-120817587D01*
X101413892Y-120817587D01*
X101413892Y-120969130D01*
X101413892Y-121120674D01*
X100959261Y-121120674D01*
X100504631Y-121120674D01*
X100504631Y-121272217D01*
X100504631Y-121423761D01*
X100353088Y-121423761D01*
X100201544Y-121423761D01*
X100201544Y-121575304D01*
X100201544Y-121726848D01*
X100050001Y-121726848D01*
X99898457Y-121726848D01*
X99898457Y-121575304D01*
X99898457Y-121423761D01*
X99746914Y-121423761D01*
X99595370Y-121423761D01*
X99595370Y-121726848D01*
X99595370Y-122029935D01*
X99292283Y-122029935D01*
X98989196Y-122029935D01*
X98989196Y-122181478D01*
X98989196Y-122333021D01*
X99140740Y-122333021D01*
X99292283Y-122333021D01*
X99292283Y-122484565D01*
X99292283Y-122636108D01*
X99443827Y-122636108D01*
X99595370Y-122636108D01*
X99595370Y-122484565D01*
X99898457Y-122484565D01*
X99898457Y-122636108D01*
X100050001Y-122636108D01*
X100201544Y-122636108D01*
X100201544Y-122484565D01*
X100201544Y-122333021D01*
X100050001Y-122333021D01*
X99898457Y-122333021D01*
X99898457Y-122484565D01*
X99595370Y-122484565D01*
X99595370Y-122333021D01*
X99595370Y-122029935D01*
X99898457Y-122029935D01*
X100201544Y-122029935D01*
X100201544Y-122181478D01*
X100201544Y-122333021D01*
X100353088Y-122333021D01*
X100504631Y-122333021D01*
X100807718Y-122333021D01*
X100807718Y-122484565D01*
X100807718Y-122636108D01*
X100959261Y-122636108D01*
X101110805Y-122636108D01*
X101110805Y-122484565D01*
X101110805Y-122333021D01*
X100959261Y-122333021D01*
X100807718Y-122333021D01*
X100504631Y-122333021D01*
X100504631Y-122181478D01*
X100504631Y-122029935D01*
X100656174Y-122029935D01*
X100807718Y-122029935D01*
X100807718Y-121878391D01*
X100807718Y-121726848D01*
X100959261Y-121726848D01*
X101110805Y-121726848D01*
X101110805Y-121575304D01*
X101110805Y-121423761D01*
X101262348Y-121423761D01*
X101413892Y-121423761D01*
X101413892Y-121575304D01*
X101413892Y-121726848D01*
X101262348Y-121726848D01*
X101110805Y-121726848D01*
X101110805Y-122029935D01*
X101110805Y-122333021D01*
X101262348Y-122333021D01*
X101413892Y-122333021D01*
X101413892Y-122181478D01*
X101413892Y-122029935D01*
X101565435Y-122029935D01*
X101716979Y-122029935D01*
X101716979Y-122181478D01*
X101716979Y-122333021D01*
X101565435Y-122333021D01*
X101413892Y-122333021D01*
X101413892Y-122484565D01*
X101413892Y-122636108D01*
G37*
G36*
X100656174Y-121423761D02*
G01*
X100807718Y-121423761D01*
X100807718Y-121575304D01*
X100807718Y-121726848D01*
X100656174Y-121726848D01*
X100504631Y-121726848D01*
X100504631Y-121575304D01*
X100504631Y-121423761D01*
X100656174Y-121423761D01*
G37*
%TD*%
%LPC*%
D18*
%TO.C,H101*%
X84000000Y-94000000D03*
%TD*%
D19*
%TO.C,J301*%
X177795000Y-109720000D03*
D20*
X177795000Y-107180000D03*
X177795000Y-104640000D03*
X177795000Y-102100000D03*
%TD*%
D21*
%TO.C,H105*%
X155000000Y-99000000D03*
%TD*%
D22*
%TO.C,J101*%
X151730000Y-136650000D03*
D23*
X154230000Y-136650000D03*
X156730000Y-136650000D03*
X159230000Y-136650000D03*
X161730000Y-136650000D03*
X164230000Y-136650000D03*
X166730000Y-136650000D03*
X169230000Y-136650000D03*
%TD*%
D21*
%TO.C,H106*%
X105000000Y-99000000D03*
%TD*%
%TO.C,H103*%
X176000000Y-136000000D03*
%TD*%
%TO.C,H104*%
X176000000Y-94000000D03*
%TD*%
%TO.C,H102*%
X84000000Y-136000000D03*
%TD*%
D24*
%TO.C,J201*%
X110950000Y-94475000D03*
X110950000Y-99525000D03*
X113490000Y-94475000D03*
X113490000Y-99525000D03*
X116030000Y-94475000D03*
X116030000Y-99525000D03*
X118570000Y-94475000D03*
X118570000Y-99525000D03*
X121110000Y-94475000D03*
X121110000Y-99525000D03*
X123650000Y-94475000D03*
X123650000Y-99525000D03*
X126190000Y-94475000D03*
X126190000Y-99525000D03*
X128730000Y-94475000D03*
X128730000Y-99525000D03*
X131270000Y-94475000D03*
X131270000Y-99525000D03*
X133810000Y-94475000D03*
X133810000Y-99525000D03*
X136350000Y-94475000D03*
X136350000Y-99525000D03*
X138890000Y-94475000D03*
X138890000Y-99525000D03*
X141430000Y-94475000D03*
X141430000Y-99525000D03*
X143970000Y-94475000D03*
X143970000Y-99525000D03*
X146510000Y-94475000D03*
X146510000Y-99525000D03*
X149050000Y-94475000D03*
X149050000Y-99525000D03*
%TD*%
%LPD*%
M02*
