%TF.GenerationSoftware,KiCad,Pcbnew,10.0.1*%
%TF.CreationDate,2026-08-08T14:57:53+02:00*%
%TF.ProjectId,MMS3_hat_air_quality,4d4d5333-5f68-4617-945f-6169725f7175,V1.0*%
%TF.SameCoordinates,Original*%
%TF.FileFunction,Soldermask,Bot*%
%TF.FilePolarity,Negative*%
%FSLAX46Y46*%
G04 Gerber Fmt 4.6, Leading zero omitted, Abs format (unit mm)*
G04 Created by KiCad (PCBNEW 10.0.1) date 2026-08-08 14:57:53*
%MOMM*%
%LPD*%
G01*
G04 APERTURE LIST*
G04 Aperture macros list*
%AMRoundRect*
0 Rectangle with rounded corners*
0 $1 Rounding radius*
0 $2 $3 $4 $5 $6 $7 $8 $9 X,Y pos of 4 corners*
0 Add a 4 corners polygon primitive as box body*
4,1,4,$2,$3,$4,$5,$6,$7,$8,$9,$2,$3,0*
0 Add four circle primitives for the rounded corners*
1,1,$1+$1,$2,$3*
1,1,$1+$1,$4,$5*
1,1,$1+$1,$6,$7*
1,1,$1+$1,$8,$9*
0 Add four rect primitives between the rounded corners*
20,1,$1+$1,$2,$3,$4,$5,0*
20,1,$1+$1,$4,$5,$6,$7,0*
20,1,$1+$1,$6,$7,$8,$9,0*
20,1,$1+$1,$8,$9,$2,$3,0*%
G04 Aperture macros list end*
%ADD10C,3.100000*%
%ADD11R,1.700000X1.700000*%
%ADD12C,1.700000*%
%ADD13C,2.700000*%
%ADD14RoundRect,0.250000X-0.600000X-0.725000X0.600000X-0.725000X0.600000X0.725000X-0.600000X0.725000X0*%
%ADD15O,1.700000X1.950000*%
%ADD16R,1.000000X3.150000*%
G04 APERTURE END LIST*
D10*
%TO.C,H101*%
X84000000Y-94000000D03*
%TD*%
D11*
%TO.C,J301*%
X177795000Y-109720000D03*
D12*
X177795000Y-107180000D03*
X177795000Y-104640000D03*
X177795000Y-102100000D03*
%TD*%
D13*
%TO.C,H105*%
X155000000Y-99000000D03*
%TD*%
D14*
%TO.C,J101*%
X151730000Y-136650000D03*
D15*
X154230000Y-136650000D03*
X156730000Y-136650000D03*
X159230000Y-136650000D03*
X161730000Y-136650000D03*
X164230000Y-136650000D03*
X166730000Y-136650000D03*
X169230000Y-136650000D03*
%TD*%
D13*
%TO.C,H106*%
X105000000Y-99000000D03*
%TD*%
%TO.C,H103*%
X176000000Y-136000000D03*
%TD*%
%TO.C,H104*%
X176000000Y-94000000D03*
%TD*%
%TO.C,H102*%
X84000000Y-136000000D03*
%TD*%
D16*
%TO.C,J201*%
X110950000Y-94475000D03*
X110950000Y-99525000D03*
X113490000Y-94475000D03*
X113490000Y-99525000D03*
X116030000Y-94475000D03*
X116030000Y-99525000D03*
X118570000Y-94475000D03*
X118570000Y-99525000D03*
X121110000Y-94475000D03*
X121110000Y-99525000D03*
X123650000Y-94475000D03*
X123650000Y-99525000D03*
X126190000Y-94475000D03*
X126190000Y-99525000D03*
X128730000Y-94475000D03*
X128730000Y-99525000D03*
X131270000Y-94475000D03*
X131270000Y-99525000D03*
X133810000Y-94475000D03*
X133810000Y-99525000D03*
X136350000Y-94475000D03*
X136350000Y-99525000D03*
X138890000Y-94475000D03*
X138890000Y-99525000D03*
X141430000Y-94475000D03*
X141430000Y-99525000D03*
X143970000Y-94475000D03*
X143970000Y-99525000D03*
X146510000Y-94475000D03*
X146510000Y-99525000D03*
X149050000Y-94475000D03*
X149050000Y-99525000D03*
%TD*%
M02*
