%TF.GenerationSoftware,KiCad,Pcbnew,10.0.1*%
%TF.CreationDate,2026-08-07T23:08:30+02:00*%
%TF.ProjectId,MMS3_hat_air_quality,4d4d5333-5f68-4617-945f-6169725f7175,V1.0*%
%TF.SameCoordinates,Original*%
%TF.FileFunction,Legend,Top*%
%TF.FilePolarity,Positive*%
%FSLAX46Y46*%
G04 Gerber Fmt 4.6, Leading zero omitted, Abs format (unit mm)*
G04 Created by KiCad (PCBNEW 10.0.1) date 2026-08-07 23:08:30*
%MOMM*%
%LPD*%
G01*
G04 APERTURE LIST*
G04 Aperture macros list*
%AMRoundRect*
0 Rectangle with rounded corners*
0 $1 Rounding radius*
0 $2 $3 $4 $5 $6 $7 $8 $9 X,Y pos of 4 corners*
0 Add a 4 corners polygon primitive as box body*
4,1,4,$2,$3,$4,$5,$6,$7,$8,$9,$2,$3,0*
0 Add four circle primitives for the rounded corners*
1,1,$1+$1,$2,$3*
1,1,$1+$1,$4,$5*
1,1,$1+$1,$6,$7*
1,1,$1+$1,$8,$9*
0 Add four rect primitives between the rounded corners*
20,1,$1+$1,$2,$3,$4,$5,0*
20,1,$1+$1,$4,$5,$6,$7,0*
20,1,$1+$1,$6,$7,$8,$9,0*
20,1,$1+$1,$8,$9,$2,$3,0*%
G04 Aperture macros list end*
%ADD10C,0.200000*%
%ADD11C,0.400000*%
%ADD12C,0.100000*%
%ADD13C,1.200000*%
%ADD14C,0.270000*%
%ADD15C,0.150000*%
%ADD16C,0.120000*%
%ADD17C,0.127000*%
%ADD18C,0.250000*%
%ADD19C,0.060000*%
%ADD20C,0.010000*%
%ADD21RoundRect,0.244000X0.244000X0.269000X-0.244000X0.269000X-0.244000X-0.269000X0.244000X-0.269000X0*%
%ADD22RoundRect,0.125000X-0.125000X-0.137500X0.125000X-0.137500X0.125000X0.137500X-0.125000X0.137500X0*%
%ADD23RoundRect,0.244000X-0.269000X0.244000X-0.269000X-0.244000X0.269000X-0.244000X0.269000X0.244000X0*%
%ADD24RoundRect,0.100000X-0.100000X0.637500X-0.100000X-0.637500X0.100000X-0.637500X0.100000X0.637500X0*%
%ADD25RoundRect,0.244000X-0.244000X-0.269000X0.244000X-0.269000X0.244000X0.269000X-0.244000X0.269000X0*%
%ADD26RoundRect,0.219000X-0.294000X0.219000X-0.294000X-0.219000X0.294000X-0.219000X0.294000X0.219000X0*%
%ADD27RoundRect,0.250000X-1.000000X-0.300000X1.000000X-0.300000X1.000000X0.300000X-1.000000X0.300000X0*%
%ADD28C,0.500000*%
%ADD29RoundRect,0.250000X-0.920000X-1.550000X0.920000X-1.550000X0.920000X1.550000X-0.920000X1.550000X0*%
%ADD30C,3.100000*%
%ADD31C,4.700000*%
%ADD32R,1.100000X0.250000*%
%ADD33R,1.000000X3.000000*%
%ADD34RoundRect,0.219000X0.219000X0.294000X-0.219000X0.294000X-0.219000X-0.294000X0.219000X-0.294000X0*%
%ADD35RoundRect,1.000000X-1.000000X-1.000000X1.000000X-1.000000X1.000000X1.000000X-1.000000X1.000000X0*%
%ADD36RoundRect,0.450000X-0.450000X-1.300000X0.450000X-1.300000X0.450000X1.300000X-0.450000X1.300000X0*%
%ADD37RoundRect,0.219000X-0.219000X-0.294000X0.219000X-0.294000X0.219000X0.294000X-0.219000X0.294000X0*%
%ADD38R,1.700000X1.700000*%
%ADD39C,1.700000*%
%ADD40O,0.570000X1.950000*%
%ADD41RoundRect,0.102000X-0.275000X-0.200000X0.275000X-0.200000X0.275000X0.200000X-0.275000X0.200000X0*%
%ADD42RoundRect,0.239000X-0.239000X-0.274000X0.239000X-0.274000X0.239000X0.274000X-0.239000X0.274000X0*%
%ADD43C,2.700000*%
%ADD44RoundRect,0.250000X-0.600000X-0.725000X0.600000X-0.725000X0.600000X0.725000X-0.600000X0.725000X0*%
%ADD45O,1.700000X1.950000*%
%ADD46RoundRect,0.244000X0.269000X-0.244000X0.269000X0.244000X-0.269000X0.244000X-0.269000X-0.244000X0*%
%ADD47R,0.900000X0.850000*%
%ADD48RoundRect,0.212500X-0.737500X-0.212500X0.737500X-0.212500X0.737500X0.212500X-0.737500X0.212500X0*%
%ADD49RoundRect,0.212500X-0.212500X-0.737500X0.212500X-0.737500X0.212500X0.737500X-0.212500X0.737500X0*%
%ADD50RoundRect,0.250000X-2.150000X-2.150000X2.150000X-2.150000X2.150000X2.150000X-2.150000X2.150000X0*%
G04 APERTURE END LIST*
D10*
X115661905Y-118381504D02*
X116138095Y-118381504D01*
X115566667Y-118667219D02*
X115900000Y-117667219D01*
X115900000Y-117667219D02*
X116233333Y-118667219D01*
X116566667Y-118667219D02*
X116566667Y-117667219D01*
X116566667Y-117667219D02*
X116804762Y-117667219D01*
X116804762Y-117667219D02*
X116947619Y-117714838D01*
X116947619Y-117714838D02*
X117042857Y-117810076D01*
X117042857Y-117810076D02*
X117090476Y-117905314D01*
X117090476Y-117905314D02*
X117138095Y-118095790D01*
X117138095Y-118095790D02*
X117138095Y-118238647D01*
X117138095Y-118238647D02*
X117090476Y-118429123D01*
X117090476Y-118429123D02*
X117042857Y-118524361D01*
X117042857Y-118524361D02*
X116947619Y-118619600D01*
X116947619Y-118619600D02*
X116804762Y-118667219D01*
X116804762Y-118667219D02*
X116566667Y-118667219D01*
X118138095Y-118571980D02*
X118090476Y-118619600D01*
X118090476Y-118619600D02*
X117947619Y-118667219D01*
X117947619Y-118667219D02*
X117852381Y-118667219D01*
X117852381Y-118667219D02*
X117709524Y-118619600D01*
X117709524Y-118619600D02*
X117614286Y-118524361D01*
X117614286Y-118524361D02*
X117566667Y-118429123D01*
X117566667Y-118429123D02*
X117519048Y-118238647D01*
X117519048Y-118238647D02*
X117519048Y-118095790D01*
X117519048Y-118095790D02*
X117566667Y-117905314D01*
X117566667Y-117905314D02*
X117614286Y-117810076D01*
X117614286Y-117810076D02*
X117709524Y-117714838D01*
X117709524Y-117714838D02*
X117852381Y-117667219D01*
X117852381Y-117667219D02*
X117947619Y-117667219D01*
X117947619Y-117667219D02*
X118090476Y-117714838D01*
X118090476Y-117714838D02*
X118138095Y-117762457D01*
X84150000Y-103982331D02*
X84150000Y-102982331D01*
X84150000Y-102982331D02*
X84483333Y-103696616D01*
X84483333Y-103696616D02*
X84816666Y-102982331D01*
X84816666Y-102982331D02*
X84816666Y-103982331D01*
X85292857Y-103982331D02*
X85292857Y-102982331D01*
X85292857Y-102982331D02*
X85626190Y-103696616D01*
X85626190Y-103696616D02*
X85959523Y-102982331D01*
X85959523Y-102982331D02*
X85959523Y-103982331D01*
X86388095Y-103934712D02*
X86530952Y-103982331D01*
X86530952Y-103982331D02*
X86769047Y-103982331D01*
X86769047Y-103982331D02*
X86864285Y-103934712D01*
X86864285Y-103934712D02*
X86911904Y-103887092D01*
X86911904Y-103887092D02*
X86959523Y-103791854D01*
X86959523Y-103791854D02*
X86959523Y-103696616D01*
X86959523Y-103696616D02*
X86911904Y-103601378D01*
X86911904Y-103601378D02*
X86864285Y-103553759D01*
X86864285Y-103553759D02*
X86769047Y-103506140D01*
X86769047Y-103506140D02*
X86578571Y-103458521D01*
X86578571Y-103458521D02*
X86483333Y-103410902D01*
X86483333Y-103410902D02*
X86435714Y-103363283D01*
X86435714Y-103363283D02*
X86388095Y-103268045D01*
X86388095Y-103268045D02*
X86388095Y-103172807D01*
X86388095Y-103172807D02*
X86435714Y-103077569D01*
X86435714Y-103077569D02*
X86483333Y-103029950D01*
X86483333Y-103029950D02*
X86578571Y-102982331D01*
X86578571Y-102982331D02*
X86816666Y-102982331D01*
X86816666Y-102982331D02*
X86959523Y-103029950D01*
X87292857Y-102982331D02*
X87911904Y-102982331D01*
X87911904Y-102982331D02*
X87578571Y-103363283D01*
X87578571Y-103363283D02*
X87721428Y-103363283D01*
X87721428Y-103363283D02*
X87816666Y-103410902D01*
X87816666Y-103410902D02*
X87864285Y-103458521D01*
X87864285Y-103458521D02*
X87911904Y-103553759D01*
X87911904Y-103553759D02*
X87911904Y-103791854D01*
X87911904Y-103791854D02*
X87864285Y-103887092D01*
X87864285Y-103887092D02*
X87816666Y-103934712D01*
X87816666Y-103934712D02*
X87721428Y-103982331D01*
X87721428Y-103982331D02*
X87435714Y-103982331D01*
X87435714Y-103982331D02*
X87340476Y-103934712D01*
X87340476Y-103934712D02*
X87292857Y-103887092D01*
X89102381Y-103982331D02*
X89102381Y-102982331D01*
X89102381Y-103458521D02*
X89673809Y-103458521D01*
X89673809Y-103982331D02*
X89673809Y-102982331D01*
X90578571Y-103982331D02*
X90578571Y-103458521D01*
X90578571Y-103458521D02*
X90530952Y-103363283D01*
X90530952Y-103363283D02*
X90435714Y-103315664D01*
X90435714Y-103315664D02*
X90245238Y-103315664D01*
X90245238Y-103315664D02*
X90150000Y-103363283D01*
X90578571Y-103934712D02*
X90483333Y-103982331D01*
X90483333Y-103982331D02*
X90245238Y-103982331D01*
X90245238Y-103982331D02*
X90150000Y-103934712D01*
X90150000Y-103934712D02*
X90102381Y-103839473D01*
X90102381Y-103839473D02*
X90102381Y-103744235D01*
X90102381Y-103744235D02*
X90150000Y-103648997D01*
X90150000Y-103648997D02*
X90245238Y-103601378D01*
X90245238Y-103601378D02*
X90483333Y-103601378D01*
X90483333Y-103601378D02*
X90578571Y-103553759D01*
X90911905Y-103315664D02*
X91292857Y-103315664D01*
X91054762Y-102982331D02*
X91054762Y-103839473D01*
X91054762Y-103839473D02*
X91102381Y-103934712D01*
X91102381Y-103934712D02*
X91197619Y-103982331D01*
X91197619Y-103982331D02*
X91292857Y-103982331D01*
X83888095Y-105306560D02*
X84364285Y-105306560D01*
X83792857Y-105592275D02*
X84126190Y-104592275D01*
X84126190Y-104592275D02*
X84459523Y-105592275D01*
X84792857Y-105592275D02*
X84792857Y-104925608D01*
X84792857Y-104592275D02*
X84745238Y-104639894D01*
X84745238Y-104639894D02*
X84792857Y-104687513D01*
X84792857Y-104687513D02*
X84840476Y-104639894D01*
X84840476Y-104639894D02*
X84792857Y-104592275D01*
X84792857Y-104592275D02*
X84792857Y-104687513D01*
X85269047Y-105592275D02*
X85269047Y-104925608D01*
X85269047Y-105116084D02*
X85316666Y-105020846D01*
X85316666Y-105020846D02*
X85364285Y-104973227D01*
X85364285Y-104973227D02*
X85459523Y-104925608D01*
X85459523Y-104925608D02*
X85554761Y-104925608D01*
X87316666Y-105687513D02*
X87221428Y-105639894D01*
X87221428Y-105639894D02*
X87126190Y-105544656D01*
X87126190Y-105544656D02*
X86983333Y-105401798D01*
X86983333Y-105401798D02*
X86888095Y-105354179D01*
X86888095Y-105354179D02*
X86792857Y-105354179D01*
X86840476Y-105592275D02*
X86745238Y-105544656D01*
X86745238Y-105544656D02*
X86650000Y-105449417D01*
X86650000Y-105449417D02*
X86602381Y-105258941D01*
X86602381Y-105258941D02*
X86602381Y-104925608D01*
X86602381Y-104925608D02*
X86650000Y-104735132D01*
X86650000Y-104735132D02*
X86745238Y-104639894D01*
X86745238Y-104639894D02*
X86840476Y-104592275D01*
X86840476Y-104592275D02*
X87030952Y-104592275D01*
X87030952Y-104592275D02*
X87126190Y-104639894D01*
X87126190Y-104639894D02*
X87221428Y-104735132D01*
X87221428Y-104735132D02*
X87269047Y-104925608D01*
X87269047Y-104925608D02*
X87269047Y-105258941D01*
X87269047Y-105258941D02*
X87221428Y-105449417D01*
X87221428Y-105449417D02*
X87126190Y-105544656D01*
X87126190Y-105544656D02*
X87030952Y-105592275D01*
X87030952Y-105592275D02*
X86840476Y-105592275D01*
X88126190Y-104925608D02*
X88126190Y-105592275D01*
X87697619Y-104925608D02*
X87697619Y-105449417D01*
X87697619Y-105449417D02*
X87745238Y-105544656D01*
X87745238Y-105544656D02*
X87840476Y-105592275D01*
X87840476Y-105592275D02*
X87983333Y-105592275D01*
X87983333Y-105592275D02*
X88078571Y-105544656D01*
X88078571Y-105544656D02*
X88126190Y-105497036D01*
X89030952Y-105592275D02*
X89030952Y-105068465D01*
X89030952Y-105068465D02*
X88983333Y-104973227D01*
X88983333Y-104973227D02*
X88888095Y-104925608D01*
X88888095Y-104925608D02*
X88697619Y-104925608D01*
X88697619Y-104925608D02*
X88602381Y-104973227D01*
X89030952Y-105544656D02*
X88935714Y-105592275D01*
X88935714Y-105592275D02*
X88697619Y-105592275D01*
X88697619Y-105592275D02*
X88602381Y-105544656D01*
X88602381Y-105544656D02*
X88554762Y-105449417D01*
X88554762Y-105449417D02*
X88554762Y-105354179D01*
X88554762Y-105354179D02*
X88602381Y-105258941D01*
X88602381Y-105258941D02*
X88697619Y-105211322D01*
X88697619Y-105211322D02*
X88935714Y-105211322D01*
X88935714Y-105211322D02*
X89030952Y-105163703D01*
X89650000Y-105592275D02*
X89554762Y-105544656D01*
X89554762Y-105544656D02*
X89507143Y-105449417D01*
X89507143Y-105449417D02*
X89507143Y-104592275D01*
X90030953Y-105592275D02*
X90030953Y-104925608D01*
X90030953Y-104592275D02*
X89983334Y-104639894D01*
X89983334Y-104639894D02*
X90030953Y-104687513D01*
X90030953Y-104687513D02*
X90078572Y-104639894D01*
X90078572Y-104639894D02*
X90030953Y-104592275D01*
X90030953Y-104592275D02*
X90030953Y-104687513D01*
X90364286Y-104925608D02*
X90745238Y-104925608D01*
X90507143Y-104592275D02*
X90507143Y-105449417D01*
X90507143Y-105449417D02*
X90554762Y-105544656D01*
X90554762Y-105544656D02*
X90650000Y-105592275D01*
X90650000Y-105592275D02*
X90745238Y-105592275D01*
X90983334Y-104925608D02*
X91221429Y-105592275D01*
X91459524Y-104925608D02*
X91221429Y-105592275D01*
X91221429Y-105592275D02*
X91126191Y-105830370D01*
X91126191Y-105830370D02*
X91078572Y-105877989D01*
X91078572Y-105877989D02*
X90983334Y-105925608D01*
X84530952Y-107202219D02*
X84530952Y-106202219D01*
X84530952Y-106202219D02*
X84864285Y-106916504D01*
X84864285Y-106916504D02*
X85197618Y-106202219D01*
X85197618Y-106202219D02*
X85197618Y-107202219D01*
X86102380Y-107202219D02*
X86102380Y-106678409D01*
X86102380Y-106678409D02*
X86054761Y-106583171D01*
X86054761Y-106583171D02*
X85959523Y-106535552D01*
X85959523Y-106535552D02*
X85769047Y-106535552D01*
X85769047Y-106535552D02*
X85673809Y-106583171D01*
X86102380Y-107154600D02*
X86007142Y-107202219D01*
X86007142Y-107202219D02*
X85769047Y-107202219D01*
X85769047Y-107202219D02*
X85673809Y-107154600D01*
X85673809Y-107154600D02*
X85626190Y-107059361D01*
X85626190Y-107059361D02*
X85626190Y-106964123D01*
X85626190Y-106964123D02*
X85673809Y-106868885D01*
X85673809Y-106868885D02*
X85769047Y-106821266D01*
X85769047Y-106821266D02*
X86007142Y-106821266D01*
X86007142Y-106821266D02*
X86102380Y-106773647D01*
X87007142Y-107202219D02*
X87007142Y-106202219D01*
X87007142Y-107154600D02*
X86911904Y-107202219D01*
X86911904Y-107202219D02*
X86721428Y-107202219D01*
X86721428Y-107202219D02*
X86626190Y-107154600D01*
X86626190Y-107154600D02*
X86578571Y-107106980D01*
X86578571Y-107106980D02*
X86530952Y-107011742D01*
X86530952Y-107011742D02*
X86530952Y-106726028D01*
X86530952Y-106726028D02*
X86578571Y-106630790D01*
X86578571Y-106630790D02*
X86626190Y-106583171D01*
X86626190Y-106583171D02*
X86721428Y-106535552D01*
X86721428Y-106535552D02*
X86911904Y-106535552D01*
X86911904Y-106535552D02*
X87007142Y-106583171D01*
X87864285Y-107154600D02*
X87769047Y-107202219D01*
X87769047Y-107202219D02*
X87578571Y-107202219D01*
X87578571Y-107202219D02*
X87483333Y-107154600D01*
X87483333Y-107154600D02*
X87435714Y-107059361D01*
X87435714Y-107059361D02*
X87435714Y-106678409D01*
X87435714Y-106678409D02*
X87483333Y-106583171D01*
X87483333Y-106583171D02*
X87578571Y-106535552D01*
X87578571Y-106535552D02*
X87769047Y-106535552D01*
X87769047Y-106535552D02*
X87864285Y-106583171D01*
X87864285Y-106583171D02*
X87911904Y-106678409D01*
X87911904Y-106678409D02*
X87911904Y-106773647D01*
X87911904Y-106773647D02*
X87435714Y-106868885D01*
X89102381Y-107202219D02*
X89102381Y-106202219D01*
X89102381Y-106583171D02*
X89197619Y-106535552D01*
X89197619Y-106535552D02*
X89388095Y-106535552D01*
X89388095Y-106535552D02*
X89483333Y-106583171D01*
X89483333Y-106583171D02*
X89530952Y-106630790D01*
X89530952Y-106630790D02*
X89578571Y-106726028D01*
X89578571Y-106726028D02*
X89578571Y-107011742D01*
X89578571Y-107011742D02*
X89530952Y-107106980D01*
X89530952Y-107106980D02*
X89483333Y-107154600D01*
X89483333Y-107154600D02*
X89388095Y-107202219D01*
X89388095Y-107202219D02*
X89197619Y-107202219D01*
X89197619Y-107202219D02*
X89102381Y-107154600D01*
X89911905Y-106535552D02*
X90150000Y-107202219D01*
X90388095Y-106535552D02*
X90150000Y-107202219D01*
X90150000Y-107202219D02*
X90054762Y-107440314D01*
X90054762Y-107440314D02*
X90007143Y-107487933D01*
X90007143Y-107487933D02*
X89911905Y-107535552D01*
X90769048Y-107106980D02*
X90816667Y-107154600D01*
X90816667Y-107154600D02*
X90769048Y-107202219D01*
X90769048Y-107202219D02*
X90721429Y-107154600D01*
X90721429Y-107154600D02*
X90769048Y-107106980D01*
X90769048Y-107106980D02*
X90769048Y-107202219D01*
X90769048Y-106583171D02*
X90816667Y-106630790D01*
X90816667Y-106630790D02*
X90769048Y-106678409D01*
X90769048Y-106678409D02*
X90721429Y-106630790D01*
X90721429Y-106630790D02*
X90769048Y-106583171D01*
X90769048Y-106583171D02*
X90769048Y-106678409D01*
X84316667Y-107812163D02*
X84554762Y-108812163D01*
X84554762Y-108812163D02*
X84745238Y-108097877D01*
X84745238Y-108097877D02*
X84935714Y-108812163D01*
X84935714Y-108812163D02*
X85173810Y-107812163D01*
X85697619Y-108812163D02*
X85602381Y-108764544D01*
X85602381Y-108764544D02*
X85554762Y-108716924D01*
X85554762Y-108716924D02*
X85507143Y-108621686D01*
X85507143Y-108621686D02*
X85507143Y-108335972D01*
X85507143Y-108335972D02*
X85554762Y-108240734D01*
X85554762Y-108240734D02*
X85602381Y-108193115D01*
X85602381Y-108193115D02*
X85697619Y-108145496D01*
X85697619Y-108145496D02*
X85840476Y-108145496D01*
X85840476Y-108145496D02*
X85935714Y-108193115D01*
X85935714Y-108193115D02*
X85983333Y-108240734D01*
X85983333Y-108240734D02*
X86030952Y-108335972D01*
X86030952Y-108335972D02*
X86030952Y-108621686D01*
X86030952Y-108621686D02*
X85983333Y-108716924D01*
X85983333Y-108716924D02*
X85935714Y-108764544D01*
X85935714Y-108764544D02*
X85840476Y-108812163D01*
X85840476Y-108812163D02*
X85697619Y-108812163D01*
X86459524Y-108145496D02*
X86459524Y-109002639D01*
X86459524Y-109002639D02*
X86411905Y-109097877D01*
X86411905Y-109097877D02*
X86316667Y-109145496D01*
X86316667Y-109145496D02*
X86269048Y-109145496D01*
X86459524Y-107812163D02*
X86411905Y-107859782D01*
X86411905Y-107859782D02*
X86459524Y-107907401D01*
X86459524Y-107907401D02*
X86507143Y-107859782D01*
X86507143Y-107859782D02*
X86459524Y-107812163D01*
X86459524Y-107812163D02*
X86459524Y-107907401D01*
X86792857Y-108145496D02*
X87173809Y-108145496D01*
X86935714Y-107812163D02*
X86935714Y-108669305D01*
X86935714Y-108669305D02*
X86983333Y-108764544D01*
X86983333Y-108764544D02*
X87078571Y-108812163D01*
X87078571Y-108812163D02*
X87173809Y-108812163D01*
X87888095Y-108764544D02*
X87792857Y-108812163D01*
X87792857Y-108812163D02*
X87602381Y-108812163D01*
X87602381Y-108812163D02*
X87507143Y-108764544D01*
X87507143Y-108764544D02*
X87459524Y-108669305D01*
X87459524Y-108669305D02*
X87459524Y-108288353D01*
X87459524Y-108288353D02*
X87507143Y-108193115D01*
X87507143Y-108193115D02*
X87602381Y-108145496D01*
X87602381Y-108145496D02*
X87792857Y-108145496D01*
X87792857Y-108145496D02*
X87888095Y-108193115D01*
X87888095Y-108193115D02*
X87935714Y-108288353D01*
X87935714Y-108288353D02*
X87935714Y-108383591D01*
X87935714Y-108383591D02*
X87459524Y-108478829D01*
X88364286Y-108812163D02*
X88364286Y-107812163D01*
X88459524Y-108431210D02*
X88745238Y-108812163D01*
X88745238Y-108145496D02*
X88364286Y-108526448D01*
X89888096Y-108764544D02*
X90030953Y-108812163D01*
X90030953Y-108812163D02*
X90269048Y-108812163D01*
X90269048Y-108812163D02*
X90364286Y-108764544D01*
X90364286Y-108764544D02*
X90411905Y-108716924D01*
X90411905Y-108716924D02*
X90459524Y-108621686D01*
X90459524Y-108621686D02*
X90459524Y-108526448D01*
X90459524Y-108526448D02*
X90411905Y-108431210D01*
X90411905Y-108431210D02*
X90364286Y-108383591D01*
X90364286Y-108383591D02*
X90269048Y-108335972D01*
X90269048Y-108335972D02*
X90078572Y-108288353D01*
X90078572Y-108288353D02*
X89983334Y-108240734D01*
X89983334Y-108240734D02*
X89935715Y-108193115D01*
X89935715Y-108193115D02*
X89888096Y-108097877D01*
X89888096Y-108097877D02*
X89888096Y-108002639D01*
X89888096Y-108002639D02*
X89935715Y-107907401D01*
X89935715Y-107907401D02*
X89983334Y-107859782D01*
X89983334Y-107859782D02*
X90078572Y-107812163D01*
X90078572Y-107812163D02*
X90316667Y-107812163D01*
X90316667Y-107812163D02*
X90459524Y-107859782D01*
X90888096Y-108716924D02*
X90935715Y-108764544D01*
X90935715Y-108764544D02*
X90888096Y-108812163D01*
X90888096Y-108812163D02*
X90840477Y-108764544D01*
X90840477Y-108764544D02*
X90888096Y-108716924D01*
X90888096Y-108716924D02*
X90888096Y-108812163D01*
X83459524Y-109422107D02*
X83792857Y-110422107D01*
X83792857Y-110422107D02*
X84126190Y-109422107D01*
X84840476Y-110374488D02*
X84745238Y-110422107D01*
X84745238Y-110422107D02*
X84554762Y-110422107D01*
X84554762Y-110422107D02*
X84459524Y-110374488D01*
X84459524Y-110374488D02*
X84411905Y-110279249D01*
X84411905Y-110279249D02*
X84411905Y-109898297D01*
X84411905Y-109898297D02*
X84459524Y-109803059D01*
X84459524Y-109803059D02*
X84554762Y-109755440D01*
X84554762Y-109755440D02*
X84745238Y-109755440D01*
X84745238Y-109755440D02*
X84840476Y-109803059D01*
X84840476Y-109803059D02*
X84888095Y-109898297D01*
X84888095Y-109898297D02*
X84888095Y-109993535D01*
X84888095Y-109993535D02*
X84411905Y-110088773D01*
X85316667Y-110422107D02*
X85316667Y-109755440D01*
X85316667Y-109945916D02*
X85364286Y-109850678D01*
X85364286Y-109850678D02*
X85411905Y-109803059D01*
X85411905Y-109803059D02*
X85507143Y-109755440D01*
X85507143Y-109755440D02*
X85602381Y-109755440D01*
X85888096Y-110374488D02*
X85983334Y-110422107D01*
X85983334Y-110422107D02*
X86173810Y-110422107D01*
X86173810Y-110422107D02*
X86269048Y-110374488D01*
X86269048Y-110374488D02*
X86316667Y-110279249D01*
X86316667Y-110279249D02*
X86316667Y-110231630D01*
X86316667Y-110231630D02*
X86269048Y-110136392D01*
X86269048Y-110136392D02*
X86173810Y-110088773D01*
X86173810Y-110088773D02*
X86030953Y-110088773D01*
X86030953Y-110088773D02*
X85935715Y-110041154D01*
X85935715Y-110041154D02*
X85888096Y-109945916D01*
X85888096Y-109945916D02*
X85888096Y-109898297D01*
X85888096Y-109898297D02*
X85935715Y-109803059D01*
X85935715Y-109803059D02*
X86030953Y-109755440D01*
X86030953Y-109755440D02*
X86173810Y-109755440D01*
X86173810Y-109755440D02*
X86269048Y-109803059D01*
X86745239Y-110422107D02*
X86745239Y-109755440D01*
X86745239Y-109422107D02*
X86697620Y-109469726D01*
X86697620Y-109469726D02*
X86745239Y-109517345D01*
X86745239Y-109517345D02*
X86792858Y-109469726D01*
X86792858Y-109469726D02*
X86745239Y-109422107D01*
X86745239Y-109422107D02*
X86745239Y-109517345D01*
X87364286Y-110422107D02*
X87269048Y-110374488D01*
X87269048Y-110374488D02*
X87221429Y-110326868D01*
X87221429Y-110326868D02*
X87173810Y-110231630D01*
X87173810Y-110231630D02*
X87173810Y-109945916D01*
X87173810Y-109945916D02*
X87221429Y-109850678D01*
X87221429Y-109850678D02*
X87269048Y-109803059D01*
X87269048Y-109803059D02*
X87364286Y-109755440D01*
X87364286Y-109755440D02*
X87507143Y-109755440D01*
X87507143Y-109755440D02*
X87602381Y-109803059D01*
X87602381Y-109803059D02*
X87650000Y-109850678D01*
X87650000Y-109850678D02*
X87697619Y-109945916D01*
X87697619Y-109945916D02*
X87697619Y-110231630D01*
X87697619Y-110231630D02*
X87650000Y-110326868D01*
X87650000Y-110326868D02*
X87602381Y-110374488D01*
X87602381Y-110374488D02*
X87507143Y-110422107D01*
X87507143Y-110422107D02*
X87364286Y-110422107D01*
X88126191Y-109755440D02*
X88126191Y-110422107D01*
X88126191Y-109850678D02*
X88173810Y-109803059D01*
X88173810Y-109803059D02*
X88269048Y-109755440D01*
X88269048Y-109755440D02*
X88411905Y-109755440D01*
X88411905Y-109755440D02*
X88507143Y-109803059D01*
X88507143Y-109803059D02*
X88554762Y-109898297D01*
X88554762Y-109898297D02*
X88554762Y-110422107D01*
X90316667Y-110422107D02*
X89745239Y-110422107D01*
X90030953Y-110422107D02*
X90030953Y-109422107D01*
X90030953Y-109422107D02*
X89935715Y-109564964D01*
X89935715Y-109564964D02*
X89840477Y-109660202D01*
X89840477Y-109660202D02*
X89745239Y-109707821D01*
X90745239Y-110326868D02*
X90792858Y-110374488D01*
X90792858Y-110374488D02*
X90745239Y-110422107D01*
X90745239Y-110422107D02*
X90697620Y-110374488D01*
X90697620Y-110374488D02*
X90745239Y-110326868D01*
X90745239Y-110326868D02*
X90745239Y-110422107D01*
X91411905Y-109422107D02*
X91507143Y-109422107D01*
X91507143Y-109422107D02*
X91602381Y-109469726D01*
X91602381Y-109469726D02*
X91650000Y-109517345D01*
X91650000Y-109517345D02*
X91697619Y-109612583D01*
X91697619Y-109612583D02*
X91745238Y-109803059D01*
X91745238Y-109803059D02*
X91745238Y-110041154D01*
X91745238Y-110041154D02*
X91697619Y-110231630D01*
X91697619Y-110231630D02*
X91650000Y-110326868D01*
X91650000Y-110326868D02*
X91602381Y-110374488D01*
X91602381Y-110374488D02*
X91507143Y-110422107D01*
X91507143Y-110422107D02*
X91411905Y-110422107D01*
X91411905Y-110422107D02*
X91316667Y-110374488D01*
X91316667Y-110374488D02*
X91269048Y-110326868D01*
X91269048Y-110326868D02*
X91221429Y-110231630D01*
X91221429Y-110231630D02*
X91173810Y-110041154D01*
X91173810Y-110041154D02*
X91173810Y-109803059D01*
X91173810Y-109803059D02*
X91221429Y-109612583D01*
X91221429Y-109612583D02*
X91269048Y-109517345D01*
X91269048Y-109517345D02*
X91316667Y-109469726D01*
X91316667Y-109469726D02*
X91411905Y-109422107D01*
D11*
X81230000Y-101030000D02*
X94300332Y-101030000D01*
X94300332Y-112100332D01*
X81230000Y-112100332D01*
X81230000Y-101030000D01*
D12*
X132950000Y-117100000D02*
X133262710Y-117222031D01*
X132950000Y-117100000D02*
X133084768Y-116709387D01*
X134750000Y-116250000D02*
X132950000Y-117100000D01*
X142700000Y-117800000D02*
X142400000Y-117500000D01*
X142700000Y-117800000D02*
X143050000Y-117450000D01*
X142700000Y-116800000D02*
X142700000Y-117800000D01*
D10*
X135019046Y-114507275D02*
X135019046Y-113507275D01*
X135019046Y-113507275D02*
X135399998Y-113507275D01*
X135399998Y-113507275D02*
X135495236Y-113554894D01*
X135495236Y-113554894D02*
X135542855Y-113602513D01*
X135542855Y-113602513D02*
X135590474Y-113697751D01*
X135590474Y-113697751D02*
X135590474Y-113840608D01*
X135590474Y-113840608D02*
X135542855Y-113935846D01*
X135542855Y-113935846D02*
X135495236Y-113983465D01*
X135495236Y-113983465D02*
X135399998Y-114031084D01*
X135399998Y-114031084D02*
X135019046Y-114031084D01*
X136161903Y-114507275D02*
X136066665Y-114459656D01*
X136066665Y-114459656D02*
X136019046Y-114412036D01*
X136019046Y-114412036D02*
X135971427Y-114316798D01*
X135971427Y-114316798D02*
X135971427Y-114031084D01*
X135971427Y-114031084D02*
X136019046Y-113935846D01*
X136019046Y-113935846D02*
X136066665Y-113888227D01*
X136066665Y-113888227D02*
X136161903Y-113840608D01*
X136161903Y-113840608D02*
X136304760Y-113840608D01*
X136304760Y-113840608D02*
X136399998Y-113888227D01*
X136399998Y-113888227D02*
X136447617Y-113935846D01*
X136447617Y-113935846D02*
X136495236Y-114031084D01*
X136495236Y-114031084D02*
X136495236Y-114316798D01*
X136495236Y-114316798D02*
X136447617Y-114412036D01*
X136447617Y-114412036D02*
X136399998Y-114459656D01*
X136399998Y-114459656D02*
X136304760Y-114507275D01*
X136304760Y-114507275D02*
X136161903Y-114507275D01*
X136923808Y-113840608D02*
X136923808Y-114840608D01*
X136923808Y-113888227D02*
X137019046Y-113840608D01*
X137019046Y-113840608D02*
X137209522Y-113840608D01*
X137209522Y-113840608D02*
X137304760Y-113888227D01*
X137304760Y-113888227D02*
X137352379Y-113935846D01*
X137352379Y-113935846D02*
X137399998Y-114031084D01*
X137399998Y-114031084D02*
X137399998Y-114316798D01*
X137399998Y-114316798D02*
X137352379Y-114412036D01*
X137352379Y-114412036D02*
X137304760Y-114459656D01*
X137304760Y-114459656D02*
X137209522Y-114507275D01*
X137209522Y-114507275D02*
X137019046Y-114507275D01*
X137019046Y-114507275D02*
X136923808Y-114459656D01*
X138257141Y-113840608D02*
X138257141Y-114507275D01*
X137828570Y-113840608D02*
X137828570Y-114364417D01*
X137828570Y-114364417D02*
X137876189Y-114459656D01*
X137876189Y-114459656D02*
X137971427Y-114507275D01*
X137971427Y-114507275D02*
X138114284Y-114507275D01*
X138114284Y-114507275D02*
X138209522Y-114459656D01*
X138209522Y-114459656D02*
X138257141Y-114412036D01*
X138876189Y-114507275D02*
X138780951Y-114459656D01*
X138780951Y-114459656D02*
X138733332Y-114364417D01*
X138733332Y-114364417D02*
X138733332Y-113507275D01*
X139685713Y-114507275D02*
X139685713Y-113983465D01*
X139685713Y-113983465D02*
X139638094Y-113888227D01*
X139638094Y-113888227D02*
X139542856Y-113840608D01*
X139542856Y-113840608D02*
X139352380Y-113840608D01*
X139352380Y-113840608D02*
X139257142Y-113888227D01*
X139685713Y-114459656D02*
X139590475Y-114507275D01*
X139590475Y-114507275D02*
X139352380Y-114507275D01*
X139352380Y-114507275D02*
X139257142Y-114459656D01*
X139257142Y-114459656D02*
X139209523Y-114364417D01*
X139209523Y-114364417D02*
X139209523Y-114269179D01*
X139209523Y-114269179D02*
X139257142Y-114173941D01*
X139257142Y-114173941D02*
X139352380Y-114126322D01*
X139352380Y-114126322D02*
X139590475Y-114126322D01*
X139590475Y-114126322D02*
X139685713Y-114078703D01*
X140019047Y-113840608D02*
X140399999Y-113840608D01*
X140161904Y-113507275D02*
X140161904Y-114364417D01*
X140161904Y-114364417D02*
X140209523Y-114459656D01*
X140209523Y-114459656D02*
X140304761Y-114507275D01*
X140304761Y-114507275D02*
X140399999Y-114507275D01*
X141114285Y-114459656D02*
X141019047Y-114507275D01*
X141019047Y-114507275D02*
X140828571Y-114507275D01*
X140828571Y-114507275D02*
X140733333Y-114459656D01*
X140733333Y-114459656D02*
X140685714Y-114364417D01*
X140685714Y-114364417D02*
X140685714Y-113983465D01*
X140685714Y-113983465D02*
X140733333Y-113888227D01*
X140733333Y-113888227D02*
X140828571Y-113840608D01*
X140828571Y-113840608D02*
X141019047Y-113840608D01*
X141019047Y-113840608D02*
X141114285Y-113888227D01*
X141114285Y-113888227D02*
X141161904Y-113983465D01*
X141161904Y-113983465D02*
X141161904Y-114078703D01*
X141161904Y-114078703D02*
X140685714Y-114173941D01*
X142257143Y-113840608D02*
X142447619Y-114507275D01*
X142447619Y-114507275D02*
X142638095Y-114031084D01*
X142638095Y-114031084D02*
X142828571Y-114507275D01*
X142828571Y-114507275D02*
X143019047Y-113840608D01*
X143400000Y-114507275D02*
X143400000Y-113840608D01*
X143400000Y-113507275D02*
X143352381Y-113554894D01*
X143352381Y-113554894D02*
X143400000Y-113602513D01*
X143400000Y-113602513D02*
X143447619Y-113554894D01*
X143447619Y-113554894D02*
X143400000Y-113507275D01*
X143400000Y-113507275D02*
X143400000Y-113602513D01*
X143733333Y-113840608D02*
X144114285Y-113840608D01*
X143876190Y-113507275D02*
X143876190Y-114364417D01*
X143876190Y-114364417D02*
X143923809Y-114459656D01*
X143923809Y-114459656D02*
X144019047Y-114507275D01*
X144019047Y-114507275D02*
X144114285Y-114507275D01*
X144447619Y-114507275D02*
X144447619Y-113507275D01*
X144876190Y-114507275D02*
X144876190Y-113983465D01*
X144876190Y-113983465D02*
X144828571Y-113888227D01*
X144828571Y-113888227D02*
X144733333Y-113840608D01*
X144733333Y-113840608D02*
X144590476Y-113840608D01*
X144590476Y-113840608D02*
X144495238Y-113888227D01*
X144495238Y-113888227D02*
X144447619Y-113935846D01*
X146114286Y-114507275D02*
X146114286Y-113507275D01*
X146114286Y-113507275D02*
X146352381Y-113507275D01*
X146352381Y-113507275D02*
X146495238Y-113554894D01*
X146495238Y-113554894D02*
X146590476Y-113650132D01*
X146590476Y-113650132D02*
X146638095Y-113745370D01*
X146638095Y-113745370D02*
X146685714Y-113935846D01*
X146685714Y-113935846D02*
X146685714Y-114078703D01*
X146685714Y-114078703D02*
X146638095Y-114269179D01*
X146638095Y-114269179D02*
X146590476Y-114364417D01*
X146590476Y-114364417D02*
X146495238Y-114459656D01*
X146495238Y-114459656D02*
X146352381Y-114507275D01*
X146352381Y-114507275D02*
X146114286Y-114507275D01*
X147447619Y-113983465D02*
X147114286Y-113983465D01*
X147114286Y-114507275D02*
X147114286Y-113507275D01*
X147114286Y-113507275D02*
X147590476Y-113507275D01*
X148542857Y-114507275D02*
X148209524Y-114031084D01*
X147971429Y-114507275D02*
X147971429Y-113507275D01*
X147971429Y-113507275D02*
X148352381Y-113507275D01*
X148352381Y-113507275D02*
X148447619Y-113554894D01*
X148447619Y-113554894D02*
X148495238Y-113602513D01*
X148495238Y-113602513D02*
X148542857Y-113697751D01*
X148542857Y-113697751D02*
X148542857Y-113840608D01*
X148542857Y-113840608D02*
X148495238Y-113935846D01*
X148495238Y-113935846D02*
X148447619Y-113983465D01*
X148447619Y-113983465D02*
X148352381Y-114031084D01*
X148352381Y-114031084D02*
X147971429Y-114031084D01*
X149114286Y-114507275D02*
X149019048Y-114459656D01*
X149019048Y-114459656D02*
X148971429Y-114412036D01*
X148971429Y-114412036D02*
X148923810Y-114316798D01*
X148923810Y-114316798D02*
X148923810Y-114031084D01*
X148923810Y-114031084D02*
X148971429Y-113935846D01*
X148971429Y-113935846D02*
X149019048Y-113888227D01*
X149019048Y-113888227D02*
X149114286Y-113840608D01*
X149114286Y-113840608D02*
X149257143Y-113840608D01*
X149257143Y-113840608D02*
X149352381Y-113888227D01*
X149352381Y-113888227D02*
X149400000Y-113935846D01*
X149400000Y-113935846D02*
X149447619Y-114031084D01*
X149447619Y-114031084D02*
X149447619Y-114316798D01*
X149447619Y-114316798D02*
X149400000Y-114412036D01*
X149400000Y-114412036D02*
X149352381Y-114459656D01*
X149352381Y-114459656D02*
X149257143Y-114507275D01*
X149257143Y-114507275D02*
X149114286Y-114507275D01*
X149876191Y-114507275D02*
X149876191Y-113507275D01*
X149876191Y-113888227D02*
X149971429Y-113840608D01*
X149971429Y-113840608D02*
X150161905Y-113840608D01*
X150161905Y-113840608D02*
X150257143Y-113888227D01*
X150257143Y-113888227D02*
X150304762Y-113935846D01*
X150304762Y-113935846D02*
X150352381Y-114031084D01*
X150352381Y-114031084D02*
X150352381Y-114316798D01*
X150352381Y-114316798D02*
X150304762Y-114412036D01*
X150304762Y-114412036D02*
X150257143Y-114459656D01*
X150257143Y-114459656D02*
X150161905Y-114507275D01*
X150161905Y-114507275D02*
X149971429Y-114507275D01*
X149971429Y-114507275D02*
X149876191Y-114459656D01*
X150923810Y-114507275D02*
X150828572Y-114459656D01*
X150828572Y-114459656D02*
X150780953Y-114412036D01*
X150780953Y-114412036D02*
X150733334Y-114316798D01*
X150733334Y-114316798D02*
X150733334Y-114031084D01*
X150733334Y-114031084D02*
X150780953Y-113935846D01*
X150780953Y-113935846D02*
X150828572Y-113888227D01*
X150828572Y-113888227D02*
X150923810Y-113840608D01*
X150923810Y-113840608D02*
X151066667Y-113840608D01*
X151066667Y-113840608D02*
X151161905Y-113888227D01*
X151161905Y-113888227D02*
X151209524Y-113935846D01*
X151209524Y-113935846D02*
X151257143Y-114031084D01*
X151257143Y-114031084D02*
X151257143Y-114316798D01*
X151257143Y-114316798D02*
X151209524Y-114412036D01*
X151209524Y-114412036D02*
X151161905Y-114459656D01*
X151161905Y-114459656D02*
X151066667Y-114507275D01*
X151066667Y-114507275D02*
X150923810Y-114507275D01*
X151542858Y-113840608D02*
X151923810Y-113840608D01*
X151685715Y-113507275D02*
X151685715Y-114364417D01*
X151685715Y-114364417D02*
X151733334Y-114459656D01*
X151733334Y-114459656D02*
X151828572Y-114507275D01*
X151828572Y-114507275D02*
X151923810Y-114507275D01*
X136423808Y-115831504D02*
X136899998Y-115831504D01*
X136328570Y-116117219D02*
X136661903Y-115117219D01*
X136661903Y-115117219D02*
X136995236Y-116117219D01*
X137328570Y-115450552D02*
X137328570Y-116117219D01*
X137328570Y-115545790D02*
X137376189Y-115498171D01*
X137376189Y-115498171D02*
X137471427Y-115450552D01*
X137471427Y-115450552D02*
X137614284Y-115450552D01*
X137614284Y-115450552D02*
X137709522Y-115498171D01*
X137709522Y-115498171D02*
X137757141Y-115593409D01*
X137757141Y-115593409D02*
X137757141Y-116117219D01*
X138661903Y-116117219D02*
X138661903Y-115593409D01*
X138661903Y-115593409D02*
X138614284Y-115498171D01*
X138614284Y-115498171D02*
X138519046Y-115450552D01*
X138519046Y-115450552D02*
X138328570Y-115450552D01*
X138328570Y-115450552D02*
X138233332Y-115498171D01*
X138661903Y-116069600D02*
X138566665Y-116117219D01*
X138566665Y-116117219D02*
X138328570Y-116117219D01*
X138328570Y-116117219D02*
X138233332Y-116069600D01*
X138233332Y-116069600D02*
X138185713Y-115974361D01*
X138185713Y-115974361D02*
X138185713Y-115879123D01*
X138185713Y-115879123D02*
X138233332Y-115783885D01*
X138233332Y-115783885D02*
X138328570Y-115736266D01*
X138328570Y-115736266D02*
X138566665Y-115736266D01*
X138566665Y-115736266D02*
X138661903Y-115688647D01*
X139280951Y-116117219D02*
X139185713Y-116069600D01*
X139185713Y-116069600D02*
X139138094Y-115974361D01*
X139138094Y-115974361D02*
X139138094Y-115117219D01*
X139804761Y-116117219D02*
X139709523Y-116069600D01*
X139709523Y-116069600D02*
X139661904Y-116021980D01*
X139661904Y-116021980D02*
X139614285Y-115926742D01*
X139614285Y-115926742D02*
X139614285Y-115641028D01*
X139614285Y-115641028D02*
X139661904Y-115545790D01*
X139661904Y-115545790D02*
X139709523Y-115498171D01*
X139709523Y-115498171D02*
X139804761Y-115450552D01*
X139804761Y-115450552D02*
X139947618Y-115450552D01*
X139947618Y-115450552D02*
X140042856Y-115498171D01*
X140042856Y-115498171D02*
X140090475Y-115545790D01*
X140090475Y-115545790D02*
X140138094Y-115641028D01*
X140138094Y-115641028D02*
X140138094Y-115926742D01*
X140138094Y-115926742D02*
X140090475Y-116021980D01*
X140090475Y-116021980D02*
X140042856Y-116069600D01*
X140042856Y-116069600D02*
X139947618Y-116117219D01*
X139947618Y-116117219D02*
X139804761Y-116117219D01*
X140995237Y-115450552D02*
X140995237Y-116260076D01*
X140995237Y-116260076D02*
X140947618Y-116355314D01*
X140947618Y-116355314D02*
X140899999Y-116402933D01*
X140899999Y-116402933D02*
X140804761Y-116450552D01*
X140804761Y-116450552D02*
X140661904Y-116450552D01*
X140661904Y-116450552D02*
X140566666Y-116402933D01*
X140995237Y-116069600D02*
X140899999Y-116117219D01*
X140899999Y-116117219D02*
X140709523Y-116117219D01*
X140709523Y-116117219D02*
X140614285Y-116069600D01*
X140614285Y-116069600D02*
X140566666Y-116021980D01*
X140566666Y-116021980D02*
X140519047Y-115926742D01*
X140519047Y-115926742D02*
X140519047Y-115641028D01*
X140519047Y-115641028D02*
X140566666Y-115545790D01*
X140566666Y-115545790D02*
X140614285Y-115498171D01*
X140614285Y-115498171D02*
X140709523Y-115450552D01*
X140709523Y-115450552D02*
X140899999Y-115450552D01*
X140899999Y-115450552D02*
X140995237Y-115498171D01*
X142185714Y-115831504D02*
X142661904Y-115831504D01*
X142090476Y-116117219D02*
X142423809Y-115117219D01*
X142423809Y-115117219D02*
X142757142Y-116117219D01*
X143090476Y-116117219D02*
X143090476Y-115450552D01*
X143090476Y-115117219D02*
X143042857Y-115164838D01*
X143042857Y-115164838D02*
X143090476Y-115212457D01*
X143090476Y-115212457D02*
X143138095Y-115164838D01*
X143138095Y-115164838D02*
X143090476Y-115117219D01*
X143090476Y-115117219D02*
X143090476Y-115212457D01*
X143566666Y-116117219D02*
X143566666Y-115450552D01*
X143566666Y-115641028D02*
X143614285Y-115545790D01*
X143614285Y-115545790D02*
X143661904Y-115498171D01*
X143661904Y-115498171D02*
X143757142Y-115450552D01*
X143757142Y-115450552D02*
X143852380Y-115450552D01*
X144900000Y-116069600D02*
X145042857Y-116117219D01*
X145042857Y-116117219D02*
X145280952Y-116117219D01*
X145280952Y-116117219D02*
X145376190Y-116069600D01*
X145376190Y-116069600D02*
X145423809Y-116021980D01*
X145423809Y-116021980D02*
X145471428Y-115926742D01*
X145471428Y-115926742D02*
X145471428Y-115831504D01*
X145471428Y-115831504D02*
X145423809Y-115736266D01*
X145423809Y-115736266D02*
X145376190Y-115688647D01*
X145376190Y-115688647D02*
X145280952Y-115641028D01*
X145280952Y-115641028D02*
X145090476Y-115593409D01*
X145090476Y-115593409D02*
X144995238Y-115545790D01*
X144995238Y-115545790D02*
X144947619Y-115498171D01*
X144947619Y-115498171D02*
X144900000Y-115402933D01*
X144900000Y-115402933D02*
X144900000Y-115307695D01*
X144900000Y-115307695D02*
X144947619Y-115212457D01*
X144947619Y-115212457D02*
X144995238Y-115164838D01*
X144995238Y-115164838D02*
X145090476Y-115117219D01*
X145090476Y-115117219D02*
X145328571Y-115117219D01*
X145328571Y-115117219D02*
X145471428Y-115164838D01*
X146280952Y-116069600D02*
X146185714Y-116117219D01*
X146185714Y-116117219D02*
X145995238Y-116117219D01*
X145995238Y-116117219D02*
X145900000Y-116069600D01*
X145900000Y-116069600D02*
X145852381Y-115974361D01*
X145852381Y-115974361D02*
X145852381Y-115593409D01*
X145852381Y-115593409D02*
X145900000Y-115498171D01*
X145900000Y-115498171D02*
X145995238Y-115450552D01*
X145995238Y-115450552D02*
X146185714Y-115450552D01*
X146185714Y-115450552D02*
X146280952Y-115498171D01*
X146280952Y-115498171D02*
X146328571Y-115593409D01*
X146328571Y-115593409D02*
X146328571Y-115688647D01*
X146328571Y-115688647D02*
X145852381Y-115783885D01*
X146757143Y-115450552D02*
X146757143Y-116117219D01*
X146757143Y-115545790D02*
X146804762Y-115498171D01*
X146804762Y-115498171D02*
X146900000Y-115450552D01*
X146900000Y-115450552D02*
X147042857Y-115450552D01*
X147042857Y-115450552D02*
X147138095Y-115498171D01*
X147138095Y-115498171D02*
X147185714Y-115593409D01*
X147185714Y-115593409D02*
X147185714Y-116117219D01*
X147614286Y-116069600D02*
X147709524Y-116117219D01*
X147709524Y-116117219D02*
X147900000Y-116117219D01*
X147900000Y-116117219D02*
X147995238Y-116069600D01*
X147995238Y-116069600D02*
X148042857Y-115974361D01*
X148042857Y-115974361D02*
X148042857Y-115926742D01*
X148042857Y-115926742D02*
X147995238Y-115831504D01*
X147995238Y-115831504D02*
X147900000Y-115783885D01*
X147900000Y-115783885D02*
X147757143Y-115783885D01*
X147757143Y-115783885D02*
X147661905Y-115736266D01*
X147661905Y-115736266D02*
X147614286Y-115641028D01*
X147614286Y-115641028D02*
X147614286Y-115593409D01*
X147614286Y-115593409D02*
X147661905Y-115498171D01*
X147661905Y-115498171D02*
X147757143Y-115450552D01*
X147757143Y-115450552D02*
X147900000Y-115450552D01*
X147900000Y-115450552D02*
X147995238Y-115498171D01*
X148614286Y-116117219D02*
X148519048Y-116069600D01*
X148519048Y-116069600D02*
X148471429Y-116021980D01*
X148471429Y-116021980D02*
X148423810Y-115926742D01*
X148423810Y-115926742D02*
X148423810Y-115641028D01*
X148423810Y-115641028D02*
X148471429Y-115545790D01*
X148471429Y-115545790D02*
X148519048Y-115498171D01*
X148519048Y-115498171D02*
X148614286Y-115450552D01*
X148614286Y-115450552D02*
X148757143Y-115450552D01*
X148757143Y-115450552D02*
X148852381Y-115498171D01*
X148852381Y-115498171D02*
X148900000Y-115545790D01*
X148900000Y-115545790D02*
X148947619Y-115641028D01*
X148947619Y-115641028D02*
X148947619Y-115926742D01*
X148947619Y-115926742D02*
X148900000Y-116021980D01*
X148900000Y-116021980D02*
X148852381Y-116069600D01*
X148852381Y-116069600D02*
X148757143Y-116117219D01*
X148757143Y-116117219D02*
X148614286Y-116117219D01*
X149376191Y-116117219D02*
X149376191Y-115450552D01*
X149376191Y-115641028D02*
X149423810Y-115545790D01*
X149423810Y-115545790D02*
X149471429Y-115498171D01*
X149471429Y-115498171D02*
X149566667Y-115450552D01*
X149566667Y-115450552D02*
X149661905Y-115450552D01*
X149947620Y-116069600D02*
X150042858Y-116117219D01*
X150042858Y-116117219D02*
X150233334Y-116117219D01*
X150233334Y-116117219D02*
X150328572Y-116069600D01*
X150328572Y-116069600D02*
X150376191Y-115974361D01*
X150376191Y-115974361D02*
X150376191Y-115926742D01*
X150376191Y-115926742D02*
X150328572Y-115831504D01*
X150328572Y-115831504D02*
X150233334Y-115783885D01*
X150233334Y-115783885D02*
X150090477Y-115783885D01*
X150090477Y-115783885D02*
X149995239Y-115736266D01*
X149995239Y-115736266D02*
X149947620Y-115641028D01*
X149947620Y-115641028D02*
X149947620Y-115593409D01*
X149947620Y-115593409D02*
X149995239Y-115498171D01*
X149995239Y-115498171D02*
X150090477Y-115450552D01*
X150090477Y-115450552D02*
X150233334Y-115450552D01*
X150233334Y-115450552D02*
X150328572Y-115498171D01*
D13*
X144492857Y-122703314D02*
X144492857Y-126703314D01*
X143064285Y-120417600D02*
X141635714Y-124703314D01*
X141635714Y-124703314D02*
X145349999Y-124703314D01*
X123533332Y-120703314D02*
X127247618Y-120703314D01*
X127247618Y-120703314D02*
X125247618Y-122989028D01*
X125247618Y-122989028D02*
X126104761Y-122989028D01*
X126104761Y-122989028D02*
X126676190Y-123274742D01*
X126676190Y-123274742D02*
X126961904Y-123560457D01*
X126961904Y-123560457D02*
X127247618Y-124131885D01*
X127247618Y-124131885D02*
X127247618Y-125560457D01*
X127247618Y-125560457D02*
X126961904Y-126131885D01*
X126961904Y-126131885D02*
X126676190Y-126417600D01*
X126676190Y-126417600D02*
X126104761Y-126703314D01*
X126104761Y-126703314D02*
X124390475Y-126703314D01*
X124390475Y-126703314D02*
X123819047Y-126417600D01*
X123819047Y-126417600D02*
X123533332Y-126131885D01*
X106002381Y-121274742D02*
X106288095Y-120989028D01*
X106288095Y-120989028D02*
X106859524Y-120703314D01*
X106859524Y-120703314D02*
X108288095Y-120703314D01*
X108288095Y-120703314D02*
X108859524Y-120989028D01*
X108859524Y-120989028D02*
X109145238Y-121274742D01*
X109145238Y-121274742D02*
X109430952Y-121846171D01*
X109430952Y-121846171D02*
X109430952Y-122417600D01*
X109430952Y-122417600D02*
X109145238Y-123274742D01*
X109145238Y-123274742D02*
X105716666Y-126703314D01*
X105716666Y-126703314D02*
X109430952Y-126703314D01*
X91614285Y-126703314D02*
X88185714Y-126703314D01*
X89899999Y-126703314D02*
X89899999Y-120703314D01*
X89899999Y-120703314D02*
X89328571Y-121560457D01*
X89328571Y-121560457D02*
X88757142Y-122131885D01*
X88757142Y-122131885D02*
X88185714Y-122417600D01*
D10*
X153682505Y-133556517D02*
X153634886Y-133651755D01*
X153634886Y-133651755D02*
X153634886Y-133794612D01*
X153634886Y-133794612D02*
X153682505Y-133937469D01*
X153682505Y-133937469D02*
X153777743Y-134032707D01*
X153777743Y-134032707D02*
X153872981Y-134080326D01*
X153872981Y-134080326D02*
X154063457Y-134127945D01*
X154063457Y-134127945D02*
X154206314Y-134127945D01*
X154206314Y-134127945D02*
X154396790Y-134080326D01*
X154396790Y-134080326D02*
X154492028Y-134032707D01*
X154492028Y-134032707D02*
X154587267Y-133937469D01*
X154587267Y-133937469D02*
X154634886Y-133794612D01*
X154634886Y-133794612D02*
X154634886Y-133699374D01*
X154634886Y-133699374D02*
X154587267Y-133556517D01*
X154587267Y-133556517D02*
X154539647Y-133508898D01*
X154539647Y-133508898D02*
X154206314Y-133508898D01*
X154206314Y-133508898D02*
X154206314Y-133699374D01*
X154634886Y-133080326D02*
X153634886Y-133080326D01*
X153634886Y-133080326D02*
X154634886Y-132508898D01*
X154634886Y-132508898D02*
X153634886Y-132508898D01*
X154634886Y-132032707D02*
X153634886Y-132032707D01*
X153634886Y-132032707D02*
X153634886Y-131794612D01*
X153634886Y-131794612D02*
X153682505Y-131651755D01*
X153682505Y-131651755D02*
X153777743Y-131556517D01*
X153777743Y-131556517D02*
X153872981Y-131508898D01*
X153872981Y-131508898D02*
X154063457Y-131461279D01*
X154063457Y-131461279D02*
X154206314Y-131461279D01*
X154206314Y-131461279D02*
X154396790Y-131508898D01*
X154396790Y-131508898D02*
X154492028Y-131556517D01*
X154492028Y-131556517D02*
X154587267Y-131651755D01*
X154587267Y-131651755D02*
X154634886Y-131794612D01*
X154634886Y-131794612D02*
X154634886Y-132032707D01*
X164724219Y-133508898D02*
X164248028Y-133842231D01*
X164724219Y-134080326D02*
X163724219Y-134080326D01*
X163724219Y-134080326D02*
X163724219Y-133699374D01*
X163724219Y-133699374D02*
X163771838Y-133604136D01*
X163771838Y-133604136D02*
X163819457Y-133556517D01*
X163819457Y-133556517D02*
X163914695Y-133508898D01*
X163914695Y-133508898D02*
X164057552Y-133508898D01*
X164057552Y-133508898D02*
X164152790Y-133556517D01*
X164152790Y-133556517D02*
X164200409Y-133604136D01*
X164200409Y-133604136D02*
X164248028Y-133699374D01*
X164248028Y-133699374D02*
X164248028Y-134080326D01*
X164676600Y-133127945D02*
X164724219Y-132985088D01*
X164724219Y-132985088D02*
X164724219Y-132746993D01*
X164724219Y-132746993D02*
X164676600Y-132651755D01*
X164676600Y-132651755D02*
X164628980Y-132604136D01*
X164628980Y-132604136D02*
X164533742Y-132556517D01*
X164533742Y-132556517D02*
X164438504Y-132556517D01*
X164438504Y-132556517D02*
X164343266Y-132604136D01*
X164343266Y-132604136D02*
X164295647Y-132651755D01*
X164295647Y-132651755D02*
X164248028Y-132746993D01*
X164248028Y-132746993D02*
X164200409Y-132937469D01*
X164200409Y-132937469D02*
X164152790Y-133032707D01*
X164152790Y-133032707D02*
X164105171Y-133080326D01*
X164105171Y-133080326D02*
X164009933Y-133127945D01*
X164009933Y-133127945D02*
X163914695Y-133127945D01*
X163914695Y-133127945D02*
X163819457Y-133080326D01*
X163819457Y-133080326D02*
X163771838Y-133032707D01*
X163771838Y-133032707D02*
X163724219Y-132937469D01*
X163724219Y-132937469D02*
X163724219Y-132699374D01*
X163724219Y-132699374D02*
X163771838Y-132556517D01*
X163724219Y-132270802D02*
X163724219Y-131699374D01*
X164724219Y-131985088D02*
X163724219Y-131985088D01*
X157109600Y-134127945D02*
X157157219Y-133985088D01*
X157157219Y-133985088D02*
X157157219Y-133746993D01*
X157157219Y-133746993D02*
X157109600Y-133651755D01*
X157109600Y-133651755D02*
X157061980Y-133604136D01*
X157061980Y-133604136D02*
X156966742Y-133556517D01*
X156966742Y-133556517D02*
X156871504Y-133556517D01*
X156871504Y-133556517D02*
X156776266Y-133604136D01*
X156776266Y-133604136D02*
X156728647Y-133651755D01*
X156728647Y-133651755D02*
X156681028Y-133746993D01*
X156681028Y-133746993D02*
X156633409Y-133937469D01*
X156633409Y-133937469D02*
X156585790Y-134032707D01*
X156585790Y-134032707D02*
X156538171Y-134080326D01*
X156538171Y-134080326D02*
X156442933Y-134127945D01*
X156442933Y-134127945D02*
X156347695Y-134127945D01*
X156347695Y-134127945D02*
X156252457Y-134080326D01*
X156252457Y-134080326D02*
X156204838Y-134032707D01*
X156204838Y-134032707D02*
X156157219Y-133937469D01*
X156157219Y-133937469D02*
X156157219Y-133699374D01*
X156157219Y-133699374D02*
X156204838Y-133556517D01*
X156633409Y-133127945D02*
X156633409Y-132794612D01*
X157157219Y-132651755D02*
X157157219Y-133127945D01*
X157157219Y-133127945D02*
X156157219Y-133127945D01*
X156157219Y-133127945D02*
X156157219Y-132651755D01*
X156157219Y-132366040D02*
X156157219Y-131794612D01*
X157157219Y-132080326D02*
X156157219Y-132080326D01*
X161201886Y-134223183D02*
X161201886Y-133651755D01*
X162201886Y-133937469D02*
X161201886Y-133937469D01*
X161201886Y-133413659D02*
X162201886Y-132746993D01*
X161201886Y-132746993D02*
X162201886Y-133413659D01*
X159679553Y-133508898D02*
X159203362Y-133842231D01*
X159679553Y-134080326D02*
X158679553Y-134080326D01*
X158679553Y-134080326D02*
X158679553Y-133699374D01*
X158679553Y-133699374D02*
X158727172Y-133604136D01*
X158727172Y-133604136D02*
X158774791Y-133556517D01*
X158774791Y-133556517D02*
X158870029Y-133508898D01*
X158870029Y-133508898D02*
X159012886Y-133508898D01*
X159012886Y-133508898D02*
X159108124Y-133556517D01*
X159108124Y-133556517D02*
X159155743Y-133604136D01*
X159155743Y-133604136D02*
X159203362Y-133699374D01*
X159203362Y-133699374D02*
X159203362Y-134080326D01*
X158679553Y-133175564D02*
X159679553Y-132508898D01*
X158679553Y-132508898D02*
X159679553Y-133175564D01*
X151887933Y-134045713D02*
X151887933Y-133283809D01*
X152268886Y-133664761D02*
X151506981Y-133664761D01*
X151268886Y-132331428D02*
X151268886Y-132807618D01*
X151268886Y-132807618D02*
X151745076Y-132855237D01*
X151745076Y-132855237D02*
X151697457Y-132807618D01*
X151697457Y-132807618D02*
X151649838Y-132712380D01*
X151649838Y-132712380D02*
X151649838Y-132474285D01*
X151649838Y-132474285D02*
X151697457Y-132379047D01*
X151697457Y-132379047D02*
X151745076Y-132331428D01*
X151745076Y-132331428D02*
X151840314Y-132283809D01*
X151840314Y-132283809D02*
X152078409Y-132283809D01*
X152078409Y-132283809D02*
X152173647Y-132331428D01*
X152173647Y-132331428D02*
X152221267Y-132379047D01*
X152221267Y-132379047D02*
X152268886Y-132474285D01*
X152268886Y-132474285D02*
X152268886Y-132712380D01*
X152268886Y-132712380D02*
X152221267Y-132807618D01*
X152221267Y-132807618D02*
X152173647Y-132855237D01*
X151268886Y-131998094D02*
X152268886Y-131664761D01*
X152268886Y-131664761D02*
X151268886Y-131331428D01*
X167246553Y-134080326D02*
X166246553Y-134080326D01*
X166246553Y-134080326D02*
X166246553Y-133699374D01*
X166246553Y-133699374D02*
X166294172Y-133604136D01*
X166294172Y-133604136D02*
X166341791Y-133556517D01*
X166341791Y-133556517D02*
X166437029Y-133508898D01*
X166437029Y-133508898D02*
X166579886Y-133508898D01*
X166579886Y-133508898D02*
X166675124Y-133556517D01*
X166675124Y-133556517D02*
X166722743Y-133604136D01*
X166722743Y-133604136D02*
X166770362Y-133699374D01*
X166770362Y-133699374D02*
X166770362Y-134080326D01*
X166246553Y-133175564D02*
X167246553Y-132937469D01*
X167246553Y-132937469D02*
X166532267Y-132746993D01*
X166532267Y-132746993D02*
X167246553Y-132556517D01*
X167246553Y-132556517D02*
X166246553Y-132318422D01*
X167246553Y-131937469D02*
X166246553Y-131937469D01*
X166246553Y-131937469D02*
X166960838Y-131604136D01*
X166960838Y-131604136D02*
X166246553Y-131270803D01*
X166246553Y-131270803D02*
X167246553Y-131270803D01*
X169768886Y-134080326D02*
X168768886Y-134080326D01*
X168768886Y-134080326D02*
X168768886Y-133699374D01*
X168768886Y-133699374D02*
X168816505Y-133604136D01*
X168816505Y-133604136D02*
X168864124Y-133556517D01*
X168864124Y-133556517D02*
X168959362Y-133508898D01*
X168959362Y-133508898D02*
X169102219Y-133508898D01*
X169102219Y-133508898D02*
X169197457Y-133556517D01*
X169197457Y-133556517D02*
X169245076Y-133604136D01*
X169245076Y-133604136D02*
X169292695Y-133699374D01*
X169292695Y-133699374D02*
X169292695Y-134080326D01*
X169768886Y-132508898D02*
X169292695Y-132842231D01*
X169768886Y-133080326D02*
X168768886Y-133080326D01*
X168768886Y-133080326D02*
X168768886Y-132699374D01*
X168768886Y-132699374D02*
X168816505Y-132604136D01*
X168816505Y-132604136D02*
X168864124Y-132556517D01*
X168864124Y-132556517D02*
X168959362Y-132508898D01*
X168959362Y-132508898D02*
X169102219Y-132508898D01*
X169102219Y-132508898D02*
X169197457Y-132556517D01*
X169197457Y-132556517D02*
X169245076Y-132604136D01*
X169245076Y-132604136D02*
X169292695Y-132699374D01*
X169292695Y-132699374D02*
X169292695Y-133080326D01*
X168768886Y-131889850D02*
X168768886Y-131699374D01*
X168768886Y-131699374D02*
X168816505Y-131604136D01*
X168816505Y-131604136D02*
X168911743Y-131508898D01*
X168911743Y-131508898D02*
X169102219Y-131461279D01*
X169102219Y-131461279D02*
X169435552Y-131461279D01*
X169435552Y-131461279D02*
X169626028Y-131508898D01*
X169626028Y-131508898D02*
X169721267Y-131604136D01*
X169721267Y-131604136D02*
X169768886Y-131699374D01*
X169768886Y-131699374D02*
X169768886Y-131889850D01*
X169768886Y-131889850D02*
X169721267Y-131985088D01*
X169721267Y-131985088D02*
X169626028Y-132080326D01*
X169626028Y-132080326D02*
X169435552Y-132127945D01*
X169435552Y-132127945D02*
X169102219Y-132127945D01*
X169102219Y-132127945D02*
X168911743Y-132080326D01*
X168911743Y-132080326D02*
X168816505Y-131985088D01*
X168816505Y-131985088D02*
X168768886Y-131889850D01*
X168768886Y-131175564D02*
X168768886Y-130604136D01*
X169768886Y-130889850D02*
X168768886Y-130889850D01*
X168768886Y-130080326D02*
X168768886Y-129889850D01*
X168768886Y-129889850D02*
X168816505Y-129794612D01*
X168816505Y-129794612D02*
X168911743Y-129699374D01*
X168911743Y-129699374D02*
X169102219Y-129651755D01*
X169102219Y-129651755D02*
X169435552Y-129651755D01*
X169435552Y-129651755D02*
X169626028Y-129699374D01*
X169626028Y-129699374D02*
X169721267Y-129794612D01*
X169721267Y-129794612D02*
X169768886Y-129889850D01*
X169768886Y-129889850D02*
X169768886Y-130080326D01*
X169768886Y-130080326D02*
X169721267Y-130175564D01*
X169721267Y-130175564D02*
X169626028Y-130270802D01*
X169626028Y-130270802D02*
X169435552Y-130318421D01*
X169435552Y-130318421D02*
X169102219Y-130318421D01*
X169102219Y-130318421D02*
X168911743Y-130270802D01*
X168911743Y-130270802D02*
X168816505Y-130175564D01*
X168816505Y-130175564D02*
X168768886Y-130080326D01*
X169673647Y-128651755D02*
X169721267Y-128699374D01*
X169721267Y-128699374D02*
X169768886Y-128842231D01*
X169768886Y-128842231D02*
X169768886Y-128937469D01*
X169768886Y-128937469D02*
X169721267Y-129080326D01*
X169721267Y-129080326D02*
X169626028Y-129175564D01*
X169626028Y-129175564D02*
X169530790Y-129223183D01*
X169530790Y-129223183D02*
X169340314Y-129270802D01*
X169340314Y-129270802D02*
X169197457Y-129270802D01*
X169197457Y-129270802D02*
X169006981Y-129223183D01*
X169006981Y-129223183D02*
X168911743Y-129175564D01*
X168911743Y-129175564D02*
X168816505Y-129080326D01*
X168816505Y-129080326D02*
X168768886Y-128937469D01*
X168768886Y-128937469D02*
X168768886Y-128842231D01*
X168768886Y-128842231D02*
X168816505Y-128699374D01*
X168816505Y-128699374D02*
X168864124Y-128651755D01*
X168768886Y-128032707D02*
X168768886Y-127842231D01*
X168768886Y-127842231D02*
X168816505Y-127746993D01*
X168816505Y-127746993D02*
X168911743Y-127651755D01*
X168911743Y-127651755D02*
X169102219Y-127604136D01*
X169102219Y-127604136D02*
X169435552Y-127604136D01*
X169435552Y-127604136D02*
X169626028Y-127651755D01*
X169626028Y-127651755D02*
X169721267Y-127746993D01*
X169721267Y-127746993D02*
X169768886Y-127842231D01*
X169768886Y-127842231D02*
X169768886Y-128032707D01*
X169768886Y-128032707D02*
X169721267Y-128127945D01*
X169721267Y-128127945D02*
X169626028Y-128223183D01*
X169626028Y-128223183D02*
X169435552Y-128270802D01*
X169435552Y-128270802D02*
X169102219Y-128270802D01*
X169102219Y-128270802D02*
X168911743Y-128223183D01*
X168911743Y-128223183D02*
X168816505Y-128127945D01*
X168816505Y-128127945D02*
X168768886Y-128032707D01*
X169768886Y-126699374D02*
X169768886Y-127175564D01*
X169768886Y-127175564D02*
X168768886Y-127175564D01*
D11*
X154461428Y-128314438D02*
X154461428Y-126314438D01*
X154461428Y-126314438D02*
X155223333Y-126314438D01*
X155223333Y-126314438D02*
X155413809Y-126409676D01*
X155413809Y-126409676D02*
X155509047Y-126504914D01*
X155509047Y-126504914D02*
X155604285Y-126695390D01*
X155604285Y-126695390D02*
X155604285Y-126981104D01*
X155604285Y-126981104D02*
X155509047Y-127171580D01*
X155509047Y-127171580D02*
X155413809Y-127266819D01*
X155413809Y-127266819D02*
X155223333Y-127362057D01*
X155223333Y-127362057D02*
X154461428Y-127362057D01*
X156461428Y-128314438D02*
X156461428Y-126314438D01*
X156461428Y-126314438D02*
X157128095Y-127743009D01*
X157128095Y-127743009D02*
X157794761Y-126314438D01*
X157794761Y-126314438D02*
X157794761Y-128314438D01*
X158651904Y-128219200D02*
X158937618Y-128314438D01*
X158937618Y-128314438D02*
X159413809Y-128314438D01*
X159413809Y-128314438D02*
X159604285Y-128219200D01*
X159604285Y-128219200D02*
X159699523Y-128123961D01*
X159699523Y-128123961D02*
X159794761Y-127933485D01*
X159794761Y-127933485D02*
X159794761Y-127743009D01*
X159794761Y-127743009D02*
X159699523Y-127552533D01*
X159699523Y-127552533D02*
X159604285Y-127457295D01*
X159604285Y-127457295D02*
X159413809Y-127362057D01*
X159413809Y-127362057D02*
X159032856Y-127266819D01*
X159032856Y-127266819D02*
X158842380Y-127171580D01*
X158842380Y-127171580D02*
X158747142Y-127076342D01*
X158747142Y-127076342D02*
X158651904Y-126885866D01*
X158651904Y-126885866D02*
X158651904Y-126695390D01*
X158651904Y-126695390D02*
X158747142Y-126504914D01*
X158747142Y-126504914D02*
X158842380Y-126409676D01*
X158842380Y-126409676D02*
X159032856Y-126314438D01*
X159032856Y-126314438D02*
X159509047Y-126314438D01*
X159509047Y-126314438D02*
X159794761Y-126409676D01*
X161604285Y-126314438D02*
X160651904Y-126314438D01*
X160651904Y-126314438D02*
X160556666Y-127266819D01*
X160556666Y-127266819D02*
X160651904Y-127171580D01*
X160651904Y-127171580D02*
X160842380Y-127076342D01*
X160842380Y-127076342D02*
X161318571Y-127076342D01*
X161318571Y-127076342D02*
X161509047Y-127171580D01*
X161509047Y-127171580D02*
X161604285Y-127266819D01*
X161604285Y-127266819D02*
X161699523Y-127457295D01*
X161699523Y-127457295D02*
X161699523Y-127933485D01*
X161699523Y-127933485D02*
X161604285Y-128123961D01*
X161604285Y-128123961D02*
X161509047Y-128219200D01*
X161509047Y-128219200D02*
X161318571Y-128314438D01*
X161318571Y-128314438D02*
X160842380Y-128314438D01*
X160842380Y-128314438D02*
X160651904Y-128219200D01*
X160651904Y-128219200D02*
X160556666Y-128123961D01*
X162937618Y-126314438D02*
X163128095Y-126314438D01*
X163128095Y-126314438D02*
X163318571Y-126409676D01*
X163318571Y-126409676D02*
X163413809Y-126504914D01*
X163413809Y-126504914D02*
X163509047Y-126695390D01*
X163509047Y-126695390D02*
X163604285Y-127076342D01*
X163604285Y-127076342D02*
X163604285Y-127552533D01*
X163604285Y-127552533D02*
X163509047Y-127933485D01*
X163509047Y-127933485D02*
X163413809Y-128123961D01*
X163413809Y-128123961D02*
X163318571Y-128219200D01*
X163318571Y-128219200D02*
X163128095Y-128314438D01*
X163128095Y-128314438D02*
X162937618Y-128314438D01*
X162937618Y-128314438D02*
X162747142Y-128219200D01*
X162747142Y-128219200D02*
X162651904Y-128123961D01*
X162651904Y-128123961D02*
X162556666Y-127933485D01*
X162556666Y-127933485D02*
X162461428Y-127552533D01*
X162461428Y-127552533D02*
X162461428Y-127076342D01*
X162461428Y-127076342D02*
X162556666Y-126695390D01*
X162556666Y-126695390D02*
X162651904Y-126504914D01*
X162651904Y-126504914D02*
X162747142Y-126409676D01*
X162747142Y-126409676D02*
X162937618Y-126314438D01*
X164842380Y-126314438D02*
X165032857Y-126314438D01*
X165032857Y-126314438D02*
X165223333Y-126409676D01*
X165223333Y-126409676D02*
X165318571Y-126504914D01*
X165318571Y-126504914D02*
X165413809Y-126695390D01*
X165413809Y-126695390D02*
X165509047Y-127076342D01*
X165509047Y-127076342D02*
X165509047Y-127552533D01*
X165509047Y-127552533D02*
X165413809Y-127933485D01*
X165413809Y-127933485D02*
X165318571Y-128123961D01*
X165318571Y-128123961D02*
X165223333Y-128219200D01*
X165223333Y-128219200D02*
X165032857Y-128314438D01*
X165032857Y-128314438D02*
X164842380Y-128314438D01*
X164842380Y-128314438D02*
X164651904Y-128219200D01*
X164651904Y-128219200D02*
X164556666Y-128123961D01*
X164556666Y-128123961D02*
X164461428Y-127933485D01*
X164461428Y-127933485D02*
X164366190Y-127552533D01*
X164366190Y-127552533D02*
X164366190Y-127076342D01*
X164366190Y-127076342D02*
X164461428Y-126695390D01*
X164461428Y-126695390D02*
X164556666Y-126504914D01*
X164556666Y-126504914D02*
X164651904Y-126409676D01*
X164651904Y-126409676D02*
X164842380Y-126314438D01*
X166175714Y-126314438D02*
X167413809Y-126314438D01*
X167413809Y-126314438D02*
X166747142Y-127076342D01*
X166747142Y-127076342D02*
X167032857Y-127076342D01*
X167032857Y-127076342D02*
X167223333Y-127171580D01*
X167223333Y-127171580D02*
X167318571Y-127266819D01*
X167318571Y-127266819D02*
X167413809Y-127457295D01*
X167413809Y-127457295D02*
X167413809Y-127933485D01*
X167413809Y-127933485D02*
X167318571Y-128123961D01*
X167318571Y-128123961D02*
X167223333Y-128219200D01*
X167223333Y-128219200D02*
X167032857Y-128314438D01*
X167032857Y-128314438D02*
X166461428Y-128314438D01*
X166461428Y-128314438D02*
X166270952Y-128219200D01*
X166270952Y-128219200D02*
X166175714Y-128123961D01*
D14*
X134710000Y-106935000D02*
G75*
G02*
X134440000Y-106935000I-135000J0D01*
G01*
X134440000Y-106935000D02*
G75*
G02*
X134710000Y-106935000I135000J0D01*
G01*
D10*
X101824405Y-104537100D02*
X101967262Y-104584719D01*
X101967262Y-104584719D02*
X102205357Y-104584719D01*
X102205357Y-104584719D02*
X102300595Y-104537100D01*
X102300595Y-104537100D02*
X102348214Y-104489480D01*
X102348214Y-104489480D02*
X102395833Y-104394242D01*
X102395833Y-104394242D02*
X102395833Y-104299004D01*
X102395833Y-104299004D02*
X102348214Y-104203766D01*
X102348214Y-104203766D02*
X102300595Y-104156147D01*
X102300595Y-104156147D02*
X102205357Y-104108528D01*
X102205357Y-104108528D02*
X102014881Y-104060909D01*
X102014881Y-104060909D02*
X101919643Y-104013290D01*
X101919643Y-104013290D02*
X101872024Y-103965671D01*
X101872024Y-103965671D02*
X101824405Y-103870433D01*
X101824405Y-103870433D02*
X101824405Y-103775195D01*
X101824405Y-103775195D02*
X101872024Y-103679957D01*
X101872024Y-103679957D02*
X101919643Y-103632338D01*
X101919643Y-103632338D02*
X102014881Y-103584719D01*
X102014881Y-103584719D02*
X102252976Y-103584719D01*
X102252976Y-103584719D02*
X102395833Y-103632338D01*
X103395833Y-104489480D02*
X103348214Y-104537100D01*
X103348214Y-104537100D02*
X103205357Y-104584719D01*
X103205357Y-104584719D02*
X103110119Y-104584719D01*
X103110119Y-104584719D02*
X102967262Y-104537100D01*
X102967262Y-104537100D02*
X102872024Y-104441861D01*
X102872024Y-104441861D02*
X102824405Y-104346623D01*
X102824405Y-104346623D02*
X102776786Y-104156147D01*
X102776786Y-104156147D02*
X102776786Y-104013290D01*
X102776786Y-104013290D02*
X102824405Y-103822814D01*
X102824405Y-103822814D02*
X102872024Y-103727576D01*
X102872024Y-103727576D02*
X102967262Y-103632338D01*
X102967262Y-103632338D02*
X103110119Y-103584719D01*
X103110119Y-103584719D02*
X103205357Y-103584719D01*
X103205357Y-103584719D02*
X103348214Y-103632338D01*
X103348214Y-103632338D02*
X103395833Y-103679957D01*
X103824405Y-104584719D02*
X103824405Y-103584719D01*
X103824405Y-103584719D02*
X104062500Y-103584719D01*
X104062500Y-103584719D02*
X104205357Y-103632338D01*
X104205357Y-103632338D02*
X104300595Y-103727576D01*
X104300595Y-103727576D02*
X104348214Y-103822814D01*
X104348214Y-103822814D02*
X104395833Y-104013290D01*
X104395833Y-104013290D02*
X104395833Y-104156147D01*
X104395833Y-104156147D02*
X104348214Y-104346623D01*
X104348214Y-104346623D02*
X104300595Y-104441861D01*
X104300595Y-104441861D02*
X104205357Y-104537100D01*
X104205357Y-104537100D02*
X104062500Y-104584719D01*
X104062500Y-104584719D02*
X103824405Y-104584719D01*
X105252976Y-103918052D02*
X105252976Y-104584719D01*
X105014881Y-103537100D02*
X104776786Y-104251385D01*
X104776786Y-104251385D02*
X105395833Y-104251385D01*
X105967262Y-103584719D02*
X106062500Y-103584719D01*
X106062500Y-103584719D02*
X106157738Y-103632338D01*
X106157738Y-103632338D02*
X106205357Y-103679957D01*
X106205357Y-103679957D02*
X106252976Y-103775195D01*
X106252976Y-103775195D02*
X106300595Y-103965671D01*
X106300595Y-103965671D02*
X106300595Y-104203766D01*
X106300595Y-104203766D02*
X106252976Y-104394242D01*
X106252976Y-104394242D02*
X106205357Y-104489480D01*
X106205357Y-104489480D02*
X106157738Y-104537100D01*
X106157738Y-104537100D02*
X106062500Y-104584719D01*
X106062500Y-104584719D02*
X105967262Y-104584719D01*
X105967262Y-104584719D02*
X105872024Y-104537100D01*
X105872024Y-104537100D02*
X105824405Y-104489480D01*
X105824405Y-104489480D02*
X105776786Y-104394242D01*
X105776786Y-104394242D02*
X105729167Y-104203766D01*
X105729167Y-104203766D02*
X105729167Y-103965671D01*
X105729167Y-103965671D02*
X105776786Y-103775195D01*
X105776786Y-103775195D02*
X105824405Y-103679957D01*
X105824405Y-103679957D02*
X105872024Y-103632338D01*
X105872024Y-103632338D02*
X105967262Y-103584719D01*
X109077143Y-103493409D02*
X109410476Y-103493409D01*
X109553333Y-104017219D02*
X109077143Y-104017219D01*
X109077143Y-104017219D02*
X109077143Y-103017219D01*
X109077143Y-103017219D02*
X109553333Y-103017219D01*
X109981905Y-104017219D02*
X109981905Y-103017219D01*
X109981905Y-103017219D02*
X110553333Y-104017219D01*
X110553333Y-104017219D02*
X110553333Y-103017219D01*
X110981905Y-103969600D02*
X111124762Y-104017219D01*
X111124762Y-104017219D02*
X111362857Y-104017219D01*
X111362857Y-104017219D02*
X111458095Y-103969600D01*
X111458095Y-103969600D02*
X111505714Y-103921980D01*
X111505714Y-103921980D02*
X111553333Y-103826742D01*
X111553333Y-103826742D02*
X111553333Y-103731504D01*
X111553333Y-103731504D02*
X111505714Y-103636266D01*
X111505714Y-103636266D02*
X111458095Y-103588647D01*
X111458095Y-103588647D02*
X111362857Y-103541028D01*
X111362857Y-103541028D02*
X111172381Y-103493409D01*
X111172381Y-103493409D02*
X111077143Y-103445790D01*
X111077143Y-103445790D02*
X111029524Y-103398171D01*
X111029524Y-103398171D02*
X110981905Y-103302933D01*
X110981905Y-103302933D02*
X110981905Y-103207695D01*
X110981905Y-103207695D02*
X111029524Y-103112457D01*
X111029524Y-103112457D02*
X111077143Y-103064838D01*
X111077143Y-103064838D02*
X111172381Y-103017219D01*
X111172381Y-103017219D02*
X111410476Y-103017219D01*
X111410476Y-103017219D02*
X111553333Y-103064838D01*
X112505714Y-104017219D02*
X111934286Y-104017219D01*
X112220000Y-104017219D02*
X112220000Y-103017219D01*
X112220000Y-103017219D02*
X112124762Y-103160076D01*
X112124762Y-103160076D02*
X112029524Y-103255314D01*
X112029524Y-103255314D02*
X111934286Y-103302933D01*
X113362857Y-103017219D02*
X113172381Y-103017219D01*
X113172381Y-103017219D02*
X113077143Y-103064838D01*
X113077143Y-103064838D02*
X113029524Y-103112457D01*
X113029524Y-103112457D02*
X112934286Y-103255314D01*
X112934286Y-103255314D02*
X112886667Y-103445790D01*
X112886667Y-103445790D02*
X112886667Y-103826742D01*
X112886667Y-103826742D02*
X112934286Y-103921980D01*
X112934286Y-103921980D02*
X112981905Y-103969600D01*
X112981905Y-103969600D02*
X113077143Y-104017219D01*
X113077143Y-104017219D02*
X113267619Y-104017219D01*
X113267619Y-104017219D02*
X113362857Y-103969600D01*
X113362857Y-103969600D02*
X113410476Y-103921980D01*
X113410476Y-103921980D02*
X113458095Y-103826742D01*
X113458095Y-103826742D02*
X113458095Y-103588647D01*
X113458095Y-103588647D02*
X113410476Y-103493409D01*
X113410476Y-103493409D02*
X113362857Y-103445790D01*
X113362857Y-103445790D02*
X113267619Y-103398171D01*
X113267619Y-103398171D02*
X113077143Y-103398171D01*
X113077143Y-103398171D02*
X112981905Y-103445790D01*
X112981905Y-103445790D02*
X112934286Y-103493409D01*
X112934286Y-103493409D02*
X112886667Y-103588647D01*
X114077143Y-103017219D02*
X114172381Y-103017219D01*
X114172381Y-103017219D02*
X114267619Y-103064838D01*
X114267619Y-103064838D02*
X114315238Y-103112457D01*
X114315238Y-103112457D02*
X114362857Y-103207695D01*
X114362857Y-103207695D02*
X114410476Y-103398171D01*
X114410476Y-103398171D02*
X114410476Y-103636266D01*
X114410476Y-103636266D02*
X114362857Y-103826742D01*
X114362857Y-103826742D02*
X114315238Y-103921980D01*
X114315238Y-103921980D02*
X114267619Y-103969600D01*
X114267619Y-103969600D02*
X114172381Y-104017219D01*
X114172381Y-104017219D02*
X114077143Y-104017219D01*
X114077143Y-104017219D02*
X113981905Y-103969600D01*
X113981905Y-103969600D02*
X113934286Y-103921980D01*
X113934286Y-103921980D02*
X113886667Y-103826742D01*
X113886667Y-103826742D02*
X113839048Y-103636266D01*
X113839048Y-103636266D02*
X113839048Y-103398171D01*
X113839048Y-103398171D02*
X113886667Y-103207695D01*
X113886667Y-103207695D02*
X113934286Y-103112457D01*
X113934286Y-103112457D02*
X113981905Y-103064838D01*
X113981905Y-103064838D02*
X114077143Y-103017219D01*
X133456905Y-105854600D02*
X133599762Y-105902219D01*
X133599762Y-105902219D02*
X133837857Y-105902219D01*
X133837857Y-105902219D02*
X133933095Y-105854600D01*
X133933095Y-105854600D02*
X133980714Y-105806980D01*
X133980714Y-105806980D02*
X134028333Y-105711742D01*
X134028333Y-105711742D02*
X134028333Y-105616504D01*
X134028333Y-105616504D02*
X133980714Y-105521266D01*
X133980714Y-105521266D02*
X133933095Y-105473647D01*
X133933095Y-105473647D02*
X133837857Y-105426028D01*
X133837857Y-105426028D02*
X133647381Y-105378409D01*
X133647381Y-105378409D02*
X133552143Y-105330790D01*
X133552143Y-105330790D02*
X133504524Y-105283171D01*
X133504524Y-105283171D02*
X133456905Y-105187933D01*
X133456905Y-105187933D02*
X133456905Y-105092695D01*
X133456905Y-105092695D02*
X133504524Y-104997457D01*
X133504524Y-104997457D02*
X133552143Y-104949838D01*
X133552143Y-104949838D02*
X133647381Y-104902219D01*
X133647381Y-104902219D02*
X133885476Y-104902219D01*
X133885476Y-104902219D02*
X134028333Y-104949838D01*
X134980714Y-104949838D02*
X134885476Y-104902219D01*
X134885476Y-104902219D02*
X134742619Y-104902219D01*
X134742619Y-104902219D02*
X134599762Y-104949838D01*
X134599762Y-104949838D02*
X134504524Y-105045076D01*
X134504524Y-105045076D02*
X134456905Y-105140314D01*
X134456905Y-105140314D02*
X134409286Y-105330790D01*
X134409286Y-105330790D02*
X134409286Y-105473647D01*
X134409286Y-105473647D02*
X134456905Y-105664123D01*
X134456905Y-105664123D02*
X134504524Y-105759361D01*
X134504524Y-105759361D02*
X134599762Y-105854600D01*
X134599762Y-105854600D02*
X134742619Y-105902219D01*
X134742619Y-105902219D02*
X134837857Y-105902219D01*
X134837857Y-105902219D02*
X134980714Y-105854600D01*
X134980714Y-105854600D02*
X135028333Y-105806980D01*
X135028333Y-105806980D02*
X135028333Y-105473647D01*
X135028333Y-105473647D02*
X134837857Y-105473647D01*
X135456905Y-105902219D02*
X135456905Y-104902219D01*
X135456905Y-104902219D02*
X135837857Y-104902219D01*
X135837857Y-104902219D02*
X135933095Y-104949838D01*
X135933095Y-104949838D02*
X135980714Y-104997457D01*
X135980714Y-104997457D02*
X136028333Y-105092695D01*
X136028333Y-105092695D02*
X136028333Y-105235552D01*
X136028333Y-105235552D02*
X135980714Y-105330790D01*
X135980714Y-105330790D02*
X135933095Y-105378409D01*
X135933095Y-105378409D02*
X135837857Y-105426028D01*
X135837857Y-105426028D02*
X135456905Y-105426028D01*
X136885476Y-105235552D02*
X136885476Y-105902219D01*
X136647381Y-104854600D02*
X136409286Y-105568885D01*
X136409286Y-105568885D02*
X137028333Y-105568885D01*
X137933095Y-105902219D02*
X137361667Y-105902219D01*
X137647381Y-105902219D02*
X137647381Y-104902219D01*
X137647381Y-104902219D02*
X137552143Y-105045076D01*
X137552143Y-105045076D02*
X137456905Y-105140314D01*
X137456905Y-105140314D02*
X137361667Y-105187933D01*
X117340476Y-103440909D02*
X117483333Y-103488528D01*
X117483333Y-103488528D02*
X117530952Y-103536147D01*
X117530952Y-103536147D02*
X117578571Y-103631385D01*
X117578571Y-103631385D02*
X117578571Y-103774242D01*
X117578571Y-103774242D02*
X117530952Y-103869480D01*
X117530952Y-103869480D02*
X117483333Y-103917100D01*
X117483333Y-103917100D02*
X117388095Y-103964719D01*
X117388095Y-103964719D02*
X117007143Y-103964719D01*
X117007143Y-103964719D02*
X117007143Y-102964719D01*
X117007143Y-102964719D02*
X117340476Y-102964719D01*
X117340476Y-102964719D02*
X117435714Y-103012338D01*
X117435714Y-103012338D02*
X117483333Y-103059957D01*
X117483333Y-103059957D02*
X117530952Y-103155195D01*
X117530952Y-103155195D02*
X117530952Y-103250433D01*
X117530952Y-103250433D02*
X117483333Y-103345671D01*
X117483333Y-103345671D02*
X117435714Y-103393290D01*
X117435714Y-103393290D02*
X117340476Y-103440909D01*
X117340476Y-103440909D02*
X117007143Y-103440909D01*
X118007143Y-103964719D02*
X118007143Y-102964719D01*
X118007143Y-102964719D02*
X118340476Y-103679004D01*
X118340476Y-103679004D02*
X118673809Y-102964719D01*
X118673809Y-102964719D02*
X118673809Y-103964719D01*
X119150000Y-103440909D02*
X119483333Y-103440909D01*
X119626190Y-103964719D02*
X119150000Y-103964719D01*
X119150000Y-103964719D02*
X119150000Y-102964719D01*
X119150000Y-102964719D02*
X119626190Y-102964719D01*
X120769048Y-103298052D02*
X121483333Y-103298052D01*
X121054762Y-102869480D02*
X120769048Y-104155195D01*
X121388095Y-103726623D02*
X120673810Y-103726623D01*
X121102381Y-104155195D02*
X121388095Y-102869480D01*
X122340476Y-103964719D02*
X121769048Y-103964719D01*
X122054762Y-103964719D02*
X122054762Y-102964719D01*
X122054762Y-102964719D02*
X121959524Y-103107576D01*
X121959524Y-103107576D02*
X121864286Y-103202814D01*
X121864286Y-103202814D02*
X121769048Y-103250433D01*
X124850476Y-103383409D02*
X124993333Y-103431028D01*
X124993333Y-103431028D02*
X125040952Y-103478647D01*
X125040952Y-103478647D02*
X125088571Y-103573885D01*
X125088571Y-103573885D02*
X125088571Y-103716742D01*
X125088571Y-103716742D02*
X125040952Y-103811980D01*
X125040952Y-103811980D02*
X124993333Y-103859600D01*
X124993333Y-103859600D02*
X124898095Y-103907219D01*
X124898095Y-103907219D02*
X124517143Y-103907219D01*
X124517143Y-103907219D02*
X124517143Y-102907219D01*
X124517143Y-102907219D02*
X124850476Y-102907219D01*
X124850476Y-102907219D02*
X124945714Y-102954838D01*
X124945714Y-102954838D02*
X124993333Y-103002457D01*
X124993333Y-103002457D02*
X125040952Y-103097695D01*
X125040952Y-103097695D02*
X125040952Y-103192933D01*
X125040952Y-103192933D02*
X124993333Y-103288171D01*
X124993333Y-103288171D02*
X124945714Y-103335790D01*
X124945714Y-103335790D02*
X124850476Y-103383409D01*
X124850476Y-103383409D02*
X124517143Y-103383409D01*
X125517143Y-103907219D02*
X125517143Y-102907219D01*
X125517143Y-102907219D02*
X125850476Y-103621504D01*
X125850476Y-103621504D02*
X126183809Y-102907219D01*
X126183809Y-102907219D02*
X126183809Y-103907219D01*
X126660000Y-103383409D02*
X126993333Y-103383409D01*
X127136190Y-103907219D02*
X126660000Y-103907219D01*
X126660000Y-103907219D02*
X126660000Y-102907219D01*
X126660000Y-102907219D02*
X127136190Y-102907219D01*
X128279048Y-103240552D02*
X128993333Y-103240552D01*
X128564762Y-102811980D02*
X128279048Y-104097695D01*
X128898095Y-103669123D02*
X128183810Y-103669123D01*
X128612381Y-104097695D02*
X128898095Y-102811980D01*
X129279048Y-103002457D02*
X129326667Y-102954838D01*
X129326667Y-102954838D02*
X129421905Y-102907219D01*
X129421905Y-102907219D02*
X129660000Y-102907219D01*
X129660000Y-102907219D02*
X129755238Y-102954838D01*
X129755238Y-102954838D02*
X129802857Y-103002457D01*
X129802857Y-103002457D02*
X129850476Y-103097695D01*
X129850476Y-103097695D02*
X129850476Y-103192933D01*
X129850476Y-103192933D02*
X129802857Y-103335790D01*
X129802857Y-103335790D02*
X129231429Y-103907219D01*
X129231429Y-103907219D02*
X129850476Y-103907219D01*
D11*
X87843333Y-135259312D02*
X88129047Y-135354550D01*
X88129047Y-135354550D02*
X88605238Y-135354550D01*
X88605238Y-135354550D02*
X88795714Y-135259312D01*
X88795714Y-135259312D02*
X88890952Y-135164073D01*
X88890952Y-135164073D02*
X88986190Y-134973597D01*
X88986190Y-134973597D02*
X88986190Y-134783121D01*
X88986190Y-134783121D02*
X88890952Y-134592645D01*
X88890952Y-134592645D02*
X88795714Y-134497407D01*
X88795714Y-134497407D02*
X88605238Y-134402169D01*
X88605238Y-134402169D02*
X88224285Y-134306931D01*
X88224285Y-134306931D02*
X88033809Y-134211692D01*
X88033809Y-134211692D02*
X87938571Y-134116454D01*
X87938571Y-134116454D02*
X87843333Y-133925978D01*
X87843333Y-133925978D02*
X87843333Y-133735502D01*
X87843333Y-133735502D02*
X87938571Y-133545026D01*
X87938571Y-133545026D02*
X88033809Y-133449788D01*
X88033809Y-133449788D02*
X88224285Y-133354550D01*
X88224285Y-133354550D02*
X88700476Y-133354550D01*
X88700476Y-133354550D02*
X88986190Y-133449788D01*
X90605238Y-135259312D02*
X90414762Y-135354550D01*
X90414762Y-135354550D02*
X90033809Y-135354550D01*
X90033809Y-135354550D02*
X89843333Y-135259312D01*
X89843333Y-135259312D02*
X89748095Y-135068835D01*
X89748095Y-135068835D02*
X89748095Y-134306931D01*
X89748095Y-134306931D02*
X89843333Y-134116454D01*
X89843333Y-134116454D02*
X90033809Y-134021216D01*
X90033809Y-134021216D02*
X90414762Y-134021216D01*
X90414762Y-134021216D02*
X90605238Y-134116454D01*
X90605238Y-134116454D02*
X90700476Y-134306931D01*
X90700476Y-134306931D02*
X90700476Y-134497407D01*
X90700476Y-134497407D02*
X89748095Y-134687883D01*
X91557619Y-134021216D02*
X91557619Y-135354550D01*
X91557619Y-134211692D02*
X91652857Y-134116454D01*
X91652857Y-134116454D02*
X91843333Y-134021216D01*
X91843333Y-134021216D02*
X92129048Y-134021216D01*
X92129048Y-134021216D02*
X92319524Y-134116454D01*
X92319524Y-134116454D02*
X92414762Y-134306931D01*
X92414762Y-134306931D02*
X92414762Y-135354550D01*
X93271905Y-135259312D02*
X93462381Y-135354550D01*
X93462381Y-135354550D02*
X93843333Y-135354550D01*
X93843333Y-135354550D02*
X94033810Y-135259312D01*
X94033810Y-135259312D02*
X94129048Y-135068835D01*
X94129048Y-135068835D02*
X94129048Y-134973597D01*
X94129048Y-134973597D02*
X94033810Y-134783121D01*
X94033810Y-134783121D02*
X93843333Y-134687883D01*
X93843333Y-134687883D02*
X93557619Y-134687883D01*
X93557619Y-134687883D02*
X93367143Y-134592645D01*
X93367143Y-134592645D02*
X93271905Y-134402169D01*
X93271905Y-134402169D02*
X93271905Y-134306931D01*
X93271905Y-134306931D02*
X93367143Y-134116454D01*
X93367143Y-134116454D02*
X93557619Y-134021216D01*
X93557619Y-134021216D02*
X93843333Y-134021216D01*
X93843333Y-134021216D02*
X94033810Y-134116454D01*
X95271905Y-135354550D02*
X95081429Y-135259312D01*
X95081429Y-135259312D02*
X94986191Y-135164073D01*
X94986191Y-135164073D02*
X94890953Y-134973597D01*
X94890953Y-134973597D02*
X94890953Y-134402169D01*
X94890953Y-134402169D02*
X94986191Y-134211692D01*
X94986191Y-134211692D02*
X95081429Y-134116454D01*
X95081429Y-134116454D02*
X95271905Y-134021216D01*
X95271905Y-134021216D02*
X95557620Y-134021216D01*
X95557620Y-134021216D02*
X95748096Y-134116454D01*
X95748096Y-134116454D02*
X95843334Y-134211692D01*
X95843334Y-134211692D02*
X95938572Y-134402169D01*
X95938572Y-134402169D02*
X95938572Y-134973597D01*
X95938572Y-134973597D02*
X95843334Y-135164073D01*
X95843334Y-135164073D02*
X95748096Y-135259312D01*
X95748096Y-135259312D02*
X95557620Y-135354550D01*
X95557620Y-135354550D02*
X95271905Y-135354550D01*
X96795715Y-135354550D02*
X96795715Y-134021216D01*
X96795715Y-134402169D02*
X96890953Y-134211692D01*
X96890953Y-134211692D02*
X96986191Y-134116454D01*
X96986191Y-134116454D02*
X97176667Y-134021216D01*
X97176667Y-134021216D02*
X97367144Y-134021216D01*
X93081428Y-138574438D02*
X91938571Y-138574438D01*
X92509999Y-138574438D02*
X92509999Y-136574438D01*
X92509999Y-136574438D02*
X92319523Y-136860152D01*
X92319523Y-136860152D02*
X92129047Y-137050628D01*
X92129047Y-137050628D02*
X91938571Y-137145866D01*
X138993333Y-135259312D02*
X139279047Y-135354550D01*
X139279047Y-135354550D02*
X139755238Y-135354550D01*
X139755238Y-135354550D02*
X139945714Y-135259312D01*
X139945714Y-135259312D02*
X140040952Y-135164073D01*
X140040952Y-135164073D02*
X140136190Y-134973597D01*
X140136190Y-134973597D02*
X140136190Y-134783121D01*
X140136190Y-134783121D02*
X140040952Y-134592645D01*
X140040952Y-134592645D02*
X139945714Y-134497407D01*
X139945714Y-134497407D02*
X139755238Y-134402169D01*
X139755238Y-134402169D02*
X139374285Y-134306931D01*
X139374285Y-134306931D02*
X139183809Y-134211692D01*
X139183809Y-134211692D02*
X139088571Y-134116454D01*
X139088571Y-134116454D02*
X138993333Y-133925978D01*
X138993333Y-133925978D02*
X138993333Y-133735502D01*
X138993333Y-133735502D02*
X139088571Y-133545026D01*
X139088571Y-133545026D02*
X139183809Y-133449788D01*
X139183809Y-133449788D02*
X139374285Y-133354550D01*
X139374285Y-133354550D02*
X139850476Y-133354550D01*
X139850476Y-133354550D02*
X140136190Y-133449788D01*
X141755238Y-135259312D02*
X141564762Y-135354550D01*
X141564762Y-135354550D02*
X141183809Y-135354550D01*
X141183809Y-135354550D02*
X140993333Y-135259312D01*
X140993333Y-135259312D02*
X140898095Y-135068835D01*
X140898095Y-135068835D02*
X140898095Y-134306931D01*
X140898095Y-134306931D02*
X140993333Y-134116454D01*
X140993333Y-134116454D02*
X141183809Y-134021216D01*
X141183809Y-134021216D02*
X141564762Y-134021216D01*
X141564762Y-134021216D02*
X141755238Y-134116454D01*
X141755238Y-134116454D02*
X141850476Y-134306931D01*
X141850476Y-134306931D02*
X141850476Y-134497407D01*
X141850476Y-134497407D02*
X140898095Y-134687883D01*
X142707619Y-134021216D02*
X142707619Y-135354550D01*
X142707619Y-134211692D02*
X142802857Y-134116454D01*
X142802857Y-134116454D02*
X142993333Y-134021216D01*
X142993333Y-134021216D02*
X143279048Y-134021216D01*
X143279048Y-134021216D02*
X143469524Y-134116454D01*
X143469524Y-134116454D02*
X143564762Y-134306931D01*
X143564762Y-134306931D02*
X143564762Y-135354550D01*
X144421905Y-135259312D02*
X144612381Y-135354550D01*
X144612381Y-135354550D02*
X144993333Y-135354550D01*
X144993333Y-135354550D02*
X145183810Y-135259312D01*
X145183810Y-135259312D02*
X145279048Y-135068835D01*
X145279048Y-135068835D02*
X145279048Y-134973597D01*
X145279048Y-134973597D02*
X145183810Y-134783121D01*
X145183810Y-134783121D02*
X144993333Y-134687883D01*
X144993333Y-134687883D02*
X144707619Y-134687883D01*
X144707619Y-134687883D02*
X144517143Y-134592645D01*
X144517143Y-134592645D02*
X144421905Y-134402169D01*
X144421905Y-134402169D02*
X144421905Y-134306931D01*
X144421905Y-134306931D02*
X144517143Y-134116454D01*
X144517143Y-134116454D02*
X144707619Y-134021216D01*
X144707619Y-134021216D02*
X144993333Y-134021216D01*
X144993333Y-134021216D02*
X145183810Y-134116454D01*
X146421905Y-135354550D02*
X146231429Y-135259312D01*
X146231429Y-135259312D02*
X146136191Y-135164073D01*
X146136191Y-135164073D02*
X146040953Y-134973597D01*
X146040953Y-134973597D02*
X146040953Y-134402169D01*
X146040953Y-134402169D02*
X146136191Y-134211692D01*
X146136191Y-134211692D02*
X146231429Y-134116454D01*
X146231429Y-134116454D02*
X146421905Y-134021216D01*
X146421905Y-134021216D02*
X146707620Y-134021216D01*
X146707620Y-134021216D02*
X146898096Y-134116454D01*
X146898096Y-134116454D02*
X146993334Y-134211692D01*
X146993334Y-134211692D02*
X147088572Y-134402169D01*
X147088572Y-134402169D02*
X147088572Y-134973597D01*
X147088572Y-134973597D02*
X146993334Y-135164073D01*
X146993334Y-135164073D02*
X146898096Y-135259312D01*
X146898096Y-135259312D02*
X146707620Y-135354550D01*
X146707620Y-135354550D02*
X146421905Y-135354550D01*
X147945715Y-135354550D02*
X147945715Y-134021216D01*
X147945715Y-134402169D02*
X148040953Y-134211692D01*
X148040953Y-134211692D02*
X148136191Y-134116454D01*
X148136191Y-134116454D02*
X148326667Y-134021216D01*
X148326667Y-134021216D02*
X148517144Y-134021216D01*
X144040952Y-137241104D02*
X144040952Y-138574438D01*
X143564761Y-136479200D02*
X143088571Y-137907771D01*
X143088571Y-137907771D02*
X144326666Y-137907771D01*
X121163333Y-135259312D02*
X121449047Y-135354550D01*
X121449047Y-135354550D02*
X121925238Y-135354550D01*
X121925238Y-135354550D02*
X122115714Y-135259312D01*
X122115714Y-135259312D02*
X122210952Y-135164073D01*
X122210952Y-135164073D02*
X122306190Y-134973597D01*
X122306190Y-134973597D02*
X122306190Y-134783121D01*
X122306190Y-134783121D02*
X122210952Y-134592645D01*
X122210952Y-134592645D02*
X122115714Y-134497407D01*
X122115714Y-134497407D02*
X121925238Y-134402169D01*
X121925238Y-134402169D02*
X121544285Y-134306931D01*
X121544285Y-134306931D02*
X121353809Y-134211692D01*
X121353809Y-134211692D02*
X121258571Y-134116454D01*
X121258571Y-134116454D02*
X121163333Y-133925978D01*
X121163333Y-133925978D02*
X121163333Y-133735502D01*
X121163333Y-133735502D02*
X121258571Y-133545026D01*
X121258571Y-133545026D02*
X121353809Y-133449788D01*
X121353809Y-133449788D02*
X121544285Y-133354550D01*
X121544285Y-133354550D02*
X122020476Y-133354550D01*
X122020476Y-133354550D02*
X122306190Y-133449788D01*
X123925238Y-135259312D02*
X123734762Y-135354550D01*
X123734762Y-135354550D02*
X123353809Y-135354550D01*
X123353809Y-135354550D02*
X123163333Y-135259312D01*
X123163333Y-135259312D02*
X123068095Y-135068835D01*
X123068095Y-135068835D02*
X123068095Y-134306931D01*
X123068095Y-134306931D02*
X123163333Y-134116454D01*
X123163333Y-134116454D02*
X123353809Y-134021216D01*
X123353809Y-134021216D02*
X123734762Y-134021216D01*
X123734762Y-134021216D02*
X123925238Y-134116454D01*
X123925238Y-134116454D02*
X124020476Y-134306931D01*
X124020476Y-134306931D02*
X124020476Y-134497407D01*
X124020476Y-134497407D02*
X123068095Y-134687883D01*
X124877619Y-134021216D02*
X124877619Y-135354550D01*
X124877619Y-134211692D02*
X124972857Y-134116454D01*
X124972857Y-134116454D02*
X125163333Y-134021216D01*
X125163333Y-134021216D02*
X125449048Y-134021216D01*
X125449048Y-134021216D02*
X125639524Y-134116454D01*
X125639524Y-134116454D02*
X125734762Y-134306931D01*
X125734762Y-134306931D02*
X125734762Y-135354550D01*
X126591905Y-135259312D02*
X126782381Y-135354550D01*
X126782381Y-135354550D02*
X127163333Y-135354550D01*
X127163333Y-135354550D02*
X127353810Y-135259312D01*
X127353810Y-135259312D02*
X127449048Y-135068835D01*
X127449048Y-135068835D02*
X127449048Y-134973597D01*
X127449048Y-134973597D02*
X127353810Y-134783121D01*
X127353810Y-134783121D02*
X127163333Y-134687883D01*
X127163333Y-134687883D02*
X126877619Y-134687883D01*
X126877619Y-134687883D02*
X126687143Y-134592645D01*
X126687143Y-134592645D02*
X126591905Y-134402169D01*
X126591905Y-134402169D02*
X126591905Y-134306931D01*
X126591905Y-134306931D02*
X126687143Y-134116454D01*
X126687143Y-134116454D02*
X126877619Y-134021216D01*
X126877619Y-134021216D02*
X127163333Y-134021216D01*
X127163333Y-134021216D02*
X127353810Y-134116454D01*
X128591905Y-135354550D02*
X128401429Y-135259312D01*
X128401429Y-135259312D02*
X128306191Y-135164073D01*
X128306191Y-135164073D02*
X128210953Y-134973597D01*
X128210953Y-134973597D02*
X128210953Y-134402169D01*
X128210953Y-134402169D02*
X128306191Y-134211692D01*
X128306191Y-134211692D02*
X128401429Y-134116454D01*
X128401429Y-134116454D02*
X128591905Y-134021216D01*
X128591905Y-134021216D02*
X128877620Y-134021216D01*
X128877620Y-134021216D02*
X129068096Y-134116454D01*
X129068096Y-134116454D02*
X129163334Y-134211692D01*
X129163334Y-134211692D02*
X129258572Y-134402169D01*
X129258572Y-134402169D02*
X129258572Y-134973597D01*
X129258572Y-134973597D02*
X129163334Y-135164073D01*
X129163334Y-135164073D02*
X129068096Y-135259312D01*
X129068096Y-135259312D02*
X128877620Y-135354550D01*
X128877620Y-135354550D02*
X128591905Y-135354550D01*
X130115715Y-135354550D02*
X130115715Y-134021216D01*
X130115715Y-134402169D02*
X130210953Y-134211692D01*
X130210953Y-134211692D02*
X130306191Y-134116454D01*
X130306191Y-134116454D02*
X130496667Y-134021216D01*
X130496667Y-134021216D02*
X130687144Y-134021216D01*
X125163333Y-136574438D02*
X126401428Y-136574438D01*
X126401428Y-136574438D02*
X125734761Y-137336342D01*
X125734761Y-137336342D02*
X126020476Y-137336342D01*
X126020476Y-137336342D02*
X126210952Y-137431580D01*
X126210952Y-137431580D02*
X126306190Y-137526819D01*
X126306190Y-137526819D02*
X126401428Y-137717295D01*
X126401428Y-137717295D02*
X126401428Y-138193485D01*
X126401428Y-138193485D02*
X126306190Y-138383961D01*
X126306190Y-138383961D02*
X126210952Y-138479200D01*
X126210952Y-138479200D02*
X126020476Y-138574438D01*
X126020476Y-138574438D02*
X125449047Y-138574438D01*
X125449047Y-138574438D02*
X125258571Y-138479200D01*
X125258571Y-138479200D02*
X125163333Y-138383961D01*
X103213333Y-135259312D02*
X103499047Y-135354550D01*
X103499047Y-135354550D02*
X103975238Y-135354550D01*
X103975238Y-135354550D02*
X104165714Y-135259312D01*
X104165714Y-135259312D02*
X104260952Y-135164073D01*
X104260952Y-135164073D02*
X104356190Y-134973597D01*
X104356190Y-134973597D02*
X104356190Y-134783121D01*
X104356190Y-134783121D02*
X104260952Y-134592645D01*
X104260952Y-134592645D02*
X104165714Y-134497407D01*
X104165714Y-134497407D02*
X103975238Y-134402169D01*
X103975238Y-134402169D02*
X103594285Y-134306931D01*
X103594285Y-134306931D02*
X103403809Y-134211692D01*
X103403809Y-134211692D02*
X103308571Y-134116454D01*
X103308571Y-134116454D02*
X103213333Y-133925978D01*
X103213333Y-133925978D02*
X103213333Y-133735502D01*
X103213333Y-133735502D02*
X103308571Y-133545026D01*
X103308571Y-133545026D02*
X103403809Y-133449788D01*
X103403809Y-133449788D02*
X103594285Y-133354550D01*
X103594285Y-133354550D02*
X104070476Y-133354550D01*
X104070476Y-133354550D02*
X104356190Y-133449788D01*
X105975238Y-135259312D02*
X105784762Y-135354550D01*
X105784762Y-135354550D02*
X105403809Y-135354550D01*
X105403809Y-135354550D02*
X105213333Y-135259312D01*
X105213333Y-135259312D02*
X105118095Y-135068835D01*
X105118095Y-135068835D02*
X105118095Y-134306931D01*
X105118095Y-134306931D02*
X105213333Y-134116454D01*
X105213333Y-134116454D02*
X105403809Y-134021216D01*
X105403809Y-134021216D02*
X105784762Y-134021216D01*
X105784762Y-134021216D02*
X105975238Y-134116454D01*
X105975238Y-134116454D02*
X106070476Y-134306931D01*
X106070476Y-134306931D02*
X106070476Y-134497407D01*
X106070476Y-134497407D02*
X105118095Y-134687883D01*
X106927619Y-134021216D02*
X106927619Y-135354550D01*
X106927619Y-134211692D02*
X107022857Y-134116454D01*
X107022857Y-134116454D02*
X107213333Y-134021216D01*
X107213333Y-134021216D02*
X107499048Y-134021216D01*
X107499048Y-134021216D02*
X107689524Y-134116454D01*
X107689524Y-134116454D02*
X107784762Y-134306931D01*
X107784762Y-134306931D02*
X107784762Y-135354550D01*
X108641905Y-135259312D02*
X108832381Y-135354550D01*
X108832381Y-135354550D02*
X109213333Y-135354550D01*
X109213333Y-135354550D02*
X109403810Y-135259312D01*
X109403810Y-135259312D02*
X109499048Y-135068835D01*
X109499048Y-135068835D02*
X109499048Y-134973597D01*
X109499048Y-134973597D02*
X109403810Y-134783121D01*
X109403810Y-134783121D02*
X109213333Y-134687883D01*
X109213333Y-134687883D02*
X108927619Y-134687883D01*
X108927619Y-134687883D02*
X108737143Y-134592645D01*
X108737143Y-134592645D02*
X108641905Y-134402169D01*
X108641905Y-134402169D02*
X108641905Y-134306931D01*
X108641905Y-134306931D02*
X108737143Y-134116454D01*
X108737143Y-134116454D02*
X108927619Y-134021216D01*
X108927619Y-134021216D02*
X109213333Y-134021216D01*
X109213333Y-134021216D02*
X109403810Y-134116454D01*
X110641905Y-135354550D02*
X110451429Y-135259312D01*
X110451429Y-135259312D02*
X110356191Y-135164073D01*
X110356191Y-135164073D02*
X110260953Y-134973597D01*
X110260953Y-134973597D02*
X110260953Y-134402169D01*
X110260953Y-134402169D02*
X110356191Y-134211692D01*
X110356191Y-134211692D02*
X110451429Y-134116454D01*
X110451429Y-134116454D02*
X110641905Y-134021216D01*
X110641905Y-134021216D02*
X110927620Y-134021216D01*
X110927620Y-134021216D02*
X111118096Y-134116454D01*
X111118096Y-134116454D02*
X111213334Y-134211692D01*
X111213334Y-134211692D02*
X111308572Y-134402169D01*
X111308572Y-134402169D02*
X111308572Y-134973597D01*
X111308572Y-134973597D02*
X111213334Y-135164073D01*
X111213334Y-135164073D02*
X111118096Y-135259312D01*
X111118096Y-135259312D02*
X110927620Y-135354550D01*
X110927620Y-135354550D02*
X110641905Y-135354550D01*
X112165715Y-135354550D02*
X112165715Y-134021216D01*
X112165715Y-134402169D02*
X112260953Y-134211692D01*
X112260953Y-134211692D02*
X112356191Y-134116454D01*
X112356191Y-134116454D02*
X112546667Y-134021216D01*
X112546667Y-134021216D02*
X112737144Y-134021216D01*
X107308571Y-136764914D02*
X107403809Y-136669676D01*
X107403809Y-136669676D02*
X107594285Y-136574438D01*
X107594285Y-136574438D02*
X108070476Y-136574438D01*
X108070476Y-136574438D02*
X108260952Y-136669676D01*
X108260952Y-136669676D02*
X108356190Y-136764914D01*
X108356190Y-136764914D02*
X108451428Y-136955390D01*
X108451428Y-136955390D02*
X108451428Y-137145866D01*
X108451428Y-137145866D02*
X108356190Y-137431580D01*
X108356190Y-137431580D02*
X107213333Y-138574438D01*
X107213333Y-138574438D02*
X108451428Y-138574438D01*
D12*
X173200000Y-99450000D02*
X171400000Y-99450000D01*
X173200000Y-99450000D02*
X172600000Y-99050000D01*
X173200000Y-99450000D02*
X172600000Y-99850000D01*
D15*
X171722228Y-98492856D02*
X171769847Y-98349999D01*
X171769847Y-98349999D02*
X171769847Y-98111904D01*
X171769847Y-98111904D02*
X171722228Y-98016666D01*
X171722228Y-98016666D02*
X171674608Y-97969047D01*
X171674608Y-97969047D02*
X171579370Y-97921428D01*
X171579370Y-97921428D02*
X171484132Y-97921428D01*
X171484132Y-97921428D02*
X171388894Y-97969047D01*
X171388894Y-97969047D02*
X171341275Y-98016666D01*
X171341275Y-98016666D02*
X171293656Y-98111904D01*
X171293656Y-98111904D02*
X171246037Y-98302380D01*
X171246037Y-98302380D02*
X171198418Y-98397618D01*
X171198418Y-98397618D02*
X171150799Y-98445237D01*
X171150799Y-98445237D02*
X171055561Y-98492856D01*
X171055561Y-98492856D02*
X170960323Y-98492856D01*
X170960323Y-98492856D02*
X170865085Y-98445237D01*
X170865085Y-98445237D02*
X170817466Y-98397618D01*
X170817466Y-98397618D02*
X170769847Y-98302380D01*
X170769847Y-98302380D02*
X170769847Y-98064285D01*
X170769847Y-98064285D02*
X170817466Y-97921428D01*
X171246037Y-97492856D02*
X171246037Y-97159523D01*
X171769847Y-97016666D02*
X171769847Y-97492856D01*
X171769847Y-97492856D02*
X170769847Y-97492856D01*
X170769847Y-97492856D02*
X170769847Y-97016666D01*
X171769847Y-96111904D02*
X171769847Y-96588094D01*
X171769847Y-96588094D02*
X170769847Y-96588094D01*
X173379791Y-97992857D02*
X173379791Y-98469047D01*
X173379791Y-98469047D02*
X172379791Y-98469047D01*
X172855981Y-97659523D02*
X172855981Y-97326190D01*
X173379791Y-97183333D02*
X173379791Y-97659523D01*
X173379791Y-97659523D02*
X172379791Y-97659523D01*
X172379791Y-97659523D02*
X172379791Y-97183333D01*
X173379791Y-96754761D02*
X172379791Y-96754761D01*
X172379791Y-96754761D02*
X172379791Y-96516666D01*
X172379791Y-96516666D02*
X172427410Y-96373809D01*
X172427410Y-96373809D02*
X172522648Y-96278571D01*
X172522648Y-96278571D02*
X172617886Y-96230952D01*
X172617886Y-96230952D02*
X172808362Y-96183333D01*
X172808362Y-96183333D02*
X172951219Y-96183333D01*
X172951219Y-96183333D02*
X173141695Y-96230952D01*
X173141695Y-96230952D02*
X173236933Y-96278571D01*
X173236933Y-96278571D02*
X173332172Y-96373809D01*
X173332172Y-96373809D02*
X173379791Y-96516666D01*
X173379791Y-96516666D02*
X173379791Y-96754761D01*
X174307200Y-111314285D02*
X174354819Y-111171428D01*
X174354819Y-111171428D02*
X174354819Y-110933333D01*
X174354819Y-110933333D02*
X174307200Y-110838095D01*
X174307200Y-110838095D02*
X174259580Y-110790476D01*
X174259580Y-110790476D02*
X174164342Y-110742857D01*
X174164342Y-110742857D02*
X174069104Y-110742857D01*
X174069104Y-110742857D02*
X173973866Y-110790476D01*
X173973866Y-110790476D02*
X173926247Y-110838095D01*
X173926247Y-110838095D02*
X173878628Y-110933333D01*
X173878628Y-110933333D02*
X173831009Y-111123809D01*
X173831009Y-111123809D02*
X173783390Y-111219047D01*
X173783390Y-111219047D02*
X173735771Y-111266666D01*
X173735771Y-111266666D02*
X173640533Y-111314285D01*
X173640533Y-111314285D02*
X173545295Y-111314285D01*
X173545295Y-111314285D02*
X173450057Y-111266666D01*
X173450057Y-111266666D02*
X173402438Y-111219047D01*
X173402438Y-111219047D02*
X173354819Y-111123809D01*
X173354819Y-111123809D02*
X173354819Y-110885714D01*
X173354819Y-110885714D02*
X173402438Y-110742857D01*
X174354819Y-110314285D02*
X173354819Y-110314285D01*
X173354819Y-110314285D02*
X173354819Y-110076190D01*
X173354819Y-110076190D02*
X173402438Y-109933333D01*
X173402438Y-109933333D02*
X173497676Y-109838095D01*
X173497676Y-109838095D02*
X173592914Y-109790476D01*
X173592914Y-109790476D02*
X173783390Y-109742857D01*
X173783390Y-109742857D02*
X173926247Y-109742857D01*
X173926247Y-109742857D02*
X174116723Y-109790476D01*
X174116723Y-109790476D02*
X174211961Y-109838095D01*
X174211961Y-109838095D02*
X174307200Y-109933333D01*
X174307200Y-109933333D02*
X174354819Y-110076190D01*
X174354819Y-110076190D02*
X174354819Y-110314285D01*
X174069104Y-109361904D02*
X174069104Y-108885714D01*
X174354819Y-109457142D02*
X173354819Y-109123809D01*
X173354819Y-109123809D02*
X174354819Y-108790476D01*
X173497438Y-104661904D02*
X173449819Y-104757142D01*
X173449819Y-104757142D02*
X173449819Y-104899999D01*
X173449819Y-104899999D02*
X173497438Y-105042856D01*
X173497438Y-105042856D02*
X173592676Y-105138094D01*
X173592676Y-105138094D02*
X173687914Y-105185713D01*
X173687914Y-105185713D02*
X173878390Y-105233332D01*
X173878390Y-105233332D02*
X174021247Y-105233332D01*
X174021247Y-105233332D02*
X174211723Y-105185713D01*
X174211723Y-105185713D02*
X174306961Y-105138094D01*
X174306961Y-105138094D02*
X174402200Y-105042856D01*
X174402200Y-105042856D02*
X174449819Y-104899999D01*
X174449819Y-104899999D02*
X174449819Y-104804761D01*
X174449819Y-104804761D02*
X174402200Y-104661904D01*
X174402200Y-104661904D02*
X174354580Y-104614285D01*
X174354580Y-104614285D02*
X174021247Y-104614285D01*
X174021247Y-104614285D02*
X174021247Y-104804761D01*
X174449819Y-104185713D02*
X173449819Y-104185713D01*
X173449819Y-104185713D02*
X174449819Y-103614285D01*
X174449819Y-103614285D02*
X173449819Y-103614285D01*
X174449819Y-103138094D02*
X173449819Y-103138094D01*
X173449819Y-103138094D02*
X173449819Y-102899999D01*
X173449819Y-102899999D02*
X173497438Y-102757142D01*
X173497438Y-102757142D02*
X173592676Y-102661904D01*
X173592676Y-102661904D02*
X173687914Y-102614285D01*
X173687914Y-102614285D02*
X173878390Y-102566666D01*
X173878390Y-102566666D02*
X174021247Y-102566666D01*
X174021247Y-102566666D02*
X174211723Y-102614285D01*
X174211723Y-102614285D02*
X174306961Y-102661904D01*
X174306961Y-102661904D02*
X174402200Y-102757142D01*
X174402200Y-102757142D02*
X174449819Y-102899999D01*
X174449819Y-102899999D02*
X174449819Y-103138094D01*
X175777200Y-108350475D02*
X175824819Y-108207618D01*
X175824819Y-108207618D02*
X175824819Y-107969523D01*
X175824819Y-107969523D02*
X175777200Y-107874285D01*
X175777200Y-107874285D02*
X175729580Y-107826666D01*
X175729580Y-107826666D02*
X175634342Y-107779047D01*
X175634342Y-107779047D02*
X175539104Y-107779047D01*
X175539104Y-107779047D02*
X175443866Y-107826666D01*
X175443866Y-107826666D02*
X175396247Y-107874285D01*
X175396247Y-107874285D02*
X175348628Y-107969523D01*
X175348628Y-107969523D02*
X175301009Y-108159999D01*
X175301009Y-108159999D02*
X175253390Y-108255237D01*
X175253390Y-108255237D02*
X175205771Y-108302856D01*
X175205771Y-108302856D02*
X175110533Y-108350475D01*
X175110533Y-108350475D02*
X175015295Y-108350475D01*
X175015295Y-108350475D02*
X174920057Y-108302856D01*
X174920057Y-108302856D02*
X174872438Y-108255237D01*
X174872438Y-108255237D02*
X174824819Y-108159999D01*
X174824819Y-108159999D02*
X174824819Y-107921904D01*
X174824819Y-107921904D02*
X174872438Y-107779047D01*
X175729580Y-106779047D02*
X175777200Y-106826666D01*
X175777200Y-106826666D02*
X175824819Y-106969523D01*
X175824819Y-106969523D02*
X175824819Y-107064761D01*
X175824819Y-107064761D02*
X175777200Y-107207618D01*
X175777200Y-107207618D02*
X175681961Y-107302856D01*
X175681961Y-107302856D02*
X175586723Y-107350475D01*
X175586723Y-107350475D02*
X175396247Y-107398094D01*
X175396247Y-107398094D02*
X175253390Y-107398094D01*
X175253390Y-107398094D02*
X175062914Y-107350475D01*
X175062914Y-107350475D02*
X174967676Y-107302856D01*
X174967676Y-107302856D02*
X174872438Y-107207618D01*
X174872438Y-107207618D02*
X174824819Y-107064761D01*
X174824819Y-107064761D02*
X174824819Y-106969523D01*
X174824819Y-106969523D02*
X174872438Y-106826666D01*
X174872438Y-106826666D02*
X174920057Y-106779047D01*
X175824819Y-105874285D02*
X175824819Y-106350475D01*
X175824819Y-106350475D02*
X174824819Y-106350475D01*
X175024819Y-103548094D02*
X175024819Y-102929047D01*
X175024819Y-102929047D02*
X175405771Y-103262380D01*
X175405771Y-103262380D02*
X175405771Y-103119523D01*
X175405771Y-103119523D02*
X175453390Y-103024285D01*
X175453390Y-103024285D02*
X175501009Y-102976666D01*
X175501009Y-102976666D02*
X175596247Y-102929047D01*
X175596247Y-102929047D02*
X175834342Y-102929047D01*
X175834342Y-102929047D02*
X175929580Y-102976666D01*
X175929580Y-102976666D02*
X175977200Y-103024285D01*
X175977200Y-103024285D02*
X176024819Y-103119523D01*
X176024819Y-103119523D02*
X176024819Y-103405237D01*
X176024819Y-103405237D02*
X175977200Y-103500475D01*
X175977200Y-103500475D02*
X175929580Y-103548094D01*
X175024819Y-102643332D02*
X176024819Y-102309999D01*
X176024819Y-102309999D02*
X175024819Y-101976666D01*
X175024819Y-101738570D02*
X175024819Y-101119523D01*
X175024819Y-101119523D02*
X175405771Y-101452856D01*
X175405771Y-101452856D02*
X175405771Y-101309999D01*
X175405771Y-101309999D02*
X175453390Y-101214761D01*
X175453390Y-101214761D02*
X175501009Y-101167142D01*
X175501009Y-101167142D02*
X175596247Y-101119523D01*
X175596247Y-101119523D02*
X175834342Y-101119523D01*
X175834342Y-101119523D02*
X175929580Y-101167142D01*
X175929580Y-101167142D02*
X175977200Y-101214761D01*
X175977200Y-101214761D02*
X176024819Y-101309999D01*
X176024819Y-101309999D02*
X176024819Y-101595713D01*
X176024819Y-101595713D02*
X175977200Y-101690951D01*
X175977200Y-101690951D02*
X175929580Y-101738570D01*
D16*
%TO.C,U102*%
X118440000Y-104757500D02*
X118200000Y-104427500D01*
X118680000Y-104427500D01*
X118440000Y-104757500D01*
G36*
X118440000Y-104757500D02*
G01*
X118200000Y-104427500D01*
X118680000Y-104427500D01*
X118440000Y-104757500D01*
G37*
X121360000Y-104867500D02*
X121360000Y-108087500D01*
X117940000Y-108087500D02*
X117940000Y-104867500D01*
%TO.C,U301*%
X142165000Y-108010000D02*
X142165000Y-103390000D01*
X150235000Y-103390000D02*
X150235000Y-108010000D01*
X149780000Y-101840000D02*
X149540000Y-101510000D01*
X150020000Y-101510000D01*
X149780000Y-101840000D01*
G36*
X149780000Y-101840000D02*
G01*
X149540000Y-101510000D01*
X150020000Y-101510000D01*
X149780000Y-101840000D01*
G37*
%TO.C,U101*%
D15*
X161110000Y-95055000D02*
X164050000Y-95055000D01*
X161110000Y-101715000D02*
X161110000Y-95055000D01*
X164050000Y-95055000D02*
X164050000Y-101715000D01*
X164050000Y-101715000D02*
X161110000Y-101715000D01*
X164460000Y-101385000D02*
G75*
G02*
X164400000Y-101385000I-30000J0D01*
G01*
X164400000Y-101385000D02*
G75*
G02*
X164460000Y-101385000I30000J0D01*
G01*
%TO.C,U405*%
X115200000Y-114010000D02*
X115200000Y-114230000D01*
X115200000Y-114010000D02*
X118440000Y-114010000D01*
X115200000Y-117250000D02*
X115200000Y-117030000D01*
X115200000Y-117250000D02*
X118440000Y-117250000D01*
X118440000Y-114010000D02*
X118440000Y-114230000D01*
X118440000Y-117250000D02*
X118440000Y-117030000D01*
D16*
X114720000Y-114230000D02*
X114480000Y-113900000D01*
X114960000Y-113900000D01*
X114720000Y-114230000D01*
G36*
X114720000Y-114230000D02*
G01*
X114480000Y-113900000D01*
X114960000Y-113900000D01*
X114720000Y-114230000D01*
G37*
%TO.C,J202*%
X109620000Y-94400000D02*
X110190000Y-94400000D01*
X109620000Y-99600000D02*
X109620000Y-94400000D01*
X109620000Y-99600000D02*
X110190000Y-99600000D01*
X110190000Y-94400000D02*
X110190000Y-93040000D01*
X111710000Y-94400000D02*
X112730000Y-94400000D01*
X111710000Y-99600000D02*
X112730000Y-99600000D01*
X114250000Y-94400000D02*
X115270000Y-94400000D01*
X114250000Y-99600000D02*
X115270000Y-99600000D01*
X116790000Y-94400000D02*
X117810000Y-94400000D01*
X116790000Y-99600000D02*
X117810000Y-99600000D01*
X119330000Y-94400000D02*
X120350000Y-94400000D01*
X119330000Y-99600000D02*
X120350000Y-99600000D01*
X121870000Y-94400000D02*
X122890000Y-94400000D01*
X121870000Y-99600000D02*
X122890000Y-99600000D01*
X124410000Y-94400000D02*
X125430000Y-94400000D01*
X124410000Y-99600000D02*
X125430000Y-99600000D01*
X126950000Y-94400000D02*
X127970000Y-94400000D01*
X126950000Y-99600000D02*
X127970000Y-99600000D01*
X129490000Y-94400000D02*
X130510000Y-94400000D01*
X129490000Y-99600000D02*
X130510000Y-99600000D01*
X132030000Y-94400000D02*
X133050000Y-94400000D01*
X132030000Y-99600000D02*
X133050000Y-99600000D01*
X134570000Y-94400000D02*
X135590000Y-94400000D01*
X134570000Y-99600000D02*
X135590000Y-99600000D01*
X137110000Y-94400000D02*
X138130000Y-94400000D01*
X137110000Y-99600000D02*
X138130000Y-99600000D01*
X139650000Y-94400000D02*
X140670000Y-94400000D01*
X139650000Y-99600000D02*
X140670000Y-99600000D01*
X142190000Y-94400000D02*
X143210000Y-94400000D01*
X142190000Y-99600000D02*
X143210000Y-99600000D01*
X144730000Y-94400000D02*
X145750000Y-94400000D01*
X144730000Y-99600000D02*
X145750000Y-99600000D01*
X147270000Y-94400000D02*
X148290000Y-94400000D01*
X147270000Y-99600000D02*
X148290000Y-99600000D01*
X149810000Y-94400000D02*
X150380000Y-94400000D01*
X149810000Y-99600000D02*
X150380000Y-99600000D01*
X150380000Y-99600000D02*
X150380000Y-94400000D01*
%TO.C,U404*%
D10*
X136853300Y-130080500D02*
X136853300Y-120080490D01*
X138353300Y-118580490D02*
X148353300Y-118580490D01*
X138353300Y-131580490D02*
X148353300Y-131580490D01*
X149853300Y-130080500D02*
X149853300Y-120080490D01*
X136853300Y-120080490D02*
G75*
G02*
X138353300Y-118580490I1500000J0D01*
G01*
X138353300Y-131580500D02*
G75*
G02*
X136853300Y-130080500I0J1500000D01*
G01*
X148353300Y-118580490D02*
G75*
G02*
X149853300Y-120080490I0J-1500000D01*
G01*
X149853300Y-130080500D02*
G75*
G02*
X148353300Y-131580500I-1500000J0D01*
G01*
%TO.C,J301*%
D16*
X176415000Y-108450000D02*
X176415000Y-100720000D01*
X179175000Y-100720000D02*
X176415000Y-100720000D01*
X179175000Y-108450000D02*
X176415000Y-108450000D01*
X179175000Y-108450000D02*
X179175000Y-100720000D01*
X179175000Y-109720000D02*
X179175000Y-111100000D01*
X179175000Y-111100000D02*
X177795000Y-111100000D01*
%TO.C,U501*%
D15*
X168000000Y-103175000D02*
X168090000Y-103175000D01*
X168000000Y-106995000D02*
X168000000Y-103175000D01*
X168000000Y-106995000D02*
X168090000Y-106995000D01*
X173000000Y-103175000D02*
X172910000Y-103175000D01*
X173000000Y-103175000D02*
X173000000Y-106995000D01*
X173000000Y-106995000D02*
X172910000Y-106995000D01*
X173030000Y-102835000D02*
G75*
G02*
X172970000Y-102835000I-30000J0D01*
G01*
X172970000Y-102835000D02*
G75*
G02*
X173030000Y-102835000I30000J0D01*
G01*
%TO.C,U105*%
D17*
X134550000Y-107410000D02*
X136990000Y-107410000D01*
X136990000Y-110050000D02*
X134550000Y-110050000D01*
D10*
X133820000Y-107930000D02*
G75*
G02*
X133620000Y-107930000I-100000J0D01*
G01*
X133620000Y-107930000D02*
G75*
G02*
X133820000Y-107930000I100000J0D01*
G01*
%TO.C,D301*%
D15*
X176575000Y-98775000D02*
X176575000Y-100235000D01*
X176575000Y-100235000D02*
X178865000Y-100235000D01*
X178865000Y-98775000D02*
X176575000Y-98775000D01*
%TO.C,J101*%
D16*
X149170000Y-132640000D02*
X150590000Y-132640000D01*
X149170000Y-144360000D02*
X149170000Y-132640000D01*
X150590000Y-132640000D02*
X150590000Y-137140000D01*
X151430000Y-134550000D02*
X152030000Y-134550000D01*
X151730000Y-135150000D02*
X151430000Y-134550000D01*
X152030000Y-134550000D02*
X151730000Y-135150000D01*
X160480000Y-144360000D02*
X149170000Y-144360000D01*
X160480000Y-144360000D02*
X171790000Y-144360000D01*
X170370000Y-132640000D02*
X170370000Y-137140000D01*
X171790000Y-132640000D02*
X170370000Y-132640000D01*
X171790000Y-144360000D02*
X171790000Y-132640000D01*
X151480000Y-138250000D02*
X151980000Y-138250000D01*
X151980000Y-143750000D01*
X151480000Y-143750000D01*
X151480000Y-138250000D01*
X153980000Y-138250000D02*
X154480000Y-138250000D01*
X154480000Y-143750000D01*
X153980000Y-143750000D01*
X153980000Y-138250000D01*
X156480000Y-138250000D02*
X156980000Y-138250000D01*
X156980000Y-143750000D01*
X156480000Y-143750000D01*
X156480000Y-138250000D01*
X158980000Y-138250000D02*
X159480000Y-138250000D01*
X159480000Y-143750000D01*
X158980000Y-143750000D01*
X158980000Y-138250000D01*
X161480000Y-138250000D02*
X161980000Y-138250000D01*
X161980000Y-143750000D01*
X161480000Y-143750000D01*
X161480000Y-138250000D01*
X163980000Y-138250000D02*
X164480000Y-138250000D01*
X164480000Y-143750000D01*
X163980000Y-143750000D01*
X163980000Y-138250000D01*
X166480000Y-138250000D02*
X166980000Y-138250000D01*
X166980000Y-143750000D01*
X166480000Y-143750000D01*
X166480000Y-138250000D01*
X168980000Y-138250000D02*
X169480000Y-138250000D01*
X169480000Y-143750000D01*
X168980000Y-143750000D01*
X168980000Y-138250000D01*
%TO.C,U401*%
D10*
X83443295Y-130080500D02*
X83443295Y-120080490D01*
X84943295Y-118580490D02*
X94943295Y-118580490D01*
X84943295Y-131580490D02*
X94943295Y-131580490D01*
X96443295Y-130080500D02*
X96443295Y-120080490D01*
X83443295Y-120080490D02*
G75*
G02*
X84943295Y-118580490I1500000J0D01*
G01*
X84943295Y-131580500D02*
G75*
G02*
X83443295Y-130080500I0J1500000D01*
G01*
X94943295Y-118580490D02*
G75*
G02*
X96443295Y-120080490I0J-1500000D01*
G01*
X96443295Y-130080500D02*
G75*
G02*
X94943295Y-131580500I-1500000J0D01*
G01*
%TO.C,U104*%
D16*
X125450000Y-108130000D02*
X125450000Y-104910000D01*
X128870000Y-104910000D02*
X128870000Y-108130000D01*
X125950000Y-104800000D02*
X125710000Y-104470000D01*
X126190000Y-104470000D01*
X125950000Y-104800000D01*
G36*
X125950000Y-104800000D02*
G01*
X125710000Y-104470000D01*
X126190000Y-104470000D01*
X125950000Y-104800000D01*
G37*
%TO.C,U402*%
D10*
X101246630Y-130080500D02*
X101246630Y-120080490D01*
X102746630Y-118580490D02*
X112746630Y-118580490D01*
X102746630Y-131580490D02*
X112746630Y-131580490D01*
X114246630Y-130080500D02*
X114246630Y-120080490D01*
X101246630Y-120080490D02*
G75*
G02*
X102746630Y-118580490I1500000J0D01*
G01*
X102746630Y-131580500D02*
G75*
G02*
X101246630Y-130080500I0J1500000D01*
G01*
X112746630Y-118580490D02*
G75*
G02*
X114246630Y-120080490I0J-1500000D01*
G01*
X114246630Y-130080500D02*
G75*
G02*
X112746630Y-131580500I-1500000J0D01*
G01*
%TO.C,SENSOR101*%
D18*
X109960000Y-105020000D02*
X111100000Y-105020000D01*
X109960000Y-106160000D02*
X109960000Y-105020000D01*
X109960000Y-108580000D02*
X109960000Y-107430000D01*
X111100000Y-108580000D02*
X109960000Y-108580000D01*
X112370000Y-105020000D02*
X113520000Y-105020000D01*
X113520000Y-105020000D02*
X113520000Y-106160000D01*
X113520000Y-107430000D02*
X113520000Y-108580000D01*
X113520000Y-108580000D02*
X112370000Y-108580000D01*
X109710000Y-104640000D02*
G75*
G02*
X109450000Y-104640000I-130000J0D01*
G01*
X109450000Y-104640000D02*
G75*
G02*
X109710000Y-104640000I130000J0D01*
G01*
D19*
X110270000Y-105300000D02*
G75*
G02*
X110210000Y-105300000I-30000J0D01*
G01*
X110210000Y-105300000D02*
G75*
G02*
X110270000Y-105300000I30000J0D01*
G01*
%TO.C,U403*%
D10*
X119049965Y-130080500D02*
X119049965Y-120080490D01*
X120549965Y-118580490D02*
X130549965Y-118580490D01*
X120549965Y-131580490D02*
X130549965Y-131580490D01*
X132049965Y-130080500D02*
X132049965Y-120080490D01*
X119049965Y-120080490D02*
G75*
G02*
X120549965Y-118580490I1500000J0D01*
G01*
X120549965Y-131580500D02*
G75*
G02*
X119049965Y-130080500I0J1500000D01*
G01*
X130549965Y-118580490D02*
G75*
G02*
X132049965Y-120080490I0J-1500000D01*
G01*
X132049965Y-130080500D02*
G75*
G02*
X130549965Y-131580500I-1500000J0D01*
G01*
%TO.C,U103*%
D15*
X96172500Y-107307500D02*
X96172500Y-105577500D01*
X96172500Y-115657500D02*
X96172500Y-113687500D01*
X98142500Y-105337500D02*
X96472500Y-105337500D01*
X98142500Y-115657500D02*
X96172500Y-115657500D01*
X104522500Y-105337500D02*
X106492500Y-105337500D01*
X104522500Y-115657500D02*
X106492500Y-115657500D01*
X106492500Y-105337500D02*
X106492500Y-107307500D01*
X106492500Y-115657500D02*
X106492500Y-113687500D01*
D16*
X96172500Y-105337500D02*
X95932500Y-105007500D01*
X96412500Y-105007500D01*
X96172500Y-105337500D01*
G36*
X96172500Y-105337500D02*
G01*
X95932500Y-105007500D01*
X96412500Y-105007500D01*
X96172500Y-105337500D01*
G37*
%TD*%
%LPC*%
D20*
%TO.C,U105*%
X136445000Y-109630000D02*
X135095000Y-109630000D01*
X135095000Y-108150000D01*
X135415000Y-107830000D01*
X136445000Y-107830000D01*
X136445000Y-109630000D01*
G36*
X136445000Y-109630000D02*
G01*
X135095000Y-109630000D01*
X135095000Y-108150000D01*
X135415000Y-107830000D01*
X136445000Y-107830000D01*
X136445000Y-109630000D01*
G37*
%TD*%
D21*
%TO.C,C113*%
X100157500Y-104432500D03*
X98597500Y-104432500D03*
%TD*%
D22*
%TO.C,U102*%
X118450000Y-107665000D03*
X119250000Y-107665000D03*
X120050000Y-107665000D03*
X120850000Y-107665000D03*
X120850000Y-105290000D03*
X120050000Y-105290000D03*
X119250000Y-105290000D03*
X118450000Y-105290000D03*
%TD*%
D23*
%TO.C,C106*%
X118460000Y-110417500D03*
X118460000Y-108857500D03*
%TD*%
%TO.C,C105*%
X120060000Y-110407500D03*
X120060000Y-108847500D03*
%TD*%
D24*
%TO.C,U301*%
X149775000Y-102837500D03*
X149125000Y-102837500D03*
X148475000Y-102837500D03*
X147825000Y-102837500D03*
X147175000Y-102837500D03*
X146525000Y-102837500D03*
X145875000Y-102837500D03*
X145225000Y-102837500D03*
X144575000Y-102837500D03*
X143925000Y-102837500D03*
X143275000Y-102837500D03*
X142625000Y-102837500D03*
X142625000Y-108562500D03*
X143275000Y-108562500D03*
X143925000Y-108562500D03*
X144575000Y-108562500D03*
X145225000Y-108562500D03*
X145875000Y-108562500D03*
X146525000Y-108562500D03*
X147175000Y-108562500D03*
X147825000Y-108562500D03*
X148475000Y-108562500D03*
X149125000Y-108562500D03*
X149775000Y-108562500D03*
%TD*%
D25*
%TO.C,C108*%
X138075000Y-108755000D03*
X139635000Y-108755000D03*
%TD*%
D23*
%TO.C,C109*%
X133485000Y-107785000D03*
X133485000Y-109345000D03*
%TD*%
D26*
%TO.C,R106*%
X132280000Y-107800000D03*
X132280000Y-109440000D03*
%TD*%
D27*
%TO.C,U101*%
X165650000Y-100685000D03*
X165650000Y-98385000D03*
X165650000Y-96085000D03*
D28*
X159680000Y-97385000D03*
X159680000Y-98385000D03*
D29*
X159680000Y-98385000D03*
D28*
X159680000Y-99385000D03*
%TD*%
D30*
%TO.C,H101*%
X84000000Y-94000000D03*
D31*
X84000000Y-94000000D03*
%TD*%
D32*
%TO.C,U405*%
X114670000Y-114630000D03*
X114670000Y-115130000D03*
X114670000Y-115630000D03*
X114670000Y-116130000D03*
X114670000Y-116630000D03*
X118970000Y-116630000D03*
X118970000Y-116130000D03*
X118970000Y-115630000D03*
X118970000Y-115130000D03*
X118970000Y-114630000D03*
%TD*%
D33*
%TO.C,J202*%
X110950000Y-94480000D03*
X110950000Y-99520000D03*
X113490000Y-94480000D03*
X113490000Y-99520000D03*
X116030000Y-94480000D03*
X116030000Y-99520000D03*
X118570000Y-94480000D03*
X118570000Y-99520000D03*
X121110000Y-94480000D03*
X121110000Y-99520000D03*
X123650000Y-94480000D03*
X123650000Y-99520000D03*
X126190000Y-94480000D03*
X126190000Y-99520000D03*
X128730000Y-94480000D03*
X128730000Y-99520000D03*
X131270000Y-94480000D03*
X131270000Y-99520000D03*
X133810000Y-94480000D03*
X133810000Y-99520000D03*
X136350000Y-94480000D03*
X136350000Y-99520000D03*
X138890000Y-94480000D03*
X138890000Y-99520000D03*
X141430000Y-94480000D03*
X141430000Y-99520000D03*
X143970000Y-94480000D03*
X143970000Y-99520000D03*
X146510000Y-94480000D03*
X146510000Y-99520000D03*
X149050000Y-94480000D03*
X149050000Y-99520000D03*
%TD*%
D25*
%TO.C,C101*%
X167740000Y-96085000D03*
X169300000Y-96085000D03*
%TD*%
D34*
%TO.C,R104*%
X158370000Y-123700000D03*
X156730000Y-123700000D03*
%TD*%
D26*
%TO.C,R103*%
X164250000Y-122440000D03*
X164250000Y-124080000D03*
%TD*%
D21*
%TO.C,C112*%
X111750000Y-109330000D03*
X110190000Y-109330000D03*
%TD*%
D35*
%TO.C,U404*%
X136853340Y-125080510D03*
X149853330Y-125080510D03*
D36*
X145870340Y-131049510D03*
X143330340Y-131049510D03*
X140790340Y-131049510D03*
%TD*%
D37*
%TO.C,R304*%
X153130000Y-108500000D03*
X154770000Y-108500000D03*
%TD*%
D38*
%TO.C,J301*%
X177795000Y-109720000D03*
D39*
X177795000Y-107180000D03*
X177795000Y-104640000D03*
X177795000Y-102100000D03*
%TD*%
D25*
%TO.C,C102*%
X167840000Y-98385000D03*
X169400000Y-98385000D03*
%TD*%
D40*
%TO.C,U501*%
X172410000Y-102375000D03*
X171140000Y-102375000D03*
X169860000Y-102375000D03*
X168590000Y-102375000D03*
X168590000Y-107795000D03*
X169860000Y-107795000D03*
X171140000Y-107795000D03*
X172410000Y-107795000D03*
%TD*%
D41*
%TO.C,U105*%
X134620000Y-107930000D03*
X134620000Y-108730000D03*
X134620000Y-109530000D03*
X136920000Y-109530000D03*
X136920000Y-108730000D03*
X136920000Y-107930000D03*
%TD*%
D23*
%TO.C,C110*%
X114300000Y-107960000D03*
X114300000Y-109520000D03*
%TD*%
D42*
%TO.C,D301*%
X177275000Y-99505000D03*
X178855000Y-99505000D03*
%TD*%
D34*
%TO.C,R305*%
X160870000Y-121950000D03*
X159230000Y-121950000D03*
%TD*%
D43*
%TO.C,H105*%
X155000000Y-99000000D03*
%TD*%
D37*
%TO.C,R306*%
X160080000Y-124000000D03*
X161720000Y-124000000D03*
%TD*%
D44*
%TO.C,J101*%
X151730000Y-136650000D03*
D45*
X154230000Y-136650000D03*
X156730000Y-136650000D03*
X159230000Y-136650000D03*
X161730000Y-136650000D03*
X164230000Y-136650000D03*
X166730000Y-136650000D03*
X169230000Y-136650000D03*
%TD*%
D35*
%TO.C,U401*%
X83443335Y-125080510D03*
X96443325Y-125080510D03*
D36*
X92460335Y-131049510D03*
X89920335Y-131049510D03*
X87380335Y-131049510D03*
%TD*%
D46*
%TO.C,C501*%
X173800000Y-107645000D03*
X173800000Y-106085000D03*
%TD*%
D37*
%TO.C,R311*%
X174130000Y-99500000D03*
X175770000Y-99500000D03*
%TD*%
D43*
%TO.C,H106*%
X105000000Y-99000000D03*
%TD*%
D21*
%TO.C,C107*%
X100222500Y-116487500D03*
X98662500Y-116487500D03*
%TD*%
D22*
%TO.C,U104*%
X125960000Y-105332500D03*
X126760000Y-105332500D03*
X127560000Y-105332500D03*
X128360000Y-105332500D03*
X128360000Y-107707500D03*
X127560000Y-107707500D03*
X126760000Y-107707500D03*
X125960000Y-107707500D03*
%TD*%
D43*
%TO.C,H103*%
X176000000Y-136000000D03*
%TD*%
D35*
%TO.C,U402*%
X101246670Y-125080510D03*
X114246660Y-125080510D03*
D36*
X110263670Y-131049510D03*
X107723670Y-131049510D03*
X105183670Y-131049510D03*
%TD*%
D46*
%TO.C,C301*%
X151050000Y-108480000D03*
X151050000Y-106920000D03*
%TD*%
D26*
%TO.C,R102*%
X156750000Y-118030000D03*
X156750000Y-119670000D03*
%TD*%
D43*
%TO.C,H104*%
X176000000Y-94000000D03*
%TD*%
D47*
%TO.C,SENSOR101*%
X110690000Y-105750000D03*
X110690000Y-106800000D03*
X110690000Y-107850000D03*
X111740000Y-107850000D03*
X112790000Y-107850000D03*
X112790000Y-106800000D03*
X112790000Y-105750000D03*
X111740000Y-105750000D03*
X111740000Y-106800000D03*
%TD*%
D23*
%TO.C,C104*%
X127550000Y-108940000D03*
X127550000Y-110500000D03*
%TD*%
%TO.C,C103*%
X125960000Y-108890000D03*
X125960000Y-110450000D03*
%TD*%
D35*
%TO.C,U403*%
X119050005Y-125080510D03*
X132049995Y-125080510D03*
D36*
X128067005Y-131049510D03*
X125527005Y-131049510D03*
X122987005Y-131049510D03*
%TD*%
D26*
%TO.C,R105*%
X169250000Y-122440000D03*
X169250000Y-124080000D03*
%TD*%
D37*
%TO.C,R308*%
X153380000Y-111100000D03*
X155020000Y-111100000D03*
%TD*%
D48*
%TO.C,U103*%
X97182500Y-107997500D03*
X97182500Y-109247500D03*
X97182500Y-110497500D03*
X97182500Y-111747500D03*
X97182500Y-112997500D03*
D49*
X98832500Y-114647500D03*
X100082500Y-114647500D03*
X101332500Y-114647500D03*
X102582500Y-114647500D03*
X103832500Y-114647500D03*
D48*
X105482500Y-112997500D03*
X105482500Y-111747500D03*
X105482500Y-110497500D03*
X105482500Y-109247500D03*
X105482500Y-107997500D03*
D49*
X103832500Y-106347500D03*
X102582500Y-106347500D03*
X101332500Y-106347500D03*
X100082500Y-106347500D03*
X98832500Y-106347500D03*
D50*
X101332500Y-110497500D03*
%TD*%
D34*
%TO.C,R310*%
X153170000Y-102800000D03*
X151530000Y-102800000D03*
%TD*%
D21*
%TO.C,C111*%
X111740000Y-110530000D03*
X110180000Y-110530000D03*
%TD*%
D43*
%TO.C,H102*%
X84000000Y-136000000D03*
%TD*%
D25*
%TO.C,C401*%
X120440000Y-115520000D03*
X122000000Y-115520000D03*
%TD*%
D34*
%TO.C,R101*%
X156750000Y-121450000D03*
X155110000Y-121450000D03*
%TD*%
%LPD*%
M02*
